{
.appVersion = "983";
DisplayStrings = (
"ABCDEFGH/_part.stem.cap IJK/_part.stem.cap LMNOPQRSTUVWXYZ",
"abcdefghijkv/_part.stem_ascender flmnop/_part.stem_ascender qrstuvuwxyz"
);
classes = (
{
automatic = 1;
code = "A Aacute Abreve Acircumflex Adieresis Agrave Amacron Aogonek Aring Atilde AE B C Cacute Ccaron Ccedilla Ccircumflex D Eth Dcaron Dcroat E Eacute Ecaron Ecircumflex Edieresis Edotaccent Egrave Emacron Eogonek F G Gcircumflex Gcommaaccent H Hbar Hcircumflex I Iacute Icircumflex Idieresis Igrave Imacron Iogonek J Jcircumflex K Kcommaaccent L Lacute Lcaron Lcommaaccent Lslash M N Nacute Ncaron Ncommaaccent Eng Ntilde O Oacute Ocircumflex Odieresis Ograve Ohungarumlaut Omacron Oslash Otilde OE P Thorn Q R Racute Rcaron Rcommaaccent S Sacute Scaron Scedilla Scircumflex Germandbls T Tbar Tcaron Tcedilla U Uacute Ubreve Ucircumflex Udieresis Ugrave Uhungarumlaut Umacron Uogonek Uring V W Wacute Wcircumflex Wdieresis Wgrave X Y Yacute Ycircumflex Ydieresis Ygrave Z Z.ss01 Zacute Zcaron Zdotaccent";
name = Uppercase;
},
{
code = "b h k l kcommaaccent lacute lcaron lcommaaccent lslash thorn hcircumflex";
name = acender_left;
},
{
code = "abreve acircumflex adieresis amacron atilde ccaron eth iacute icircumflex idieresis igrave imacron iogonek jcircumflex racute rcaron scaron yacute ycircumflex ydieresis ygrave zcaron rcaron";
name = f_vs_diacritics;
}
);
customParameters = (
{
name = note;
value = "--- kerning italic numbers --- look at negative space and counters, bold in partic.---capitals need to thin in italic---2 & 5 too wide---";
}
);
date = "2015-10-09 09:15:36 +0000";
designer = "Mirco Monsees";
designerURL = "http://www.mircomonsees.com";
familyName = "Alenta Serif";
featurePrefixes = (
{
automatic = 1;
code = "languagesystem DFLT dflt;\012";
name = Languagesystems;
}
);
features = (
{
automatic = 1;
code = "feature ccmp;\012feature lnum;\012feature onum;\012feature case;\012feature calt;\012feature salt;\012feature ss01;\012";
name = aalt;
},
{

glyphs = (
{
color = 1;
glyphname = A;
lastChange = "2017-08-05 12:26:13 +0000";
layers = (
{
anchors = (
{
name = bottom;
position = "{360, 0}";
},
{
name = ogonek;
position = "{641, 10}";
},
{
name = top;
position = "{339, 680}";
}
);
background = {
components = (
{
name = V;
transform = "{-1, 0, 0, -1, 732, 700}";
}
);
};
guideLines = (
{
angle = 86;
position = "{319, 98}";
}
);
layerId = "11343128-4963-4E5D-BE9C-B74F53B36FA5";
paths = (
{
closed = 1;
nodes = (
"174 220 LINE",
"489 219 LINE",
"485 292 LINE",
"204 294 LINE"
);
},
{
closed = 1;
nodes = (
"244 240 OFFCURVE",
"304 390 OFFCURVE",
"356 539 CURVE SMOOTH",
"389 632 OFFCURVE",
"383 645 OFFCURVE",
"378 682 CURVE",
"302 681 LINE",
"246 511 OFFCURVE",
"119 158 OFFCURVE",
"78 78 CURVE",
"10 65 LINE",
"5 0 LINE",
"273 1 LINE",
"278 66 LINE",
"205 78 LINE"
);
},
{
closed = 1;
nodes = (
"613 140 OFFCURVE",
"453 600 OFFCURVE",
"428 686 CURVE",
"197 681 LINE",
"188 615 LINE",
"313 585 LINE",
"360 419 OFFCURVE",
"465 116 OFFCURVE",
"470 107 CURVE SMOOTH",
"478 92 OFFCURVE",
"499 78 OFFCURVE",
"518 77 CURVE",
"409 66 LINE",
"404 0 LINE",
"697 0 LINE",
"702 66 LINE",
"648 78 LINE"
);
}
);
width = 707;
},
{
associatedMasterId = "11343128-4963-4E5D-BE9C-B74F53B36FA5";
layerId = "99FD9458-CBA2-45AB-A58A-A2BD1C7E9AA4";
name = bubble;
paths = (
{
closed = 1;
nodes = (
"692 224 OFFCURVE",
"646 410 OFFCURVE",
"550 789 CURVE",
"70 778 LINE",
"38 546 LINE",
"106 529 LINE",
"67 384 OFFCURVE",
"23 233 OFFCURVE",
"0 161 CURVE",
"0 143 LINE",
"0 -101 LINE",
"256 -99 LINE",
"256 -100 LINE",
"707 -100 LINE",
"707 138.006 LINE",
"707 157 LINE"
);
}
);
width = 707;
},
{
anchors = (
{
name = bottom;
position = "{317, 0}";
},
{
name = ogonek;
position = "{598, 10}";
},
{
name = top;
position = "{301, 680}";
}
);
background = {
paths = (
{
closed = 1;
nodes = (
"660 30 LINE",
"594 40 LINE",
"341 680 LINE",
"289 674 OFFCURVE",
"229 670 OFFCURVE",
"167 670 CURVE",
"162 640 LINE",
"187 631 OFFCURVE",
"218 622 OFFCURVE",
"249 616 CURVE",
"29 55 LINE",
"3 49 OFFCURVE",
"-22 40 OFFCURVE",
"-45 30 CURVE",
"-45 0 LINE",
"170 0 LINE",
"175 30 LINE",
"94 44 LINE",
"164 230 LINE",
"431 230 LINE",
"495 55 LINE",
"468 49 OFFCURVE",
"443 40 OFFCURVE",
"420 30 CURVE",
"420 0 LINE",
"655 0 LINE"
);
},
{
closed = 1;
nodes = (
"410 285 LINE",
"185 285 LINE",
"294 575 LINE",
"298 625 LINE",
"300 625 LINE",
"304 575 LINE"
);
}
);
};
guideLines = (
{
angle = 86;
position = "{49, 240}";
},
{
angle = -0.1047;
position = "{-877, 49}";
}
);
layerId = "0B1F8F77-7348-4C28-A663-EA76351238C4";
paths = (
{
closed = 1;
nodes = (
"177 237 LINE",
"442 236 LINE",
"439 285 LINE",
"184 287 LINE"
);
},
{
closed = 1;
nodes = (
"199 220 OFFCURVE",
"252 388 OFFCURVE",
"301 538 CURVE SMOOTH",
"315 581 OFFCURVE",
"323 640 OFFCURVE",
"320 670 CURVE",
"272 619 LINE",
"218 453 OFFCURVE",
"104 138 OFFCURVE",
"72 58 CURVE",
"10 46 LINE",
"7 31 OFFCURVE",
"4 15 OFFCURVE",
"5 0 CURVE",
"232 1 LINE",
"235 16 OFFCURVE",
"237 31 OFFCURVE",
"236 46 CURVE",
"150 58 LINE"
);
},
{
closed = 1;
nodes = (
"547 118 OFFCURVE",
"377 598 OFFCURVE",
"352 684 CURVE",
"305 681 OFFCURVE",
"241 675 OFFCURVE",
"195 670 CURVE",
"193 657 OFFCURVE",
"194 640 OFFCURVE",
"198 627 CURVE",
"300 618 LINE",
"311 611 LINE",
"355 449 OFFCURVE",
"464 123 OFFCURVE",
"478 87 CURVE SMOOTH",
"484 72 OFFCURVE",
"507 58 OFFCURVE",
"526 57 CURVE",
"412 47 LINE",
"409 31 OFFCURVE",
"406 16 OFFCURVE",
"407 0 CURVE",
"635 0 LINE",
"638 15 OFFCURVE",
"640 31 OFFCURVE",
"639 46 CURVE",
"582 56 LINE"
);
}
);
width = 630;
}
);
leftKerningGroup = A;
rightKerningGroup = A;
unicode = 0041;
},
{
glyphname = AE;
lastChange = "2017-07-22 16:08:56 +0000";
layers = (
{
anchors = (
{
name = bottom;
position = "{476, 0}";
},
{
name = ogonek;
position = "{757, 10}";
},
{
name = top;
position = "{476, 700}";
},
{
name = topleft;
position = "{663, 700}";
}
);
components = (
{
name = _part.stem.cap;
transform = "{1, 0, -0.1047, 1, 148, 0}";
}
);
layerId = "11343128-4963-4E5D-BE9C-B74F53B36FA5";
paths = (
{
closed = 1;
nodes = (
"232 211 LINE",
"541 276 LINE",
"522 346 LINE",
"246 290 LINE"
);
},
{
closed = 1;
nodes = (
"254 240 OFFCURVE",
"319 390 OFFCURVE",
"372 539 CURVE SMOOTH",
"405 632 OFFCURVE",
"399 641 OFFCURVE",
"394 678 CURVE",
"318 678 LINE",
"262 508 OFFCURVE",
"138 206 OFFCURVE",
"97 126 CURVE SMOOTH",
"71 75 OFFCURVE",
"47 67 OFFCURVE",
"12 66 CURVE",
"5 0 LINE",
"270 1 LINE",
"278 66 LINE",
"205 78 LINE"
);
},
{
closed = 1;
nodes = (
"215 681 LINE",
"200 615 LINE",
"323 587 LINE",
"358 680 LINE"
);
},
{
closed = 1;
nodes = (
"509 0 LINE",
"735 0 OFFCURVE",
"674 1 OFFCURVE",
"854 -4 CURVE",
"876 189 LINE",
"811 197 LINE",
"780 115 LINE",
"737 101 OFFCURVE",
"635 96 OFFCURVE",
"556 99 CURVE"
);
},
{
closed = 1;
nodes = (
"530 267 LINE",
"719 286 LINE",
"712 393 LINE",
"694 399 LINE",
"637 386 OFFCURVE",
"573 369 OFFCURVE",
"516 354 CURVE"
);
},
{
closed = 1;
nodes = (
"583 585 OFFCURVE",
"672 582 OFFCURVE",
"722 574 CURVE",
"740 482 LINE",
"811 492 LINE",
"812 674 LINE",
"797 688 LINE",
"648 678 OFFCURVE",
"598 683 OFFCURVE",
"448 680 CURVE",
"463 586 LINE"
);
}
);
width = 881;
},
{
background = {
anchors = (
{
name = bottom;
position = "{648, 0}";
},
{
name = ogonek;
position = "{880, 10}";
},
{
name = top;
position = "{659, 708}";
},
{
name = topleft;
position = "{378, 700}";
}
);
paths = (
{
closed = 1;
nodes = (
"570 623 OFFCURVE",
"636 619 OFFCURVE",
"686 609 CURVE",
"701 527 LINE",
"747 537 LINE",
"749 689 LINE",
"644 683 OFFCURVE",
"551 680 OFFCURVE",
"435 680 CURVE",
"450 624 LINE"
);
},
{
closed = 1;
nodes = (
"473 1 LINE",
"573 1 OFFCURVE",
"670 0 OFFCURVE",
"774 -3 CURVE",
"796 152 LINE",
"755 159 LINE",
"720 70 LINE",
"677 56 OFFCURVE",
"551 51 OFFCURVE",
"474 55 CURVE"
);
},
{
closed = 1;
nodes = (
"457 341 LINE",
"661 323 LINE",
"674 390 LINE",
"662 398 LINE",
"610 395 OFFCURVE",
"430 389 OFFCURVE",
"461 390 CURVE"
);
},
{
closed = 1;
nodes = (
"185 237 LINE",
"470 236 LINE",
"466 279 LINE",
"191 281 LINE"
);
},
{
closed = 1;
nodes = (
"196 220 OFFCURVE",
"279 390 OFFCURVE",
"329 539 CURVE SMOOTH",
"360 632 OFFCURVE",
"360 611 OFFCURVE",
"378 671 CURVE",
"315 679 LINE",
"264 513 OFFCURVE",
"129 198 OFFCURVE",
"95 118 CURVE SMOOTH",
"68 55 OFFCURVE",
"46 47 OFFCURVE",
"-7 47 CURVE",
"-10 0 LINE",
"211 1 LINE",
"218 46 LINE",
"144 58 LINE"
);
},
{
closed = 1;
nodes = (
"212 680 LINE",
"206 635 LINE",
"311 616 LINE",
"335 680 LINE"
);
},
{
closed = 1;
nodes = (
"291 680 LINE",
"290 636 LINE",
"361 619 LINE",
"364 584 OFFCURVE",
"374 515 OFFCURVE",
"385 388 CURVE SMOOTH",
"403 178 OFFCURVE",
"402 145 OFFCURVE",
"406 93 CURVE SMOOTH",
"407 80 OFFCURVE",
"426 61 OFFCURVE",
"453 55 CURVE",
"342 46 LINE",
"342 0 LINE",
"590 0 LINE",
"591 46 LINE",
"521 55 LINE",
"487 111 OFFCURVE",
"476 288 OFFCURVE",
"472 334 CURVE SMOOTH",
"458 491 OFFCURVE",
"453 535 OFFCURVE",
"451 572 CURVE SMOOTH",
"448 621 OFFCURVE",
"461 634 OFFCURVE",
"523 636 CURVE",
"523 680 LINE"
);
}
);
};
layerId = "0B1F8F77-7348-4C28-A663-EA76351238C4";
paths = (
{
closed = 1;
nodes = (
"563 623 OFFCURVE",
"629 619 OFFCURVE",
"679 609 CURVE",
"694 527 LINE",
"740 537 LINE",
"742 689 LINE",
"637 683 OFFCURVE",
"544 680 OFFCURVE",
"428 680 CURVE",
"443 624 LINE"
);
},
{
closed = 1;
nodes = (
"466 1 LINE",
"566 1 OFFCURVE",
"663 0 OFFCURVE",
"767 -3 CURVE",
"789 152 LINE",
"748 159 LINE",
"713 70 LINE",
"680 59 OFFCURVE",
"596 54 OFFCURVE",
"524 54 CURVE SMOOTH",
"504 54 OFFCURVE",
"484 54 OFFCURVE",
"467 55 CURVE"
);
},
{
closed = 1;
nodes = (
"461 294 LINE",
"664 321 LINE",
"661 390 LINE",
"647 395 LINE",
"598 381 OFFCURVE",
"424 334 OFFCURVE",
"454 342 CURVE"
);
},
{
closed = 1;
nodes = (
"203 235 LINE",
"473 298 LINE",
"460 339 LINE",
"198 294 LINE"
);
},
{
closed = 1;
nodes = (
"197 220 OFFCURVE",
"270 390 OFFCURVE",
"324 539 CURVE SMOOTH",
"358 632 OFFCURVE",
"360 611 OFFCURVE",
"378 671 CURVE",
"315 679 LINE",
"264 513 OFFCURVE",
"106 143 OFFCURVE",
"72 63 CURVE",
"-7 47 LINE",
"-10 0 LINE",
"211 1 LINE",
"218 46 LINE",
"144 58 LINE"
);
},
{
closed = 1;
nodes = (
"212 680 LINE",
"206 635 LINE",
"311 616 LINE",
"335 680 LINE"
);
},
{
closed = 1;
nodes = (
"291 680 LINE",
"290 636 LINE",
"361 619 LINE",
"364 584 OFFCURVE",
"374 515 OFFCURVE",
"385 388 CURVE SMOOTH",
"403 178 OFFCURVE",
"402 145 OFFCURVE",
"406 93 CURVE SMOOTH",
"407 80 OFFCURVE",
"426 61 OFFCURVE",
"453 55 CURVE",
"342 46 LINE",
"342 0 LINE",
"583 0 LINE",
"584 46 LINE",
"505 55 LINE",
"483 111 OFFCURVE",
"469 288 OFFCURVE",
"465 334 CURVE SMOOTH",
"449 508 OFFCURVE",
"444 543 OFFCURVE",
"444 584 CURVE SMOOTH",
"444 623 OFFCURVE",
"459 634 OFFCURVE",
"516 636 CURVE",
"516 680 LINE"
);
}
);
width = 809;
}
);
leftKerningGroup = A;
leftMetricsKey = A;
rightKerningGroup = E;
rightMetricsKey = "=E-30";
unicode = 00C6;
},
{
color = 1;
glyphname = B;
lastChange = "2017-08-05 17:55:13 +0000";
layers = (
{
anchors = (
{
name = bottom;
position = "{332, 0}";
},
{
name = top;
position = "{332, 680}";
}
);
background = {
components = (
{
name = R;
transform = "{1, 0, 0, 1, 25, 0}";
}
);
};
components = (
{
name = _part.stem.cap;
transform = "{1, 0, 0, 1, -182, 0}";
piece = {
"BPR?" = 1;
};
}
);
layerId = "11343128-4963-4E5D-BE9C-B74F53B36FA5";
paths = (
{
closed = 1;
nodes = (
"605 319 OFFCURVE",
"543 355 OFFCURVE",
"483 363 CURVE",
"558 389 OFFCURVE",
"613 479 OFFCURVE",
"588 564 CURVE SMOOTH",
"552 685 OFFCURVE",
"421 688 OFFCURVE",
"257 685 CURVE SMOOTH",
"205 684 OFFCURVE",
"116 680 OFFCURVE",
"108 677 CURVE",
"271 596 LINE",
"443 640 OFFCURVE",
"479 455 OFFCURVE",
"398 394 CURVE",
"359 388 OFFCURVE",
"292 388 OFFCURVE",
"255 399 CURVE",
"232 304 LINE",
"317 311 LINE",
"512 315 OFFCURVE",
"524 119 OFFCURVE",
"417 77 CURVE",
"276 85 LINE",
"225 0 LINE",
"405 -3 LINE SMOOTH",
"532 -5 OFFCURVE",
"680 73 OFFCURVE",
"624 257 CURVE SMOOTH"
);
}
);
width = 671;
},
{
anchors = (
{
name = bottom;
position = "{315, 0}";
},
{
name = top;
position = "{315, 680}";
}
);
background = {
paths = (
{
closed = 1;
nodes = (
"439 349 LINE",
"472 356 OFFCURVE",
"543 410 OFFCURVE",
"543 500 CURVE SMOOTH",
"543 612 OFFCURVE",
"458 680 OFFCURVE",
"340 680 CURVE SMOOTH",
"269 680 OFFCURVE",
"189 670 OFFCURVE",
"128 670 CURVE SMOOTH",
"58 670 LINE",
"53 640 LINE",
"76 630 OFFCURVE",
"101 621 OFFCURVE",
"128 615 CURVE",
"128 55 LINE",
"101 49 OFFCURVE",
"76 40 OFFCURVE",
"53 30 CURVE",
"53 0 LINE",
"128 0 LINE SMOOTH",
"189 0 OFFCURVE",
"239 -10 OFFCURVE",
"310 -10 CURVE SMOOTH",
"458 -10 OFFCURVE",
"573 49 OFFCURVE",
"573 186 CURVE SMOOTH",
"573 301 OFFCURVE",
"472 340 OFFCURVE",
"439 347 CURVE"
);
},
{
closed = 1;
nodes = (
"213 368 LINE",
"213 622 LINE",
"243 624 OFFCURVE",
"274 625 OFFCURVE",
"310 625 CURVE SMOOTH",
"393 625 OFFCURVE",
"458 587 OFFCURVE",
"458 490 CURVE SMOOTH",
"458 427 OFFCURVE",
"441 398 OFFCURVE",
"441 398 CURVE",
"414 376 OFFCURVE",
"376 368 OFFCURVE",
"323 368 CURVE SMOOTH"
);
},
{
closed = 1;
nodes = (
"453 60 OFFCURVE",
"406 45 OFFCURVE",
"340 45 CURVE SMOOTH",
"297 45 OFFCURVE",
"251 47 OFFCURVE",
"208 49 CURVE",
"211 74 OFFCURVE",
"213 100 OFFCURVE",
"213 130 CURVE SMOOTH",
"213 317 LINE",
"323 317 LINE SMOOTH",
"410 317 OFFCURVE",
"488 286 OFFCURVE",
"488 176 CURVE SMOOTH",
"488 118 OFFCURVE",
"475 81 OFFCURVE",
"475 81 CURVE"
);
}
);
};
components = (
{
name = _part.stem.cap;
transform = "{1, 0, 0, 1, -119, 0}";
piece = {
"BPR?" = 1;
};
}
);
layerId = "0B1F8F77-7348-4C28-A663-EA76351238C4";
paths = (
{
closed = 1;
nodes = (
"479 375 OFFCURVE",
"542 469 OFFCURVE",
"516 559 CURVE SMOOTH",
"485 662 OFFCURVE",
"404 685 OFFCURVE",
"280 685 CURVE SMOOTH",
"259 685 OFFCURVE",
"237 684 OFFCURVE",
"213 683 CURVE SMOOTH",
"171 681 OFFCURVE",
"76 681 OFFCURVE",
"68 678 CURVE",
"217 628 LINE",
"243 635 OFFCURVE",
"267 639 OFFCURVE",
"288 639 CURVE SMOOTH",
"365 639 OFFCURVE",
"413 597 OFFCURVE",
"431 547 CURVE SMOOTH",
"454 483 OFFCURVE",
"424 408 OFFCURVE",
"352 380 CURVE",
"307 378 OFFCURVE",
"260 378 OFFCURVE",
"217 381 CURVE",
"217 320 LINE",
"259 323 OFFCURVE",
"272 326 OFFCURVE",
"308 327 CURVE SMOOTH",
"406 331 OFFCURVE",
"467 274 OFFCURVE",
"484 214 CURVE SMOOTH",
"505 147 OFFCURVE",
"474 73 OFFCURVE",
"409 50 CURVE",
"229 58 LINE",
"178 0 LINE",
"351 -3 LINE SMOOTH",
"500 -6 OFFCURVE",
"568 88 OFFCURVE",
"568 180 CURVE SMOOTH",
"568 268 OFFCURVE",
"507 354 OFFCURVE",
"394 358 CURVE"
);
}
);
width = 608;
}
);
leftKerningGroup = I;
rightKerningGroup = B;
unicode = 0042;
},
{
color = 1;
glyphname = C;
lastChange = "2017-08-05 12:19:49 +0000";
layers = (
{
anchors = (
{
name = bottom;
position = "{326, 0}";
},
{
name = top;
position = "{350, 680}";
}
);
background = {
components = (
{
name = O;
transform = "{1, 0, 0, 1, -5, 0}";
}
);
};
layerId = "11343128-4963-4E5D-BE9C-B74F53B36FA5";
paths = (
{
closed = 1;
nodes = (
"547 106 OFFCURVE",
"461 79 OFFCURVE",
"398 86 CURVE SMOOTH",
"287 98 OFFCURVE",
"218 159 OFFCURVE",
"191 269 CURVE SMOOTH",
"146 452 OFFCURVE",
"251 578 OFFCURVE",
"324 604 CURVE",
"371 605 OFFCURVE",
"466 589 OFFCURVE",
"490 569 CURVE",
"510 484 LINE",
"582 494 LINE",
"589 656 LINE",
"552 680 OFFCURVE",
"472 699 OFFCURVE",
"356 696 CURVE SMOOTH",
"106 690 OFFCURVE",
"-24 431 OFFCURVE",
"42 202 CURVE SMOOTH",
"88 42 OFFCURVE",
"234 -20 OFFCURVE",
"376 -16 CURVE SMOOTH",
"504 -12 OFFCURVE",
"581 37 OFFCURVE",
"602 55 CURVE",
"582 126 LINE"
);
},
{
closed = 1;
nodes = (
"605 204 LINE",
"534 204 LINE",
"497 59 LINE",
"602 55 LINE"
);
}
);
width = 645;
},
{
anchors = (
{
name = bottom;
position = "{330, 0}";
},
{
name = top;
position = "{355, 680}";
}
);
background = {
components = (
{
name = G;
transform = "{1, 0, 0, 1, 21, 0}";
}
);
};
guideLines = (
{
angle = 85;
position = "{561, 285}";
}
);
layerId = "0B1F8F77-7348-4C28-A663-EA76351238C4";
paths = (
{
closed = 1;
nodes = (
"485 69 OFFCURVE",
"428 53 OFFCURVE",
"375 53 CURVE SMOOTH",
"217 53 OFFCURVE",
"132 186 OFFCURVE",
"132 354 CURVE SMOOTH",
"132 510 OFFCURVE",
"233 614 OFFCURVE",
"307 634 CURVE",
"352 635 OFFCURVE",
"457 628 OFFCURVE",
"481 605 CURVE",
"492 522 LINE",
"509 523 OFFCURVE",
"526 527 OFFCURVE",
"541 532 CURVE",
"548 655 LINE",
"506 680 OFFCURVE",
"445 692 OFFCURVE",
"384 692 CURVE SMOOTH",
"179 692 OFFCURVE",
"50 545 OFFCURVE",
"50 330 CURVE SMOOTH",
"50 126 OFFCURVE",
"159 -10 OFFCURVE",
"348 -10 CURVE SMOOTH",
"420 -10 OFFCURVE",
"494 13 OFFCURVE",
"556 55 CURVE",
"539 99 LINE"
);
},
{
closed = 1;
nodes = (
"556 55 LINE",
"556 178 LINE",
"540 179 OFFCURVE",
"524 177 OFFCURVE",
"508 174 CURVE",
"485 60 LINE"
);
}
);
width = 606;
}
);
leftKerningGroup = O;
rightKerningGroup = C;
unicode = 0043;
},
{
glyphname = D;
lastChange = "2017-08-05 17:55:25 +0000";
layers = (
{
anchors = (
{
name = bottom;
position = "{345, 0}";
},
{
name = center;
position = "{185, 350}";
},
{
name = top;
position = "{345, 680}";
}
);
background = {
paths = (
{
closed = 1;
nodes = (
"47 0 LINE",
"325 -3 LINE SMOOTH",
"538 -5 OFFCURVE",
"704 198 OFFCURVE",
"636 482 CURVE SMOOTH",
"592 666 OFFCURVE",
"438 703 OFFCURVE",
"257 705 CURVE SMOOTH",
"183 706 OFFCURVE",
"90 701 OFFCURVE",
"57 700 CURVE",
"250 622 LINE",
"319 632 OFFCURVE",
"453 582 OFFCURVE",
"486 441 CURVE SMOOTH",
"534 234 OFFCURVE",
"439 107 OFFCURVE",
"366 71 CURVE",
"250 85 LINE"
);
}
);
};
components = (
{
name = _part.stem.cap;
transform = "{1, 0, 0, 1, -182, 0}";
}
);
layerId = "11343128-4963-4E5D-BE9C-B74F53B36FA5";
paths = (
{
closed = 1;
nodes = (
"59 0 LINE",
"357 -2 LINE SMOOTH",
"586 -4 OFFCURVE",
"727 225 OFFCURVE",
"658 480 CURVE SMOOTH",
"612 650 OFFCURVE",
"460 688 OFFCURVE",
"279 688 CURVE SMOOTH",
"197 688 OFFCURVE",
"84 682 OFFCURVE",
"51 680 CURVE",
"268 606 LINE",
"386 620 OFFCURVE",
"478 552 OFFCURVE",
"506 427 CURVE SMOOTH",
"547 245 OFFCURVE",
"473 112 OFFCURVE",
"389 75 CURVE",
"259 90 LINE"
);
}
);
width = 701;
},
{
anchors = (
{
name = bottom;
position = "{328, 0}";
},
{
name = center;
position = "{168, 350}";
},
{
name = top;
position = "{328, 680}";
}
);
background = {
components = (
{
name = C;
transform = "{-1, 0, 0, -1, 709, 684}";
}
);
};
components = (
{
name = _part.stem.cap;
transform = "{1, 0, 0, 1, -119, 0}";
piece = {
"BPR?" = 1;
};
}
);
guideLines = (
{
position = "{434, 746}";
},
{
position = "{421, 865}";
}
);
layerId = "0B1F8F77-7348-4C28-A663-EA76351238C4";
paths = (
{
closed = 1;
nodes = (
"63 0 LINE",
"343 -4 LINE SMOOTH",
"563 -6 OFFCURVE",
"685 254 OFFCURVE",
"619 479 CURVE SMOOTH",
"566 653 OFFCURVE",
"449 689 OFFCURVE",
"270 689 CURVE SMOOTH",
"203 689 OFFCURVE",
"97 682 OFFCURVE",
"67 680 CURVE",
"222 638 LINE",
"233 638 OFFCURVE",
"244 639 OFFCURVE",
"254 639 CURVE SMOOTH",
"404 639 OFFCURVE",
"494 597 OFFCURVE",
"537 448 CURVE SMOOTH",
"580 293 OFFCURVE",
"536 107 OFFCURVE",
"392 51 CURVE",
"221 55 LINE"
);
}
);
width = 677;
}
);
leftKerningGroup = I;
rightKerningGroup = O;
unicode = 0044;
},
{
color = 1;
glyphname = E;
lastChange = "2017-08-05 17:42:11 +0000";
layers = (
{
anchors = (
{
name = bottom;
position = "{328, 0}";
},
{
name = ogonek;
position = "{560, 10}";
},
{
name = top;
position = "{312, 680}";
},
{
name = topleft;
position = "{58, 700}";
}
);
background = {
components = (
{
name = P;
transform = "{1, 0, 0, 1, 38, 0}";
}
);
};
components = (
{
name = _part.stem.cap;
transform = "{1, 0, 0, 1, -182, 0}";
}
);
guideLines = (
{
position = "{430, 295}";
}
);
layerId = "11343128-4963-4E5D-BE9C-B74F53B36FA5";
paths = (
{
closed = 1;
nodes = (
"215 0 LINE",
"441 0 OFFCURVE",
"380 1 OFFCURVE",
"560 -4 CURVE",
"582 189 LINE",
"517 197 LINE",
"486 115 LINE",
"443 101 OFFCURVE",
"341 96 OFFCURVE",
"262 99 CURVE"
);
},
{
closed = 1;
nodes = (
"245 322 LINE",
"433 301 LINE",
"449 407 LINE",
"433 417 LINE",
"374 416 OFFCURVE",
"308 413 OFFCURVE",
"249 410 CURVE"
);
},
{
closed = 1;
nodes = (
"320 585 OFFCURVE",
"409 582 OFFCURVE",
"459 574 CURVE",
"477 482 LINE",
"548 492 LINE",
"549 677 LINE",
"537 687 LINE",
"391 679 OFFCURVE",
"335 683 OFFCURVE",
"185 680 CURVE",
"200 586 LINE"
);
}
);
width = 617;
},
{
anchors = (
{
name = bottom;
position = "{298, 0}";
},
{
name = ogonek;
position = "{530, 10}";
},
{
name = top;
position = "{309, 680}";
},
{
name = topleft;
position = "{28, 700}";
}
);
background = {
paths = (
{
closed = 1;
nodes = (
"539 151 LINE",
"489 156 LINE",
"472 123 OFFCURVE",
"457 90 OFFCURVE",
"442 53 CURVE",
"210 47 LINE",
"214 68 OFFCURVE",
"215 89 OFFCURVE",
"215 110 CURVE SMOOTH",
"215 317 LINE",
"470 305 LINE",
"472 330 OFFCURVE",
"472 355 OFFCURVE",
"470 380 CURVE",
"215 368 LINE",
"215 623 LINE",
"423 617 LINE",
"446 513 LINE",
"496 508 LINE",
"504 543 OFFCURVE",
"513 616 OFFCURVE",
"515 660 CURVE",
"505 670 LINE",
"60 670 LINE",
"55 640 LINE",
"78 630 OFFCURVE",
"103 621 OFFCURVE",
"130 615 CURVE",
"130 55 LINE",
"103 49 OFFCURVE",
"78 40 OFFCURVE",
"55 30 CURVE",
"55 0 LINE",
"515 0 LINE",
"525 10 LINE"
);
}
);
};
backgroundImage = {
crop = "{{0, 0}, {1602, 412}}";
imagePath = "/Users/MasterFGH/Desktop/Bildschirmfoto 2017-07-22 um 12.54.32.jpg";
locked = "1";
transform = "{1.996, 0, 0, 1.996, -2585, -60}";
};
components = (
{
name = _part.stem.cap;
transform = "{1, 0, 0, 1, -118, 0}";
}
);
guideLines = (
{
position = "{424, 322}";
}
);
layerId = "0B1F8F77-7348-4C28-A663-EA76351238C4";
paths = (
{
closed = 1;
nodes = (
"220 1 LINE",
"320 1 OFFCURVE",
"430 0 OFFCURVE",
"534 -3 CURVE",
"556 152 LINE",
"542 157 OFFCURVE",
"529 160 OFFCURVE",
"515 159 CURVE",
"480 70 LINE",
"447 59 OFFCURVE",
"355 54 OFFCURVE",
"280 54 CURVE SMOOTH",
"258 54 OFFCURVE",
"238 54 OFFCURVE",
"221 55 CURVE"
);
},
{
closed = 1;
nodes = (
"204 338 LINE",
"421 320 LINE",
"434 387 LINE",
"422 395 LINE",
"370 392 OFFCURVE",
"177 386 OFFCURVE",
"208 387 CURVE"
);
},
{
closed = 1;
nodes = (
"317 623 OFFCURVE",
"410 619 OFFCURVE",
"460 609 CURVE",
"475 527 LINE",
"491 527 OFFCURVE",
"507 531 OFFCURVE",
"521 537 CURVE",
"523 680 LINE",
"514 689 LINE",
"411 683 OFFCURVE",
"295 680 OFFCURVE",
"182 680 CURVE",
"197 624 LINE"
);
}
);
width = 606;
}
);
leftKerningGroup = I;
rightKerningGroup = E;
unicode = 0045;
},
{
color = 1;
glyphname = F;
lastChange = "2017-08-05 17:42:16 +0000";
layers = (
{
anchors = (
{
name = bottom;
position = "{308, 0}";
},
{
name = top;
position = "{308, 680}";
}
);
background = {
components = (
{
name = I;
transform = "{1, 0, 0, 1, 20, 0}";
}
);
paths = (
{
closed = 1;
nodes = (
"237 327 LINE",
"358 320 LINE",
"371 274 LINE",
"429 277 LINE",
"432 320 OFFCURVE",
"434 405 OFFCURVE",
"419 405 CURVE SMOOTH",
"410 405 OFFCURVE",
"195 398 OFFCURVE",
"241 399 CURVE"
);
},
{
closed = 1;
nodes = (
"167 0 LINE",
"359 0 LINE",
"364 53 LINE",
"231 75 LINE"
);
}
);
};
components = (
{
name = _part.stem.cap;
transform = "{1, 0, 0, 1, -182, 0}";
}
);
guideLines = (
{
angle = 86;
position = "{426, 235}";
}
);
layerId = "11343128-4963-4E5D-BE9C-B74F53B36FA5";
paths = (
{
closed = 1;
nodes = (
"321 595 OFFCURVE",
"408 592 OFFCURVE",
"458 584 CURVE",
"480 492 LINE",
"549 502 LINE",
"543 678 LINE",
"529 687 LINE",
"417 681 OFFCURVE",
"297 682 OFFCURVE",
"186 680 CURVE",
"201 596 LINE"
);
},
{
closed = 1;
nodes = (
"221 0 LINE",
"403 0 LINE",
"408 66 LINE",
"287 78 LINE",
"207 61 LINE"
);
},
{
closed = 1;
nodes = (
"255 313 LINE",
"443 292 LINE",
"459 398 LINE",
"443 408 LINE",
"384 407 OFFCURVE",
"318 404 OFFCURVE",
"259 401 CURVE"
);
}
);
width = 564;
},
{
anchors = (
{
name = bottom;
position = "{289, 0}";
},
{
name = top;
position = "{289, 680}";
}
);
background = {
components = (
{
name = E;
transform = "{1, 0, 0, 1, 5, 0}";
}
);
};
components = (
{
name = _part.stem.cap;
transform = "{1, 0, 0, 1, -118, 0}";
}
);
layerId = "0B1F8F77-7348-4C28-A663-EA76351238C4";
paths = (
{
closed = 1;
nodes = (
"196 318 LINE",
"415 300 LINE",
"428 367 LINE",
"416 375 LINE",
"364 372 OFFCURVE",
"169 366 OFFCURVE",
"200 367 CURVE"
);
},
{
closed = 1;
nodes = (
"311 623 OFFCURVE",
"409 618 OFFCURVE",
"459 610 CURVE",
"474 527 LINE",
"490 529 OFFCURVE",
"505 533 OFFCURVE",
"521 537 CURVE",
"521 680 LINE",
"512 688 LINE",
"399 682 OFFCURVE",
"289 681 OFFCURVE",
"176 680 CURVE",
"191 624 LINE"
);
},
{
closed = 1;
nodes = (
"206 36 LINE",
"211 0 LINE",
"342 0 LINE",
"346 16 OFFCURVE",
"348 32 OFFCURVE",
"348 48 CURVE",
"222 60 LINE"
);
}
);
width = 571;
}
);
leftKerningGroup = I;
rightKerningGroup = F;
unicode = 0046;
},
{
color = 1;
glyphname = G;
lastChange = "2017-08-05 17:43:36 +0000";
layers = (
{
anchors = (
{
name = bottom;
position = "{340, 0}";
},
{
name = top;
position = "{354, 680}";
}
);
background = {
components = (
{
name = C;
transform = "{1, 0, 0, 1, -6, 0}";
}
);
};
guideLines = (
{
angle = 86;
position = "{656, 414}";
},
{
angle = 90;
position = "{612, 214}";
}
);
layerId = "11343128-4963-4E5D-BE9C-B74F53B36FA5";
paths = (
{
closed = 1;
nodes = (
"124 692 OFFCURVE",
"-18 463 OFFCURVE",
"36 223 CURVE SMOOTH",
"73 59 OFFCURVE",
"206 -5 OFFCURVE",
"324 -14 CURVE SMOOTH",
"458 -24 OFFCURVE",
"556 12 OFFCURVE",
"610 51 CURVE",
"608 129 OFFCURVE",
"608 236 OFFCURVE",
"609 258 CURVE",
"644 274 LINE",
"649 344 LINE",
"562 343 OFFCURVE",
"478 343 OFFCURVE",
"395 345 CURVE",
"390 277 LINE",
"475 257 LINE",
"478 201 OFFCURVE",
"477 123 OFFCURVE",
"461 82 CURVE",
"374 64 OFFCURVE",
"232 103 OFFCURVE",
"191 267 CURVE SMOOTH",
"145 450 OFFCURVE",
"255 577 OFFCURVE",
"318 604 CURVE",
"381 607 OFFCURVE",
"470 591 OFFCURVE",
"511 555 CURVE",
"526 472 LINE",
"603 483 LINE",
"613 656 LINE",
"568 677 OFFCURVE",
"480 701 OFFCURVE",
"366 698 CURVE SMOOTH"
);
}
);
width = 699;
},
{
anchors = (
{
name = bottom;
position = "{326, 0}";
},
{
name = top;
position = "{340, 680}";
}
);
background = {
components = (
{
name = O;
transform = "{1, 0, 0, 1, -8, 1}";
}
);
};
guideLines = (
{
angle = 90;
position = "{578, 405}";
}
);
layerId = "0B1F8F77-7348-4C28-A663-EA76351238C4";
paths = (
{
closed = 1;
nodes = (
"121 685 OFFCURVE",
"-9 475 OFFCURVE",
"40 230 CURVE SMOOTH",
"74 66 OFFCURVE",
"189 -4 OFFCURVE",
"307 -12 CURVE SMOOTH",
"326 -13 OFFCURVE",
"343 -14 OFFCURVE",
"359 -14 CURVE SMOOTH",
"469 -14 OFFCURVE",
"522 14 OFFCURVE",
"569 48 CURVE",
"567 81 OFFCURVE",
"566 122 OFFCURVE",
"566 160 CURVE SMOOTH",
"566 211 OFFCURVE",
"567 243 OFFCURVE",
"568 256 CURVE",
"622 273 LINE",
"625 287 OFFCURVE",
"626 302 OFFCURVE",
"625 316 CURVE",
"582 316 OFFCURVE",
"436 316 OFFCURVE",
"393 316 CURVE",
"388 302 OFFCURVE",
"387 287 OFFCURVE",
"388 273 CURVE",
"494 252 LINE",
"495 231 OFFCURVE",
"496 207 OFFCURVE",
"496 185 CURVE SMOOTH",
"496 135 OFFCURVE",
"493 84 OFFCURVE",
"477 58 CURVE",
"448 49 OFFCURVE",
"416 44 OFFCURVE",
"383 44 CURVE SMOOTH",
"277 44 OFFCURVE",
"164 95 OFFCURVE",
"126 266 CURVE SMOOTH",
"90 420 OFFCURVE",
"157 593 OFFCURVE",
"299 641 CURVE",
"394 643 OFFCURVE",
"462 629 OFFCURVE",
"493 602 CURVE",
"502 519 LINE",
"519 519 OFFCURVE",
"535 523 OFFCURVE",
"552 529 CURVE",
"561 654 LINE",
"524 679 OFFCURVE",
"471 695 OFFCURVE",
"384 695 CURVE SMOOTH",
"374 695 OFFCURVE",
"364 694 OFFCURVE",
"353 694 CURVE SMOOTH"
);
}
);
width = 633;
}
);
leftKerningGroup = O;
rightKerningGroup = I;
unicode = 0047;
},
{
color = 1;
glyphname = H;
lastChange = "2017-08-05 17:35:05 +0000";
layers = (
{
anchors = (
{
name = bottom;
position = "{383, 0}";
},
{
name = center;
position = "{383, 350}";
},
{
name = top;
position = "{383, 680}";
},
{
name = topleft;
position = "{42, 700}";
}
);
components = (
{
name = _part.stem.cap;
transform = "{1, 0, 0, 1, -182, 0}";
},
{
name = _part.stem.cap;
transform = "{1, 0, 0, 1, 219, 0}";
}
);
layerId = "11343128-4963-4E5D-BE9C-B74F53B36FA5";
paths = (
{
closed = 1;
nodes = (
"234 305 LINE",
"559 308 LINE",
"550 391 LINE",
"238 391 LINE"
);
}
);
width = 802;
},
{
anchors = (
{
name = bottom;
position = "{370, 0}";
},
{
name = center;
position = "{370, 350}";
},
{
name = top;
position = "{370, 680}";
},
{
name = topleft;
position = "{29, 700}";
}
);
background = {
paths = (
{
closed = 1;
nodes = (
"679 629 LINE",
"749 640 LINE",
"744 670 LINE",
"524 670 LINE",
"519 640 LINE",
"542 630 OFFCURVE",
"567 621 OFFCURVE",
"594 615 CURVE",
"594 370 LINE",
"214 370 LINE",
"214 629 LINE",
"284 640 LINE",
"279 670 LINE",
"59 670 LINE",
"54 640 LINE",
"77 630 OFFCURVE",
"102 621 OFFCURVE",
"129 615 CURVE",
"129 55 LINE",
"102 49 OFFCURVE",
"77 40 OFFCURVE",
"54 30 CURVE",
"54 0 LINE",
"279 0 LINE",
"284 30 LINE",
"208 42 LINE",
"212 69 OFFCURVE",
"214 97 OFFCURVE",
"214 130 CURVE SMOOTH",
"214 315 LINE",
"594 315 LINE",
"594 55 LINE",
"567 49 OFFCURVE",
"542 40 OFFCURVE",
"519 30 CURVE",
"519 0 LINE",
"744 0 LINE",
"749 30 LINE",
"673 42 LINE",
"677 69 OFFCURVE",
"679 97 OFFCURVE",
"679 130 CURVE SMOOTH"
);
}
);
};
components = (
{
name = _part.stem.cap;
transform = "{1, 0, 0, 1, -118, 0}";
},
{
name = _part.stem.cap;
transform = "{1, 0, 0, 1, 284, 0}";
}
);
layerId = "0B1F8F77-7348-4C28-A663-EA76351238C4";
paths = (
{
closed = 1;
nodes = (
"194 312 LINE",
"327 316 OFFCURVE",
"460 316 OFFCURVE",
"593 314 CURVE",
"584 375 LINE",
"455 371 OFFCURVE",
"327 371 OFFCURVE",
"198 375 CURVE"
);
}
);
width = 764;
}
);
leftKerningGroup = I;
rightKerningGroup = I;
unicode = 0048;
},
{
glyphname = Hbar;
lastChange = "2017-07-22 16:08:56 +0000";
layers = (
{
components = (
{
name = H;
}
);
layerId = "11343128-4963-4E5D-BE9C-B74F53B36FA5";
paths = (
{
closed = 1;
nodes = (
"799.89 528.73 LINE",
"782.445 537.089 LINE",
"549.849 537.089 OFFCURVE",
"301.47 533.289 OFFCURVE",
"29.831 534.809 CURVE",
"19.032 461.859 LINE",
"40.63 455.779 LINE",
"291.501 458.059 OFFCURVE",
"535.727 458.059 OFFCURVE",
"790.752 457.299 CURVE"
);
}
);
width = 818;
},
{
components = (
{
name = H;
transform = "{1, 0, 0, 1, 27, 0}";
}
);
layerId = "0B1F8F77-7348-4C28-A663-EA76351238C4";
paths = (
{
closed = 1;
nodes = (
"750 513 LINE",
"739 523 LINE",
"553 523 OFFCURVE",
"352 520 OFFCURVE",
"139 520 CURVE SMOOTH",
"112 520 OFFCURVE",
"85 520 OFFCURVE",
"58 520 CURVE",
"50 474 LINE",
"62 467 LINE",
"194 468 OFFCURVE",
"326 469 OFFCURVE",
"459 469 CURVE SMOOTH",
"552 469 OFFCURVE",
"646 468 OFFCURVE",
"741 468 CURVE"
);
}
);
width = 800;
}
);
leftMetricsKey = H;
rightMetricsKey = H;
unicode = 0126;
},
{
color = 1;
glyphname = I;
lastChange = "2017-08-05 17:43:21 +0000";
layers = (
{
anchors = (
{
name = bottom;
position = "{200, 0}";
},
{
name = ogonek;
position = "{340, 10}";
},
{
name = top;
position = "{181, 680}";
},
{
name = topleft;
position = "{44, 700}";
}
);
background = {
components = (
{
name = _part.stem.cap;
transform = "{1, 0, 0, 1, -194, 0}";
}
);
};
guideLines = (
{
angle = 90;
position = "{18, 101}";
}
);
layerId = "11343128-4963-4E5D-BE9C-B74F53B36FA5";
paths = (
{
closed = 1;
nodes = (
"43 680 LINE",
"38 613 LINE",
"96 603 LINE",
"108 577 OFFCURVE",
"108 524 OFFCURVE",
"108 407 CURVE SMOOTH",
"108 197 OFFCURVE",
"97 124 OFFCURVE",
"102 108 CURVE SMOOTH",
"106 96 OFFCURVE",
"118 81 OFFCURVE",
"147 75 CURVE",
"39 65 LINE",
"35 0 LINE",
"338 1 LINE",
"343 64 LINE",
"283 74 LINE",
"249 132 OFFCURVE",
"253 238 OFFCURVE",
"253 353 CURVE SMOOTH",
"253 500 OFFCURVE",
"256 576 OFFCURVE",
"267 603 CURVE",
"326 615 LINE",
"331 680 LINE"
);
}
);
width = 373;
},
{
anchors = (
{
name = bottom;
position = "{183, 0}";
},
{
name = ogonek;
position = "{323, 10}";
},
{
name = top;
position = "{181, 680}";
},
{
name = topleft;
position = "{27, 700}";
}
);
components = (
{
name = _part.stem.cap;
transform = "{1, 0, 0, 1, -118, 0}";
}
);
guideLines = (
{
angle = 90;
position = "{1, 101}";
}
);
layerId = "0B1F8F77-7348-4C28-A663-EA76351238C4";
width = 362;
}
);
leftKerningGroup = I;
rightKerningGroup = I;
unicode = 0049;
},
{
color = 1;
glyphname = J;
lastChange = "2017-08-05 17:55:46 +0000";
layers = (
{
anchors = (
{
name = bottom;
position = "{142, 0}";
},
{
name = top;
position = "{142, 680}";
}
);
background = {
components = (
{
name = I;
transform = "{1, 0, 0, 1, -45, 0}";
}
);
};
guideLines = (
{
position = "{-196, -204}";
},
{
angle = 86;
position = "{21, 377}";
}
);
layerId = "11343128-4963-4E5D-BE9C-B74F53B36FA5";
paths = (
{
closed = 1;
nodes = (
"17 681 LINE",
"12 613 LINE",
"66 603 LINE",
"79 578 OFFCURVE",
"75 269 OFFCURVE",
"75 209 CURVE",
"75 -39 OFFCURVE",
"50 -115 OFFCURVE",
"10 -163 CURVE",
"47 -206 LINE",
"162 -145 OFFCURVE",
"221 -31 OFFCURVE",
"221 275 CURVE SMOOTH",
"221 441 OFFCURVE",
"221 561 OFFCURVE",
"230 603 CURVE",
"287 613 LINE",
"292 680 LINE"
);
}
);
width = 317;
},
{
anchors = (
{
name = bottom;
position = "{176, 0}";
},
{
name = top;
position = "{171, 680}";
}
);
background = {
components = (
{
name = I;
transform = "{1, 0, 0, 1, 14, 0}";
}
);
};
guideLines = (
{
position = "{-162, -204}";
},
{
angle = 85;
position = "{298, 452}";
}
);
layerId = "0B1F8F77-7348-4C28-A663-EA76351238C4";
paths = (
{
closed = 1;
nodes = (
"54 681 LINE",
"51 666 OFFCURVE",
"49 651 OFFCURVE",
"50 636 CURVE",
"121 626 LINE",
"128 613 OFFCURVE",
"128 536 OFFCURVE",
"129 443 CURVE SMOOTH",
"130 338 OFFCURVE",
"130 286 OFFCURVE",
"129 186 CURVE SMOOTH",
"127 -62 OFFCURVE",
"91 -113 OFFCURVE",
"51 -158 CURVE",
"75 -187 LINE",
"166 -120 OFFCURVE",
"211 0 OFFCURVE",
"211 275 CURVE SMOOTH",
"211 364 OFFCURVE",
"210 450 OFFCURVE",
"210 515 CURVE SMOOTH",
"210 572 OFFCURVE",
"211 612 OFFCURVE",
"214 623 CURVE",
"282 635 LINE",
"285 650 OFFCURVE",
"287 665 OFFCURVE",
"286 680 CURVE"
);
}
);
width = 336;
}
);
leftKerningGroup = I;
rightKerningGroup = I;
unicode = 004A;
},
{
color = 1;
glyphname = K;
lastChange = "2017-08-05 12:26:43 +0000";
layers = (
{
anchors = (
{
name = bottom;
position = "{391, 0}";
},
{
name = top;
position = "{391, 680}";
}
);
background = {
components = (
{
name = R;
transform = "{1, 0, 0, 1, 49, 0}";
}
);
};
components = (
{
name = _part.stem.cap;
transform = "{1, 0, 0, 1, -182, 0}";
}
);
guideLines = (
{
position = "{-219, 248}";
},
{
angle = 86;
position = "{270, 399}";
},
{
angle = 86;
position = "{660, 350}";
}
);
layerId = "11343128-4963-4E5D-BE9C-B74F53B36FA5";
paths = (
{
closed = 1;
nodes = (
"441 545 OFFCURVE",
"363 460 OFFCURVE",
"290 372 CURVE",
"290 321 LINE",
"382 351 LINE",
"455 444 OFFCURVE",
"561 572 OFFCURVE",
"587 601 CURVE",
"665 615 LINE",
"670 680 LINE",
"413 680 LINE",
"408 615 LINE",
"471 603 LINE"
);
},
{
closed = 1;
nodes = (
"290 321 LINE",
"346 220 OFFCURVE",
"442 69 OFFCURVE",
"491 0 CURVE",
"551 -9 OFFCURVE",
"632 -1 OFFCURVE",
"687 18 CURVE",
"692 78 LINE",
"632 82 LINE",
"559 150 OFFCURVE",
"455 281 OFFCURVE",
"380 381 CURVE"
);
}
);
width = 724;
},
{
anchors = (
{
name = bottom;
position = "{353, 0}";
},
{
name = top;
position = "{353, 680}";
}
);
background = {
components = (
{
name = H;
transform = "{1, 0, 0, 1, -6, 0}";
}
);
};
components = (
{
name = _part.stem.cap;
transform = "{1, 0, 0, 1, -118, 0}";
}
);
guideLines = (
{
position = "{188, 680}";
},
{
angle = 90;
position = "{614, 358}";
},
{
angle = 85;
position = "{692, 231}";
},
{
position = "{1201, 18}";
}
);
layerId = "0B1F8F77-7348-4C28-A663-EA76351238C4";
paths = (
{
closed = 1;
nodes = (
"248 337 LINE",
"522 -5 LINE",
"560 -3 OFFCURVE",
"597 6 OFFCURVE",
"642 19 CURVE",
"646 34 OFFCURVE",
"647 48 OFFCURVE",
"647 63 CURVE",
"576 63 LINE",
"458 197 OFFCURVE",
"400 256 OFFCURVE",
"316 362 CURVE"
);
},
{
closed = 1;
nodes = (
"438 563 OFFCURVE",
"344 463 OFFCURVE",
"248 362 CURVE",
"248 337 LINE",
"316 356 LINE",
"608 680 LINE",
"403 680 LINE",
"399 665 OFFCURVE",
"397 650 OFFCURVE",
"399 635 CURVE",
"478 624 LINE"
);
},
{
closed = 1;
nodes = (
"529 618 LINE",
"620 635 LINE",
"624 650 OFFCURVE",
"626 665 OFFCURVE",
"624 680 CURVE",
"546 680 LINE"
);
}
);
width = 652;
}
);
leftKerningGroup = I;
rightKerningGroup = X;
unicode = 004B;
},
{
color = 1;
glyphname = L;
lastChange = "2017-08-05 12:27:30 +0000";
layers = (
{
anchors = (
{
name = bottom;
position = "{365, 0}";
},
{
name = center;
position = "{194, 350}";
},
{
name = top;
position = "{258, 680}";
},
{
name = topright;
position = "{626, 700}";
}
);
background = {
components = (
{
name = E;
transform = "{1, 0, 0, 1, 83, 0}";
}
);
};
components = (
{
name = _part.stem.cap;
transform = "{1, 0, 0, 1, -182, 0}";
}
);
guideLines = (
{
angle = 86;
position = "{602, 399}";
}
);
layerId = "11343128-4963-4E5D-BE9C-B74F53B36FA5";
paths = (
{
closed = 1;
nodes = (
"175 0 LINE",
"562 0 LINE",
"572 99 OFFCURVE",
"578 138 OFFCURVE",
"583 180 CURVE",
"516 188 LINE",
"482 106 LINE",
"441 91 OFFCURVE",
"323 85 OFFCURVE",
"286 91 CURVE",
"191 54 LINE"
);
}
);
width = 591;
},
{
anchors = (
{
name = bottom;
position = "{297, 0}";
},
{
name = center;
position = "{183, 351}";
},
{
name = top;
position = "{186, 680}";
},
{
name = topright;
position = "{558, 700}";
}
);
background = {
paths = (
{
closed = 1;
nodes = (
"539 151 LINE",
"489 156 LINE",
"473 125 OFFCURVE",
"459 93 OFFCURVE",
"445 59 CURVE",
"217 56 LINE",
"219 74 OFFCURVE",
"220 92 OFFCURVE",
"220 110 CURVE SMOOTH",
"220 629 LINE",
"290 640 LINE",
"285 670 LINE",
"65 670 LINE",
"60 640 LINE",
"83 630 OFFCURVE",
"108 621 OFFCURVE",
"135 615 CURVE",
"135 55 LINE",
"108 49 OFFCURVE",
"83 40 OFFCURVE",
"60 30 CURVE",
"60 0 LINE",
"515 0 LINE",
"525 10 LINE"
);
}
);
};
components = (
{
name = _part.stem.cap;
transform = "{1, 0, 0, 1, -118, 0}";
}
);
layerId = "0B1F8F77-7348-4C28-A663-EA76351238C4";
paths = (
{
closed = 1;
nodes = (
"162 0 LINE",
"527 0 LINE",
"532 64 OFFCURVE",
"542 153 OFFCURVE",
"543 159 CURVE",
"529 164 OFFCURVE",
"516 165 OFFCURVE",
"502 164 CURVE",
"467 72 LINE",
"434 60 OFFCURVE",
"336 53 OFFCURVE",
"279 53 CURVE SMOOTH",
"264 53 OFFCURVE",
"252 53 OFFCURVE",
"245 54 CURVE",
"190 54 LINE"
);
}
);
width = 573;
}
);
leftKerningGroup = I;
rightKerningGroup = L;
unicode = 004C;
},
{
color = 1;
glyphname = M;
lastChange = "2017-08-05 17:43:11 +0000";
layers = (
{
anchors = (
{
name = bottom;
position = "{475, 0}";
},
{
name = top;
position = "{475, 680}";
}
);
background = {
paths = (
{
closed = 1;
nodes = (
"495 43 OFFCURVE",
"510 90 OFFCURVE",
"525 137 CURVE SMOOTH",
"555 230 OFFCURVE",
"583 314 OFFCURVE",
"609 382 CURVE SMOOTH",
"622 416 OFFCURVE",
"631 445 OFFCURVE",
"639 470 CURVE",
"649 470 LINE",
"653 412 OFFCURVE",
"657 358 OFFCURVE",
"659 308 CURVE SMOOTH",
"660 287 OFFCURVE",
"663 266 OFFCURVE",
"664 246 CURVE SMOOTH",
"665 225 OFFCURVE",
"666 206 OFFCURVE",
"667 188 CURVE SMOOTH",
"669 153 OFFCURVE",
"670 125 OFFCURVE",
"670 115 CURVE SMOOTH",
"670 83 OFFCURVE",
"653 68 OFFCURVE",
"612 64 CURVE",
"604 -8 LINE",
"605 -7 OFFCURVE",
"612 -7 OFFCURVE",
"626 -6 CURVE SMOOTH",
"639 -5 OFFCURVE",
"654 -4 OFFCURVE",
"671 -3 CURVE SMOOTH",
"705 -1 OFFCURVE",
"741 0 OFFCURVE",
"758 0 CURVE SMOOTH",
"779 0 OFFCURVE",
"806 0 OFFCURVE",
"827 -2 CURVE SMOOTH",
"840 -3 OFFCURVE",
"852 -3 OFFCURVE",
"865 -3 CURVE",
"875 66 LINE",
"870 72 LINE",
"863 71 OFFCURVE",
"858 70 OFFCURVE",
"850 70 CURVE SMOOTH",
"847 70 OFFCURVE",
"843 70 OFFCURVE",
"840 70 CURVE SMOOTH",
"824 70 OFFCURVE",
"812 76 OFFCURVE",
"805 90 CURVE SMOOTH",
"798 103 OFFCURVE",
"792 128 OFFCURVE",
"789 166 CURVE SMOOTH",
"784 228 OFFCURVE",
"778 315 OFFCURVE",
"773 392 CURVE SMOOTH",
"768 468 OFFCURVE",
"764 534 OFFCURVE",
"764 558 CURVE SMOOTH",
"764 597 OFFCURVE",
"781 610 OFFCURVE",
"841 614 CURVE",
"847 680 LINE",
"843 684 LINE",
"818 681 OFFCURVE",
"794 680 OFFCURVE",
"770 679 CURVE SMOOTH",
"745 678 OFFCURVE",
"727 676 OFFCURVE",
"703 676 CURVE SMOOTH",
"678 676 OFFCURVE",
"655 678 OFFCURVE",
"634 679 CURVE",
"624 679 OFFCURVE",
"614 679 OFFCURVE",
"607 679 CURVE",
"589 621 OFFCURVE",
"571 566 OFFCURVE",
"555 514 CURVE SMOOTH",
"539 462 OFFCURVE",
"523 417 OFFCURVE",
"511 377 CURVE SMOOTH",
"497 331 OFFCURVE",
"482 287 OFFCURVE",
"469 248 CURVE",
"460 248 LINE",
"446 287 OFFCURVE",
"433 331 OFFCURVE",
"419 377 CURVE SMOOTH",
"407 417 OFFCURVE",
"394 463 OFFCURVE",
"378 515 CURVE SMOOTH",
"362 567 OFFCURVE",
"345 622 OFFCURVE",
"329 682 CURVE",
"316 681 OFFCURVE",
"302 681 OFFCURVE",
"288 680 CURVE SMOOTH",
"264 678 OFFCURVE",
"235 678 OFFCURVE",
"214 678 CURVE SMOOTH",
"205 678 OFFCURVE",
"192 678 OFFCURVE",
"177 679 CURVE",
"147 679 OFFCURVE",
"117 680 OFFCURVE",
"80 683 CURVE",
"71 620 LINE",
"76 613 LINE",
"109 610 OFFCURVE",
"128 607 OFFCURVE",
"140 599 CURVE",
"152 591 OFFCURVE",
"155 578 OFFCURVE",
"155 560 CURVE SMOOTH",
"155 555 OFFCURVE",
"154 543 OFFCURVE",
"153 522 CURVE",
"149 480 OFFCURVE",
"144 420 OFFCURVE",
"136 354 CURVE SMOOTH",
"128 286 OFFCURVE",
"123 226 OFFCURVE",
"118 182 CURVE",
"115 160 OFFCURVE",
"114 145 OFFCURVE",
"113 139 CURVE",
"109 85 OFFCURVE",
"91 68 OFFCURVE",
"50 63 CURVE",
"42 -8 LINE",
"54 -7 OFFCURVE",
"67 -5 OFFCURVE",
"79 -4 CURVE",
"100 -1 OFFCURVE",
"128 0 OFFCURVE",
"149 0 CURVE SMOOTH",
"166 0 OFFCURVE",
"196 0 OFFCURVE",
"225 -2 CURVE SMOOTH",
"241 -3 OFFCURVE",
"258 -3 OFFCURVE",
"274 -4 CURVE",
"286 65 LINE",
"280 71 LINE",
"268 70 OFFCURVE",
"262 69 OFFCURVE",
"254 69 CURVE SMOOTH",
"250 69 OFFCURVE",
"247 69 OFFCURVE",
"245 69 CURVE SMOOTH",
"223 69 OFFCURVE",
"211 81 OFFCURVE",
"211 104 CURVE SMOOTH",
"211 107 OFFCURVE",
"211 114 OFFCURVE",
"212 127 CURVE SMOOTH",
"213 139 OFFCURVE",
"214 153 OFFCURVE",
"215 171 CURVE SMOOTH",
"216 189 OFFCURVE",
"217 208 OFFCURVE",
"219 230 CURVE SMOOTH",
"221 251 OFFCURVE",
"221 274 OFFCURVE",
"222 296 CURVE SMOOTH",
"224 347 OFFCURVE",
"228 405 OFFCURVE",
"232 470 CURVE",
"241 470 LINE",
"259 420 OFFCURVE",
"284 351 OFFCURVE",
"311 267 CURVE SMOOTH",
"338 183 OFFCURVE",
"369 86 OFFCURVE",
"402 -16 CURVE",
"479 -7 LINE"
);
}
);
};
guideLines = (
{
position = "{692, 440}";
},
{
angle = 86;
position = "{-9, 200}";
}
);
layerId = "11343128-4963-4E5D-BE9C-B74F53B36FA5";
paths = (
{
closed = 1;
nodes = (
"234 467 LINE",
"286 316 OFFCURVE",
"407 -1 OFFCURVE",
"410 -7 CURVE",
"493 161 LINE",
"486 180 OFFCURVE",
"365 500 OFFCURVE",
"308 680 CURVE",
"285 680 LINE",
"296 680 LINE",
"186 588 LINE"
);
},
{
closed = 1;
nodes = (
"537 146 OFFCURVE",
"611 347 OFFCURVE",
"642 441 CURVE",
"661 179 OFFCURVE",
"663 156 OFFCURVE",
"666 141 CURVE SMOOTH",
"674 102 OFFCURVE",
"688 85 OFFCURVE",
"717 76 CURVE",
"611 66 LINE",
"606 0 LINE",
"889 0 LINE",
"893 66 LINE",
"832 76 LINE",
"802 161 OFFCURVE",
"777 472 OFFCURVE",
"764 603 CURVE",
"842 615 LINE",
"847 680 LINE",
"626 680 LINE",
"558 434 OFFCURVE",
"481 280 OFFCURVE",
"438 146 CURVE",
"420 87 OFFCURVE",
"431 52 OFFCURVE",
"410 -7 CURVE",
"492 3 LINE"
);
},
{
closed = 1;
nodes = (
"206 109 OFFCURVE",
"236 362 OFFCURVE",
"250 521 CURVE",
"261 565 OFFCURVE",
"275 660 OFFCURVE",
"298 680 CURVE",
"90 680 LINE",
"85 615 LINE",
"164 604 LINE",
"137 349 OFFCURVE",
"109 120 OFFCURVE",
"101 77 CURVE",
"29 65 LINE",
"25 0 LINE",
"294 0 LINE",
"299 66 LINE",
"221 75 LINE"
);
}
);
width = 918;
},
{
anchors = (
{
name = bottom;
position = "{499, 0}";
},
{
name = top;
position = "{499, 680}";
}
);
background = {
components = (
{
name = A;
transform = "{1, 0, 0, 1, -61, 0}";
}
);
};
guideLines = (
{
angle = 86;
position = "{974, 115}";
}
);
layerId = "0B1F8F77-7348-4C28-A663-EA76351238C4";
paths = (
{
closed = 1;
nodes = (
"278 468 LINE",
"336 313 OFFCURVE",
"393 158 OFFCURVE",
"445 -3 CURVE",
"494 98 LINE",
"487 117 OFFCURVE",
"349 500 OFFCURVE",
"292 680 CURVE",
"287 675 LINE",
"290 680 LINE",
"250 615 LINE"
);
},
{
closed = 1;
nodes = (
"554 159 OFFCURVE",
"656 488 OFFCURVE",
"682 570 CURVE",
"681 487 OFFCURVE",
"721 144 OFFCURVE",
"726 104 CURVE SMOOTH",
"728 88 OFFCURVE",
"744 66 OFFCURVE",
"773 56 CURVE",
"659 46 LINE",
"656 31 OFFCURVE",
"654 15 OFFCURVE",
"655 0 CURVE",
"891 0 LINE",
"894 15 OFFCURVE",
"896 31 OFFCURVE",
"895 46 CURVE",
"826 56 LINE",
"798 141 OFFCURVE",
"794 232 OFFCURVE",
"749 622 CURVE",
"823 635 LINE",
"826 650 OFFCURVE",
"827 665 OFFCURVE",
"826 680 CURVE",
"656 680 LINE",
"591 441 OFFCURVE",
"532 284 OFFCURVE",
"484 151 CURVE",
"484 92 OFFCURVE",
"466 56 OFFCURVE",
"445 -3 CURVE",
"466 -3 OFFCURVE",
"484 1 OFFCURVE",
"499 7 CURVE"
);
},
{
closed = 1;
nodes = (
"215 60 OFFCURVE",
"214 71 OFFCURVE",
"214 87 CURVE SMOOTH",
"214 175 OFFCURVE",
"239 408 OFFCURVE",
"252 543 CURVE",
"263 598 OFFCURVE",
"269 660 OFFCURVE",
"292 680 CURVE",
"125 680 LINE",
"121 665 OFFCURVE",
"118 650 OFFCURVE",
"120 635 CURVE",
"200 624 LINE",
"176 369 OFFCURVE",
"146 107 OFFCURVE",
"139 64 CURVE",
"68 45 LINE",
"65 30 OFFCURVE",
"63 15 OFFCURVE",
"64 0 CURVE",
"303 0 LINE",
"306 15 OFFCURVE",
"308 31 OFFCURVE",
"307 46 CURVE",
"217 55 LINE"
);
}
);
width = 945;
}
);
leftKerningGroup = A;
rightKerningGroup = A;
unicode = 004D;
},
{
color = 1;
glyphname = N;
lastChange = "2017-08-05 17:54:04 +0000";
layers = (
{
anchors = (
{
name = bottom;
position = "{369, 0}";
},
{
name = top;
position = "{369, 680}";
}
);
background = {
components = (
{
name = I;
transform = "{-1, 0, 0, -1, 345, 700}";
}
);
paths = (
{
closed = 1;
nodes = (
"523 603 OFFCURVE",
"523 514 OFFCURVE",
"523 464 CURVE SMOOTH",
"523 317 OFFCURVE",
"527 159 OFFCURVE",
"513 0 CURVE",
"694 0 LINE",
"699 55 LINE",
"647 65 LINE",
"600 143 OFFCURVE",
"623 528 OFFCURVE",
"630 571 CURVE SMOOTH",
"640 630 OFFCURVE",
"678 642 OFFCURVE",
"704 642 CURVE",
"705 700 LINE",
"451 700 LINE",
"446 642 LINE",
"507 633 LINE"
);
}
);
};
guideLines = (
{
angle = 86;
position = "{705, 230}";
}
);
layerId = "11343128-4963-4E5D-BE9C-B74F53B36FA5";
paths = (
{
closed = 1;
nodes = (
"144 544 LINE",
"159 530 OFFCURVE",
"174 468 OFFCURVE",
"200 445 CURVE SMOOTH",
"236 414 OFFCURVE",
"268 363 OFFCURVE",
"297 330 CURVE SMOOTH",
"429 181 OFFCURVE",
"561 -7 OFFCURVE",
"564 -11 CURVE",
"648 115 LINE",
"629 139 OFFCURVE",
"610 191 OFFCURVE",
"572 223 CURVE SMOOTH",
"538 252 OFFCURVE",
"506 304 OFFCURVE",
"483 333 CURVE SMOOTH",
"395 444 OFFCURVE",
"297 562 OFFCURVE",
"235 680 CURVE",
"227 675 LINE",
"232 680 LINE",
"131 572 LINE"
);
},
{
closed = 1;
nodes = (
"226 102 OFFCURVE",
"220 171 OFFCURVE",
"220 236 CURVE SMOOTH",
"220 363 OFFCURVE",
"219 521 OFFCURVE",
"233 680 CURVE",
"49 680 LINE",
"44 615 LINE",
"102 605 LINE",
"123 579 OFFCURVE",
"124 502 OFFCURVE",
"124 340 CURVE SMOOTH",
"124 268 OFFCURVE",
"120 122 OFFCURVE",
"114 79 CURVE",
"40 65 LINE",
"35 0 LINE",
"304 0 LINE",
"309 66 LINE",
"238 77 LINE"
);
},
{
closed = 1;
nodes = (
"550 580 OFFCURVE",
"555 474 OFFCURVE",
"555 424 CURVE SMOOTH",
"555 73 OFFCURVE",
"558 97 OFFCURVE",
"564 -11 CURVE",
"654 3 LINE",
"650 289 OFFCURVE",
"653 541 OFFCURVE",
"660 603 CURVE",
"738 615 LINE",
"743 680 LINE",
"466 680 LINE",
"461 615 LINE",
"536 606 LINE"
);
}
);
width = 758;
},
{
anchors = (
{
name = bottom;
position = "{358, 0}";
},
{
name = top;
position = "{375, 680}";
}
);
background = {
components = (
{
name = I;
transform = "{-1, 0, 0, -1, 334, 700}";
}
);
paths = (
{
closed = 1;
nodes = (
"512 603 OFFCURVE",
"512 514 OFFCURVE",
"512 464 CURVE SMOOTH",
"512 317 OFFCURVE",
"516 159 OFFCURVE",
"502 0 CURVE",
"683 0 LINE",
"688 55 LINE",
"636 65 LINE",
"589 143 OFFCURVE",
"612 528 OFFCURVE",
"619 571 CURVE SMOOTH",
"629 630 OFFCURVE",
"667 642 OFFCURVE",
"693 642 CURVE",
"694 700 LINE",
"440 700 LINE",
"435 642 LINE",
"496 633 LINE"
);
}
);
};
guideLines = (
{
angle = 85;
position = "{277, 152}";
},
{
angle = 85;
position = "{688, 158}";
}
);
layerId = "0B1F8F77-7348-4C28-A663-EA76351238C4";
paths = (
{
closed = 1;
nodes = (
"162 633 LINE",
"193 566 OFFCURVE",
"214 515 OFFCURVE",
"234 487 CURVE SMOOTH",
"338 336 OFFCURVE",
"438 174 OFFCURVE",
"561 -7 CURVE",
"597 69 LINE",
"588 80 OFFCURVE",
"562 146 OFFCURVE",
"458 298 CURVE SMOOTH",
"352 453 OFFCURVE",
"280 562 OFFCURVE",
"208 680 CURVE",
"204 675 LINE",
"206 680 LINE",
"140 579 LINE"
);
},
{
closed = 1;
nodes = (
"197 89 OFFCURVE",
"193 160 OFFCURVE",
"193 236 CURVE SMOOTH",
"193 412 OFFCURVE",
"191 375 OFFCURVE",
"194 502 CURVE SMOOTH",
"195 560 OFFCURVE",
"203 620 OFFCURVE",
"208 680 CURVE",
"60 680 LINE",
"57 665 OFFCURVE",
"55 650 OFFCURVE",
"56 635 CURVE",
"121 624 LINE",
"138 598 OFFCURVE",
"136 489 OFFCURVE",
"136 317 CURVE SMOOTH",
"136 145 OFFCURVE",
"132 103 OFFCURVE",
"127 60 CURVE",
"54 45 LINE",
"51 30 OFFCURVE",
"49 15 OFFCURVE",
"50 0 CURVE",
"275 0 LINE",
"278 15 OFFCURVE",
"280 31 OFFCURVE",
"279 46 CURVE",
"208 57 LINE"
);
},
{
closed = 1;
nodes = (
"564 599 OFFCURVE",
"563 525 OFFCURVE",
"563 424 CURVE SMOOTH",
"563 229 OFFCURVE",
"559 114 OFFCURVE",
"559 61 CURVE SMOOTH",
"559 42 OFFCURVE",
"559 22 OFFCURVE",
"561 -7 CURVE",
"582 -8 OFFCURVE",
"603 -5 OFFCURVE",
"622 2 CURVE",
"621 72 OFFCURVE",
"620 141 OFFCURVE",
"620 206 CURVE SMOOTH",
"620 408 OFFCURVE",
"626 575 OFFCURVE",
"632 622 CURVE",
"705 635 LINE",
"708 650 OFFCURVE",
"710 665 OFFCURVE",
"709 680 CURVE",
"481 680 LINE",
"478 665 OFFCURVE",
"476 650 OFFCURVE",
"477 635 CURVE",
"550 626 LINE"
);
}
);
width = 744;
}
);
leftKerningGroup = I;
rightKerningGroup = I;
unicode = 004E;
},
{
glyphname = Eng;
lastChange = "2017-07-22 16:08:43 +0000";
layers = (
{
anchors = (
{
name = bottom;
position = "{361, 0}";
},
{
name = top;
position = "{361, 700}";
}
);
components = (
{
name = N;
transform = "{1, 0, 0, 1, -14, 0}";
}
);
layerId = "11343128-4963-4E5D-BE9C-B74F53B36FA5";
paths = (
{
closed = 1;
nodes = (
"530 29 LINE",
"611 -103 OFFCURVE",
"461 -172 OFFCURVE",
"351 -99 CURVE",
"329 -105 LINE",
"317 -133 LINE",
"363 -186 OFFCURVE",
"489 -246 OFFCURVE",
"570 -194 CURVE SMOOTH",
"640 -149 OFFCURVE",
"648 -72 OFFCURVE",
"648 4 CURVE"
);
}
);
width = 721;
},
{
anchors = (
{
name = bottom;
position = "{361, 0}";
},
{
name = top;
position = "{361, 700}";
}
);
components = (
{
name = N;
}
);
layerId = "0B1F8F77-7348-4C28-A663-EA76351238C4";
paths = (
{
closed = 1;
nodes = (
"527 49 LINE",
"543 20 OFFCURVE",
"551 -8 OFFCURVE",
"551 -33 CURVE SMOOTH",
"551 -92 OFFCURVE",
"510 -133 OFFCURVE",
"447 -133 CURVE SMOOTH",
"415 -133 OFFCURVE",
"378 -122 OFFCURVE",
"338 -98 CURVE",
"325 -102 LINE",
"314 -128 LINE",
"340 -158 OFFCURVE",
"415 -204 OFFCURVE",
"487 -204 CURVE SMOOTH",
"510 -204 OFFCURVE",
"532 -199 OFFCURVE",
"553 -188 CURVE SMOOTH",
"605 -160 OFFCURVE",
"613 -103 OFFCURVE",
"613 -43 CURVE SMOOTH",
"613 -24 OFFCURVE",
"612 -4 OFFCURVE",
"612 15 CURVE"
);
}
);
width = 721;
}
);
leftKerningGroup = I;
rightKerningGroup = I;
unicode = 014A;
},
{
color = 1;
glyphname = O;
lastChange = "2017-07-22 16:08:43 +0000";
layers = (
{
anchors = (
{
name = bottom;
position = "{363, 0}";
},
{
name = center;
position = "{363, 350}";
},
{
name = ogonek;
position = "{653, 10}";
},
{
name = top;
position = "{363, 680}";
},
{
name = topleft;
position = "{19, 700}";
},
{
name = topright;
position = "{706, 700}";
}
);
background = {
paths = (
{
closed = 1;
nodes = (
"561 671 OFFCURVE",
"443 705 OFFCURVE",
"300 686 CURVE",
"-7 624 OFFCURVE",
"-69 264 OFFCURVE",
"99 76 CURVE SMOOTH",
"181 -15 OFFCURVE",
"318 -26 OFFCURVE",
"442 2 CURVE",
"711 80 OFFCURVE",
"785 400 OFFCURVE",
"617 603 CURVE SMOOTH"
);
},
{
closed = 1;
nodes = (
"298 74 OFFCURVE",
"216 152 OFFCURVE",
"190 269 CURVE SMOOTH",
"168 368 OFFCURVE",
"177 549 OFFCURVE",
"335 602 CURVE",
"332 614 LINE",
"263 603 LINE",
"264 592 LINE",
"433 603 OFFCURVE",
"509 516 OFFCURVE",
"532 411 CURVE SMOOTH",
"555 306 OFFCURVE",
"545 129 OFFCURVE",
"398 82 CURVE",
"403 68 LINE",
"469 80 LINE",
"464 93 LINE"
);
}
);
};
guideLines = (
{
angle = 90;
position = "{346, 177}";
}
);
layerId = "11343128-4963-4E5D-BE9C-B74F53B36FA5";
paths = (
{
closed = 1;
nodes = (
"567 662 OFFCURVE",
"460 719 OFFCURVE",
"307 692 CURVE SMOOTH",
"7 639 OFFCURVE",
"-42 249 OFFCURVE",
"104 85 CURVE SMOOTH",
"184 -4 OFFCURVE",
"324 -37 OFFCURVE",
"445 -5 CURVE SMOOTH",
"709 65 OFFCURVE",
"771 414 OFFCURVE",
"622 595 CURVE SMOOTH"
);
},
{
closed = 1;
nodes = (
"376 69 OFFCURVE",
"278 97 OFFCURVE",
"225 187 CURVE SMOOTH",
"136 338 OFFCURVE",
"187 554 OFFCURVE",
"341 615 CURVE",
"335 634 LINE",
"287 620 LINE",
"293 601 LINE",
"357 613 OFFCURVE",
"455 584 OFFCURVE",
"507 488 CURVE SMOOTH",
"588 336 OFFCURVE",
"537 137 OFFCURVE",
"385 63 CURVE",
"389 38 LINE",
"441 54 LINE",
"433 80 LINE"
);
}
);
width = 726;
},
{
anchors = (
{
name = bottom;
position = "{350, 0}";
},
{
name = center;
position = "{350, 350}";
},
{
name = ogonek;
position = "{640, 10}";
},
{
name = top;
position = "{350, 680}";
},
{
name = topleft;
position = "{6, 700}";
},
{
name = topright;
position = "{693, 700}";
}
);
background = {
components = (
{
name = D;
transform = "{1, 0, 0, 1, 9, 0}";
}
);
};
guideLines = (
{
angle = 90;
position = "{333, 177}";
},
{
position = "{421, 746}";
},
{
position = "{408, 865}";
}
);
layerId = "0B1F8F77-7348-4C28-A663-EA76351238C4";
paths = (
{
closed = 1;
nodes = (
"535 656 OFFCURVE",
"470 694 OFFCURVE",
"374 694 CURVE SMOOTH",
"349 694 OFFCURVE",
"322 692 OFFCURVE",
"293 686 CURVE SMOOTH",
"106 650 OFFCURVE",
"30 488 OFFCURVE",
"30 334 CURVE SMOOTH",
"30 233 OFFCURVE",
"62 135 OFFCURVE",
"117 77 CURVE SMOOTH",
"177 15 OFFCURVE",
"248 -14 OFFCURVE",
"328 -14 CURVE SMOOTH",
"362 -14 OFFCURVE",
"398 -9 OFFCURVE",
"435 1 CURVE SMOOTH",
"599 46 OFFCURVE",
"672 197 OFFCURVE",
"672 345 CURVE SMOOTH",
"672 443 OFFCURVE",
"640 539 OFFCURVE",
"583 603 CURVE SMOOTH"
);
},
{
closed = 1;
nodes = (
"433 38 OFFCURVE",
"412 37 OFFCURVE",
"393 37 CURVE SMOOTH",
"230 37 OFFCURVE",
"158 129 OFFCURVE",
"126 268 CURVE SMOOTH",
"119 297 OFFCURVE",
"116 326 OFFCURVE",
"116 355 CURVE SMOOTH",
"116 488 OFFCURVE",
"186 612 OFFCURVE",
"325 654 CURVE",
"322 664 LINE",
"252 651 LINE",
"253 640 LINE",
"271 642 OFFCURVE",
"288 643 OFFCURVE",
"305 643 CURVE SMOOTH",
"474 643 OFFCURVE",
"552 542 OFFCURVE",
"579 404 CURVE SMOOTH",
"584 378 OFFCURVE",
"587 353 OFFCURVE",
"587 328 CURVE SMOOTH",
"587 192 OFFCURVE",
"513 72 OFFCURVE",
"388 32 CURVE",
"393 17 LINE",
"459 25 LINE",
"455 41 LINE"
);
}
);
width = 702;
}
);
leftKerningGroup = O;
rightKerningGroup = O;
unicode = 004F;
},
{
glyphname = OE;
lastChange = "2017-07-22 16:08:43 +0000";
layers = (
{
anchors = (
{
name = bottom;
position = "{777, 0}";
},
{
name = center;
position = "{777, 350}";
},
{
name = ogonek;
position = "{1067, 10}";
},
{
name = top;
position = "{777, 703}";
},
{
name = topleft;
position = "{433, 700}";
},
{
name = topright;
position = "{1120, 700}";
}
);
background = {
components = (
{
name = E;
transform = "{1, 0, 0, 1, 397, 0}";
},
{
name = O;
transform = "{1, 0, 0, 1, 35, 0}";
}
);
};
layerId = "11343128-4963-4E5D-BE9C-B74F53B36FA5";
paths = (
{
closed = 1;
nodes = (
"601 12 LINE",
"589 115 LINE",
"565 97 OFFCURVE",
"437 86 OFFCURVE",
"386 80 CURVE",
"390 55 LINE",
"442 71 LINE",
"434 82 LINE",
"377 71 OFFCURVE",
"280 111 OFFCURVE",
"236 207 CURVE SMOOTH",
"167 357 OFFCURVE",
"208 541 OFFCURVE",
"351 604 CURVE",
"344 623 LINE",
"296 609 LINE",
"302 590 LINE",
"362 595 OFFCURVE",
"511 582 OFFCURVE",
"572 522 CURVE",
"574 648 LINE",
"481 680 LINE",
"446 681 OFFCURVE",
"376 682 OFFCURVE",
"316 679 CURVE",
"27 617 OFFCURVE",
"-10 269 OFFCURVE",
"111 100 CURVE SMOOTH",
"182 1 OFFCURVE",
"320 -11 OFFCURVE",
"452 0 CURVE SMOOTH"
);
},
{
closed = 1;
nodes = (
"934 197 LINE",
"903 115 LINE",
"865 102 OFFCURVE",
"779 97 OFFCURVE",
"705 98 CURVE",
"683 156 OFFCURVE",
"684 250 OFFCURVE",
"685 310 CURVE",
"850 292 LINE",
"866 398 LINE",
"850 408 LINE",
"797 407 OFFCURVE",
"739 405 OFFCURVE",
"685 402 CURVE",
"686 484 OFFCURVE",
"687 547 OFFCURVE",
"691 585 CURVE",
"774 583 OFFCURVE",
"837 580 OFFCURVE",
"876 574 CURVE",
"894 482 LINE",
"965 492 LINE",
"966 676 LINE",
"951 688 LINE",
"802 678 OFFCURVE",
"752 683 OFFCURVE",
"602 680 CURVE SMOOTH",
"462 680 LINE",
"456 615 LINE",
"524 605 LINE",
"537 580 OFFCURVE",
"539 515 OFFCURVE",
"536 388 CURVE SMOOTH",
"530 166 OFFCURVE",
"530 190 OFFCURVE",
"529 159 CURVE SMOOTH",
"528 123 OFFCURVE",
"546 110 OFFCURVE",
"573 104 CURVE",
"458 66 LINE",
"452 0 LINE",
"776 0 LINE SMOOTH",
"843 0 OFFCURVE",
"853 -1 OFFCURVE",
"977 -4 CURVE",
"999 189 LINE"
);
}
);
width = 996;
},
{
anchors = (
{
name = bottom;
position = "{1108, 0}";
},
{
name = center;
position = "{1108, 350}";
},
{
name = ogonek;
position = "{1398, 10}";
},
{
name = top;
position = "{1108, 703}";
},
{
name = topleft;
position = "{764, 700}";
},
{
name = topright;
position = "{1451, 700}";
}
);
background = {
components = (
{
name = E;
transform = "{1, 0, 0, 1, 748, 0}";
},
{
name = O;
transform = "{1, 0, 0, 1, 331, 0}";
}
);
};
layerId = "0B1F8F77-7348-4C28-A663-EA76351238C4";
paths = (
{
closed = 1;
nodes = (
"164 14 OFFCURVE",
"265 -1 OFFCURVE",
"378 -1 CURVE SMOOTH",
"392 -1 OFFCURVE",
"405 0 OFFCURVE",
"419 0 CURVE",
"425 50 LINE",
"253 45 OFFCURVE",
"133 139 OFFCURVE",
"102 276 CURVE SMOOTH",
"96 305 OFFCURVE",
"92 333 OFFCURVE",
"92 360 CURVE SMOOTH",
"92 476 OFFCURVE",
"152 577 OFFCURVE",
"270 626 CURVE",
"350 626 OFFCURVE",
"410 616 OFFCURVE",
"455 601 CURVE",
"464 680 LINE",
"442 680 OFFCURVE",
"416 681 OFFCURVE",
"387 681 CURVE SMOOTH",
"346 681 OFFCURVE",
"299 679 OFFCURVE",
"248 671 CURVE",
"72 628 OFFCURVE",
"0 479 OFFCURVE",
"0 337 CURVE SMOOTH",
"0 243 OFFCURVE",
"31 152 OFFCURVE",
"85 96 CURVE SMOOTH"
);
},
{
closed = 1;
nodes = (
"842 159 LINE",
"807 70 LINE",
"774 59 OFFCURVE",
"689 54 OFFCURVE",
"616 54 CURVE SMOOTH",
"604 54 OFFCURVE",
"592 54 OFFCURVE",
"581 54 CURVE",
"570 55 LINE",
"547 99 OFFCURVE",
"545 217 OFFCURVE",
"545 288 CURVE SMOOTH",
"545 308 OFFCURVE",
"545 324 OFFCURVE",
"545 334 CURVE SMOOTH",
"545 340 LINE",
"748 323 LINE",
"761 390 LINE",
"749 398 LINE",
"709 396 OFFCURVE",
"586 392 OFFCURVE",
"545 390 CURVE",
"545 514 OFFCURVE",
"547 591 OFFCURVE",
"548 623 CURVE",
"552 624 LINE",
"658 622 OFFCURVE",
"741 618 OFFCURVE",
"787 609 CURVE",
"802 527 LINE",
"848 537 LINE",
"850 689 LINE",
"745 683 OFFCURVE",
"625 680 OFFCURVE",
"509 680 CURVE SMOOTH",
"394 680 LINE",
"390 636 LINE",
"450 626 LINE",
"462 601 OFFCURVE",
"463 515 OFFCURVE",
"463 388 CURVE SMOOTH",
"463 178 OFFCURVE",
"458 145 OFFCURVE",
"458 93 CURVE SMOOTH",
"458 80 OFFCURVE",
"476 61 OFFCURVE",
"502 55 CURVE",
"390 46 LINE",
"386 0 LINE",
"634 0 LINE",
"634 1 LINE",
"709 0 OFFCURVE",
"786 -1 OFFCURVE",
"861 -3 CURVE",
"883 152 LINE"
);
}
);
width = 854;
}
);
unicode = 0152;
},
{
color = 1;
glyphname = P;
lastChange = "2017-08-05 12:31:45 +0000";
layers = (
{
anchors = (
{
name = bottom;
position = "{327, 0}";
},
{
name = top;
position = "{327, 680}";
}
);
background = {
components = (
{
name = R;
transform = "{1, 0, 0, 1, 28, 0}";
}
);
};
components = (
{
name = _part.stem.cap;
transform = "{1, 0, 0, 1, -177, 0}";
piece = {
"BPR?" = 1;
};
}
);
layerId = "11343128-4963-4E5D-BE9C-B74F53B36FA5";
paths = (
{
closed = 1;
nodes = (
"250 274 LINE",
"281 262 OFFCURVE",
"351 261 OFFCURVE",
"386 266 CURVE",
"627 314 OFFCURVE",
"661 575 OFFCURVE",
"486 655 CURVE SMOOTH",
"388 700 OFFCURVE",
"238 689 OFFCURVE",
"75 678 CURVE",
"252 600 LINE",
"454 632 OFFCURVE",
"471 415 OFFCURVE",
"388 361 CURVE",
"363 353 OFFCURVE",
"278 356 OFFCURVE",
"241 373 CURVE"
);
},
{
closed = 1;
nodes = (
"170 0 LINE",
"392 0 LINE",
"398 66 LINE",
"250 83 LINE"
);
}
);
width = 601;
},
{
anchors = (
{
name = bottom;
position = "{302, 0}";
},
{
name = top;
position = "{302, 680}";
}
);
background = {
components = (
{
name = R;
transform = "{1, 0, 0, 1, -7, 0}";
}
);
};
components = (
{
name = _part.stem.cap;
transform = "{1, 0, 0, 1, -119, 0}";
piece = {
"BPR?" = 1;
};
}
);
layerId = "0B1F8F77-7348-4C28-A663-EA76351238C4";
paths = (
{
closed = 1;
nodes = (
"190 299 LINE",
"208 292 OFFCURVE",
"246 289 OFFCURVE",
"282 289 CURVE SMOOTH",
"309 289 OFFCURVE",
"334 291 OFFCURVE",
"349 293 CURVE",
"474 313 OFFCURVE",
"540 411 OFFCURVE",
"540 503 CURVE SMOOTH",
"540 573 OFFCURVE",
"502 641 OFFCURVE",
"423 669 CURVE SMOOTH",
"377 685 OFFCURVE",
"336 690 OFFCURVE",
"287 690 CURVE SMOOTH",
"231 690 OFFCURVE",
"164 684 OFFCURVE",
"67 680 CURVE",
"216 633 LINE",
"237 638 OFFCURVE",
"257 640 OFFCURVE",
"276 640 CURVE SMOOTH",
"375 640 OFFCURVE",
"432 587 OFFCURVE",
"449 520 CURVE SMOOTH",
"468 447 OFFCURVE",
"435 374 OFFCURVE",
"366 342 CURVE",
"317 341 OFFCURVE",
"247 342 OFFCURVE",
"198 357 CURVE"
);
},
{
closed = 1;
nodes = (
"155 0 LINE",
"327 0 LINE",
"332 15 OFFCURVE",
"333 31 OFFCURVE",
"332 46 CURVE",
"209 60 LINE"
);
}
);
width = 560;
},
{
associatedMasterId = "11343128-4963-4E5D-BE9C-B74F53B36FA5";
layerId = "C213273F-1890-4B8A-8B3A-AF00810518FC";
name = bubble;
paths = (
{
closed = 1;
nodes = (
"161 366 LINE",
"170 267 LINE",
"221 199 LINE",
"261 184 OFFCURVE",
"343 179 OFFCURVE",
"400 187 CURVE",
"701 246 OFFCURVE",
"781 608 OFFCURVE",
"519 728 CURVE SMOOTH",
"403 781 OFFCURVE",
"232 769 OFFCURVE",
"70 758 CURVE",
"43 605 LINE",
"362 464 LINE",
"364 454 OFFCURVE",
"361 445 OFFCURVE",
"354 436 CURVE",
"333 436 OFFCURVE",
"285 441 OFFCURVE",
"274 446 CURVE"
);
},
{
closed = 1;
nodes = (
"-18 -80 LINE",
"465 -80 LINE",
"485 137 LINE",
"220 167 LINE"
);
}
);
width = 601;
}
);
leftKerningGroup = I;
unicode = 0050;
},
{
glyphname = Thorn;
lastChange = "2017-07-22 16:08:43 +0000";
layers = (
{
anchors = (
{
name = bottom;
position = "{295, 0}";
},
{
name = top;
position = "{295, 700}";
}
);
background = {
paths = (
{
closed = 1;
nodes = (
"222 138 LINE",
"253 127 OFFCURVE",
"312 129 OFFCURVE",
"347 134 CURVE",
"588 179 OFFCURVE",
"637 448 OFFCURVE",
"462 524 CURVE SMOOTH",
"400 551 OFFCURVE",
"314 559 OFFCURVE",
"218 559 CURVE",
"225 476 LINE",
"439 510 OFFCURVE",
"488 288 OFFCURVE",
"359 218 CURVE",
"334 210 OFFCURVE",
"260 217 OFFCURVE",
"223 239 CURVE"
);
},
{
closed = 1;
nodes = (
"43 680 LINE",
"38 625 LINE",
"93 614 LINE",
"105 589 OFFCURVE",
"105 514 OFFCURVE",
"105 387 CURVE SMOOTH",
"105 177 OFFCURVE",
"90 114 OFFCURVE",
"95 98 CURVE SMOOTH",
"99 86 OFFCURVE",
"115 71 OFFCURVE",
"144 65 CURVE",
"37 55 LINE",
"35 0 LINE",
"316 1 LINE",
"321 54 LINE",
"263 64 LINE",
"225 123 OFFCURVE",
"233 287 OFFCURVE",
"233 333 CURVE SMOOTH",
"233 490 OFFCURVE",
"240 569 OFFCURVE",
"253 590 CURVE SMOOTH",
"263 610 OFFCURVE",
"286 623 OFFCURVE",
"309 625 CURVE",
"310 680 LINE"
);
}
);
};
components = (
{
name = _part.stem.cap;
transform = "{1, 0, 0, 1, -170, 0}";
piece = {
"BPR?" = 1;
};
}
);
layerId = "11343128-4963-4E5D-BE9C-B74F53B36FA5";
paths = (
{
closed = 1;
nodes = (
"257 142 LINE",
"288 130 OFFCURVE",
"358 129 OFFCURVE",
"393 134 CURVE",
"634 182 OFFCURVE",
"668 443 OFFCURVE",
"493 523 CURVE SMOOTH",
"419 557 OFFCURVE",
"314 559 OFFCURVE",
"197 553 CURVE",
"259 468 LINE",
"461 500 OFFCURVE",
"478 283 OFFCURVE",
"395 229 CURVE",
"370 221 OFFCURVE",
"285 224 OFFCURVE",
"248 241 CURVE"
);
},
{
closed = 1;
nodes = (
"177 0 LINE",
"394 0 LINE",
"400 66 LINE",
"257 83 LINE"
);
},
{
closed = 1;
nodes = (
"387 613 LINE",
"393 680 LINE",
"174 680 LINE",
"254 596 LINE"
);
}
);
width = 577;
},
{
anchors = (
{
name = bottom;
position = "{295, 0}";
},
{
name = top;
position = "{295, 700}";
}
);
components = (
{
name = _part.stem.cap;
transform = "{1, 0, 0, 1, -136, 0}";
}
);
guideLines = (
{
position = "{556, 549}";
}
);
layerId = "0B1F8F77-7348-4C28-A663-EA76351238C4";
paths = (
{
closed = 1;
nodes = (
"173 163 LINE",
"191 156 OFFCURVE",
"229 153 OFFCURVE",
"265 153 CURVE SMOOTH",
"292 153 OFFCURVE",
"317 155 OFFCURVE",
"332 157 CURVE",
"457 177 OFFCURVE",
"523 272 OFFCURVE",
"523 363 CURVE SMOOTH",
"523 431 OFFCURVE",
"485 497 OFFCURVE",
"406 525 CURVE SMOOTH",
"350 545 OFFCURVE",
"301 551 OFFCURVE",
"235 551 CURVE SMOOTH",
"214 551 OFFCURVE",
"191 550 OFFCURVE",
"166 549 CURVE",
"199 492 LINE",
"223 498 OFFCURVE",
"245 500 OFFCURVE",
"265 500 CURVE SMOOTH",
"378 500 OFFCURVE",
"445 422 OFFCURVE",
"445 343 CURVE SMOOTH",
"445 290 OFFCURVE",
"415 236 OFFCURVE",
"349 206 CURVE",
"300 205 OFFCURVE",
"230 206 OFFCURVE",
"181 221 CURVE"
);
},
{
closed = 1;
nodes = (
"130 0 LINE",
"302 0 LINE",
"307 46 LINE",
"184 60 LINE"
);
},
{
closed = 1;
nodes = (
"293 634 LINE",
"298 680 LINE",
"122 680 LINE",
"176 620 LINE"
);
}
);
width = 589;
}
);
leftKerningGroup = I;
rightKerningGroup = B;
unicode = 00DE;
},
{
color = 1;
glyphname = Q;
lastChange = "2017-08-05 17:30:22 +0000";
layers = (
{
anchors = (
{
name = bottom;
position = "{362, 0}";
},
{
name = top;
position = "{362, 680}";
}
);
components = (
{
name = O;
}
);
layerId = "11343128-4963-4E5D-BE9C-B74F53B36FA5";
paths = (
{
closed = 1;
nodes = (
"365 -49 OFFCURVE",
"540 -195 OFFCURVE",
"634 -211 CURVE",
"749 -115 LINE",
"741 -93 LINE",
"579 -61 OFFCURVE",
"427 10 OFFCURVE",
"367 69 CURVE",
"214 105 LINE"
);
}
);
width = 714;
},
{
anchors = (
{
name = bottom;
position = "{362, 0}";
},
{
name = top;
position = "{362, 680}";
}
);
components = (
{
name = O;
}
);
layerId = "0B1F8F77-7348-4C28-A663-EA76351238C4";
paths = (
{
closed = 1;
nodes = (
"386 -91 OFFCURVE",
"516 -189 OFFCURVE",
"610 -205 CURVE",
"635 -189 OFFCURVE",
"660 -169 OFFCURVE",
"679 -149 CURVE",
"672 -132 LINE",
"528 -112 OFFCURVE",
"404 -24 OFFCURVE",
"337 28 CURVE",
"274 41 LINE"
);
}
);
width = 698;
}
);
leftKerningGroup = O;
rightKerningGroup = O;
unicode = 0051;
},
{
color = 1;
glyphname = R;
lastChange = "2017-08-05 17:53:38 +0000";
layers = (
{
anchors = (
{
name = bottom;
position = "{336, 0}";
},
{
name = top;
position = "{310, 680}";
}
);
background = {
components = (
{
name = k;
transform = "{1, 0, 0, 1, 96, 0}";
}
);
};
components = (
{
name = _part.stem.cap;
transform = "{1, 0, 0, 1, -192, 0}";
piece = {
"BPR?" = 1;
};
}
);
layerId = "11343128-4963-4E5D-BE9C-B74F53B36FA5";
paths = (
{
closed = 1;
nodes = (
"242 283 LINE",
"248 280 OFFCURVE",
"321 281 OFFCURVE",
"348 282 CURVE",
"431 291 LINE",
"534 343 OFFCURVE",
"598 425 OFFCURVE",
"570 540 CURVE SMOOTH",
"521 743 OFFCURVE",
"243 684 OFFCURVE",
"45 678 CURVE",
"234 600 LINE",
"431 633 OFFCURVE",
"470 408 OFFCURVE",
"353 363 CURVE",
"330 363 OFFCURVE",
"282 357 OFFCURVE",
"222 382 CURVE"
);
},
{
closed = 1;
nodes = (
"289 332 LINE",
"343 231 OFFCURVE",
"413 69 OFFCURVE",
"457 0 CURVE",
"527 -6 OFFCURVE",
"592 2 OFFCURVE",
"645 21 CURVE",
"648 78 LINE",
"590 83 LINE",
"534 149 OFFCURVE",
"440 273 OFFCURVE",
"408 330 CURVE"
);
}
);
width = 669;
},
{
anchors = (
{
name = bottom;
position = "{332, 0}";
},
{
name = top;
position = "{303, 680}";
}
);
background = {
components = (
{
name = P;
transform = "{1, 0, 0, 1, -6, 0}";
}
);
};
components = (
{
name = _part.stem.cap;
transform = "{1, 0, 0, 1, -119, 0}";
piece = {
"BPR?" = 1;
};
}
);
layerId = "0B1F8F77-7348-4C28-A663-EA76351238C4";
paths = (
{
closed = 1;
nodes = (
"200 301 LINE",
"207 299 OFFCURVE",
"305 298 OFFCURVE",
"332 299 CURVE",
"373 314 LINE",
"444 330 OFFCURVE",
"528 411 OFFCURVE",
"528 509 CURVE SMOOTH",
"528 523 OFFCURVE",
"527 537 OFFCURVE",
"523 552 CURVE SMOOTH",
"494 666 OFFCURVE",
"388 691 OFFCURVE",
"269 691 CURVE SMOOTH",
"203 691 OFFCURVE",
"134 683 OFFCURVE",
"71 679 CURVE",
"218 635 LINE",
"242 641 OFFCURVE",
"264 644 OFFCURVE",
"284 644 CURVE SMOOTH",
"371 644 OFFCURVE",
"423 591 OFFCURVE",
"438 531 CURVE SMOOTH",
"442 514 OFFCURVE",
"444 497 OFFCURVE",
"444 482 CURVE SMOOTH",
"444 424 OFFCURVE",
"414 379 OFFCURVE",
"346 352 CURVE",
"302 350 OFFCURVE",
"256 353 OFFCURVE",
"210 359 CURVE"
);
},
{
closed = 1;
nodes = (
"306 319 LINE",
"480 -5 LINE",
"525 -4 OFFCURVE",
"574 6 OFFCURVE",
"615 19 CURVE",
"618 34 OFFCURVE",
"619 48 OFFCURVE",
"618 63 CURVE",
"547 63 LINE",
"501 124 OFFCURVE",
"405 261 OFFCURVE",
"371 329 CURVE"
);
}
);
width = 639;
},
{
associatedMasterId = "11343128-4963-4E5D-BE9C-B74F53B36FA5";
layerId = "C2672A67-BEF8-46FB-8723-7839228BF894";
name = bubble;
paths = (
{
closed = 1;
nodes = (
"602 194 OFFCURVE",
"572 233 OFFCURVE",
"545 269 CURVE",
"638 344 OFFCURVE",
"675 445 OFFCURVE",
"648 559 CURVE SMOOTH",
"581 837 OFFCURVE",
"233 764 OFFCURVE",
"43 758 CURVE",
"14 604 LINE",
"345 468 LINE",
"346 458 OFFCURVE",
"343 449 OFFCURVE",
"334 443 CURVE",
"311 442 OFFCURVE",
"284 443 OFFCURVE",
"253 456 CURVE",
"144 366 LINE",
"164 267 LINE",
"206 211 LINE",
"219 205 OFFCURVE",
"239 202 OFFCURVE",
"265 201 CURVE",
"320 87 OFFCURVE",
"381 -45 OFFCURVE",
"415 -76 CURVE",
"525 -92 OFFCURVE",
"647 -75 OFFCURVE",
"722 -31 CURVE",
"732 151 LINE",
"630 160 LINE"
);
}
);
width = 669;
}
);
leftKerningGroup = I;
rightKerningGroup = B;
unicode = 0052;
},
{
color = 1;
glyphname = S;
lastChange = "2017-08-05 17:53:17 +0000";
layers = (
{
anchors = (
{
name = bottom;
position = "{276, 0}";
},
{
name = top;
position = "{268, 680}";
}
);
background = {
paths = (
{
closed = 1;
nodes = (
"49 619 OFFCURVE",
"27 557 OFFCURVE",
"27 497 CURVE SMOOTH",
"27 396 OFFCURVE",
"140 339 OFFCURVE",
"209 306 CURVE SMOOTH",
"314 256 OFFCURVE",
"383 224 OFFCURVE",
"383 146 CURVE SMOOTH",
"383 100 OFFCURVE",
"363 64 OFFCURVE",
"289 38 CURVE",
"232 38 OFFCURVE",
"161 45 OFFCURVE",
"120 92 CURVE",
"107 179 LINE",
"61 169 LINE",
"59 140 OFFCURVE",
"51 69 OFFCURVE",
"48 41 CURVE",
"101 -3 OFFCURVE",
"172 -20 OFFCURVE",
"270 -13 CURVE SMOOTH",
"393 -4 OFFCURVE",
"462 74 OFFCURVE",
"462 163 CURVE SMOOTH",
"462 263 OFFCURVE",
"367 313 OFFCURVE",
"293 351 CURVE SMOOTH",
"176 411 OFFCURVE",
"104 436 OFFCURVE",
"104 525 CURVE SMOOTH",
"104 567 OFFCURVE",
"123 601 OFFCURVE",
"198 637 CURVE",
"303 635 OFFCURVE",
"378 609 OFFCURVE",
"410 565 CURVE",
"413 545 OFFCURVE",
"414 522 OFFCURVE",
"418 494 CURVE",
"432 497 OFFCURVE",
"453 501 OFFCURVE",
"465 504 CURVE",
"469 538 OFFCURVE",
"478 599 OFFCURVE",
"479 611 CURVE",
"401 692 OFFCURVE",
"251 714 OFFCURVE",
"132 658 CURVE SMOOTH"
);
}
);
};
layerId = "0B1F8F77-7348-4C28-A663-EA76351238C4";
paths = (
{
closed = 1;
nodes = (
"499 43 OFFCURVE",
"499 179 CURVE SMOOTH",
"499 283 OFFCURVE",
"386 336 OFFCURVE",
"317 369 CURVE SMOOTH",
"212 420 OFFCURVE",
"140 451 OFFCURVE",
"140 529 CURVE SMOOTH",
"140 575 OFFCURVE",
"160 611 OFFCURVE",
"234 637 CURVE",
"291 637 OFFCURVE",
"361 633 OFFCURVE",
"402 590 CURVE",
"415 503 LINE",
"430 503 OFFCURVE",
"446 507 OFFCURVE",
"461 513 CURVE",
"463 542 OFFCURVE",
"471 608 OFFCURVE",
"474 636 CURVE",
"429 674 OFFCURVE",
"371 690 OFFCURVE",
"294 690 CURVE SMOOTH",
"165 690 OFFCURVE",
"61 630 OFFCURVE",
"61 512 CURVE SMOOTH",
"61 412 OFFCURVE",
"158 357 OFFCURVE",
"232 320 CURVE SMOOTH",
"349 261 OFFCURVE",
"422 240 OFFCURVE",
"422 151 CURVE SMOOTH",
"422 109 OFFCURVE",
"388 65 OFFCURVE",
"329 43 CURVE",
"237 39 OFFCURVE",
"155 56 OFFCURVE",
"123 93 CURVE",
"112 181 LINE",
"96 181 OFFCURVE",
"80 177 OFFCURVE",
"64 171 CURVE",
"60 137 OFFCURVE",
"51 56 OFFCURVE",
"50 44 CURVE",
"89 7 OFFCURVE",
"163 -15 OFFCURVE",
"240 -15 CURVE SMOOTH",
"379 -15 OFFCURVE"
);
}
);
width = 549;
},
{
anchors = (
{
name = bottom;
position = "{274, 0}";
},
{
name = top;
position = "{274, 680}";
}
);
background = {
components = (
{
name = C;
transform = "{-1, 0, 0, -1, 621, 683}";
}
);
};
layerId = "11343128-4963-4E5D-BE9C-B74F53B36FA5";
paths = (
{
closed = 1;
nodes = (
"489 57 OFFCURVE",
"519 114 OFFCURVE",
"519 208 CURVE SMOOTH",
"519 322 OFFCURVE",
"409 374 OFFCURVE",
"315 418 CURVE SMOOTH",
"262 443 OFFCURVE",
"187 477 OFFCURVE",
"176 521 CURVE SMOOTH",
"167 556 OFFCURVE",
"192 586 OFFCURVE",
"238 599 CURVE",
"295 600 OFFCURVE",
"350 596 OFFCURVE",
"391 546 CURVE",
"408 469 LINE",
"476 482 LINE",
"478 511 OFFCURVE",
"487 611 OFFCURVE",
"490 639 CURVE",
"437 684 OFFCURVE",
"345 706 OFFCURVE",
"247 695 CURVE SMOOTH",
"130 682 OFFCURVE",
"44 613 OFFCURVE",
"44 500 CURVE SMOOTH",
"44 381 OFFCURVE",
"155 317 OFFCURVE",
"231 281 CURVE SMOOTH",
"311 243 OFFCURVE",
"369 209 OFFCURVE",
"382 170 CURVE SMOOTH",
"393 136 OFFCURVE",
"354 97 OFFCURVE",
"300 84 CURVE",
"248 81 OFFCURVE",
"188 80 OFFCURVE",
"138 132 CURVE",
"124 219 LINE",
"51 205 LINE",
"49 171 OFFCURVE",
"45 112 OFFCURVE",
"40 43 CURVE",
"111 -20 OFFCURVE",
"283 -40 OFFCURVE",
"402 16 CURVE SMOOTH"
);
}
);
width = 554;
}
);
unicode = 0053;
},
{
glyphname = Germandbls;
lastChange = "2017-07-22 16:08:43 +0000";
layers = (
{
anchors = (
{
name = bottom;
position = "{352, 0}";
},
{
name = top;
position = "{352, 700}";
}
);
background = {
paths = (
{
closed = 1;
nodes = (
"266 146 LINE",
"339 157 LINE",
"359 76 LINE",
"410 76 LINE",
"484 161 OFFCURVE",
"416 328 OFFCURVE",
"295 314 CURVE",
"335 391 LINE",
"482 414 OFFCURVE",
"598 341 OFFCURVE",
"599 184 CURVE SMOOTH",
"600 53 OFFCURVE",
"441 -81 OFFCURVE",
"262 21 CURVE"
);
},
{
closed = 1;
nodes = (
"-13 68 LINE",
"88 77 LINE",
"62 83 OFFCURVE",
"46 102 OFFCURVE",
"46 115 CURVE SMOOTH",
"46 177 OFFCURVE",
"46 238 OFFCURVE",
"48 424 CURVE SMOOTH",
"50 604 OFFCURVE",
"127 693 OFFCURVE",
"348 693 CURVE SMOOTH",
"442 693 OFFCURVE",
"523 658 OFFCURVE",
"544 604 CURVE",
"362 378 LINE",
"295 314 LINE",
"271 380 LINE",
"384 536 LINE",
"357 571 OFFCURVE",
"296 593 OFFCURVE",
"238 590 CURVE",
"190 547 OFFCURVE",
"189 475 OFFCURVE",
"189 382 CURVE SMOOTH",
"189 281 OFFCURVE",
"187 174 OFFCURVE",
"195 79 CURVE",
"245 68 LINE",
"240 0 LINE",
"-17 0 LINE"
);
}
);
};
layerId = "11343128-4963-4E5D-BE9C-B74F53B36FA5";
paths = (
{
closed = 1;
nodes = (
"302 146 LINE",
"375 157 LINE",
"395 76 LINE",
"457 76 LINE",
"531 161 OFFCURVE",
"463 333 OFFCURVE",
"331 319 CURVE",
"371 391 LINE",
"545 416 OFFCURVE",
"645 341 OFFCURVE",
"646 184 CURVE SMOOTH",
"647 53 OFFCURVE",
"488 -81 OFFCURVE",
"298 21 CURVE"
);
},
{
closed = 1;
nodes = (
"23 68 LINE",
"124 77 LINE",
"98 83 OFFCURVE",
"82 102 OFFCURVE",
"82 115 CURVE SMOOTH",
"82 177 OFFCURVE",
"82 238 OFFCURVE",
"84 424 CURVE SMOOTH",
"86 604 OFFCURVE",
"163 693 OFFCURVE",
"384 693 CURVE SMOOTH",
"478 693 OFFCURVE",
"559 658 OFFCURVE",
"580 604 CURVE",
"409 383 LINE",
"331 319 LINE",
"307 385 LINE",
"420 536 LINE",
"393 571 OFFCURVE",
"332 593 OFFCURVE",
"274 590 CURVE",
"228 544 OFFCURVE",
"227 475 OFFCURVE",
"226 382 CURVE SMOOTH",
"225 281 OFFCURVE",
"223 174 OFFCURVE",
"231 79 CURVE",
"281 68 LINE",
"275 0 LINE",
"19 0 LINE"
);
}
);
width = 682;
},
{
anchors = (
{
name = bottom;
position = "{258, 0}";
},
{
name = top;
position = "{258, 700}";
}
);
background = {
anchors = (
{
name = bottom;
position = "{265, 0}";
},
{
name = top;
position = "{265, 708}";
}
);
};
layerId = "0B1F8F77-7348-4C28-A663-EA76351238C4";
paths = (
{
closed = 1;
nodes = (
"267 106 LINE",
"312 117 LINE",
"332 36 LINE",
"434 36 LINE",
"488 66 OFFCURVE",
"512 117 OFFCURVE",
"512 170 CURVE SMOOTH",
"512 256 OFFCURVE",
"445 345 OFFCURVE",
"331 345 CURVE SMOOTH",
"325 345 OFFCURVE",
"319 344 OFFCURVE",
"313 344 CURVE",
"331 381 LINE",
"343 382 OFFCURVE",
"356 383 OFFCURVE",
"368 383 CURVE SMOOTH",
"498 383 OFFCURVE",
"595 317 OFFCURVE",
"595 181 CURVE SMOOTH",
"595 83 OFFCURVE",
"508 -15 OFFCURVE",
"389 -15 CURVE SMOOTH",
"350 -15 OFFCURVE",
"307 -4 OFFCURVE",
"263 21 CURVE"
);
},
{
closed = 1;
nodes = (
"4 46 LINE",
"115 55 LINE",
"89 61 OFFCURVE",
"74 80 OFFCURVE",
"74 93 CURVE SMOOTH",
"74 145 OFFCURVE",
"74 207 OFFCURVE",
"76 417 CURVE SMOOTH",
"77 597 OFFCURVE",
"169 693 OFFCURVE",
"344 693 CURVE SMOOTH",
"438 693 OFFCURVE",
"512 654 OFFCURVE",
"521 599 CURVE",
"358 368 LINE",
"313 344 LINE",
"291 381 LINE",
"441 575 LINE",
"418 607 OFFCURVE",
"360 632 OFFCURVE",
"282 632 CURVE SMOOTH",
"267 632 OFFCURVE",
"251 631 OFFCURVE",
"234 629 CURVE",
"181 594 OFFCURVE",
"155 559 OFFCURVE",
"155 382 CURVE SMOOTH",
"155 348 OFFCURVE",
"155 312 OFFCURVE",
"155 274 CURVE SMOOTH",
"155 199 OFFCURVE",
"156 120 OFFCURVE",
"161 57 CURVE",
"235 46 LINE",
"230 0 LINE",
"0 0 LINE"
);
}
);
width = 600;
}
);
rightKerningGroup = B;
unicode = 1E9E;
},
{
color = 1;
glyphname = T;
lastChange = "2017-08-05 12:14:32 +0000";
layers = (
{
anchors = (
{
name = bottom;
position = "{299, 0}";
},
{
name = center;
position = "{293, 350}";
},
{
name = top;
position = "{299, 680}";
}
);
components = (
{
name = _part.stem.cap;
transform = "{1, 0, 0, 1, -82, 0}";
}
);
layerId = "11343128-4963-4E5D-BE9C-B74F53B36FA5";
paths = (
{
closed = 1;
nodes = (
"410 595 OFFCURVE",
"463 592 OFFCURVE",
"503 585 CURVE",
"523 499 LINE",
"590 509 LINE",
"593 689 LINE",
"423 679 OFFCURVE",
"195 678 OFFCURVE",
"10 688 CURVE",
"10 509 LINE",
"79 499 LINE",
"87 535 OFFCURVE",
"90 559 OFFCURVE",
"98 589 CURVE",
"133 594 OFFCURVE",
"185 596 OFFCURVE",
"242 595 CURVE",
"375 594 LINE"
);
}
);
width = 603;
},
{
anchors = (
{
name = bottom;
position = "{293, 0}";
},
{
name = center;
position = "{293, 350}";
},
{
name = top;
position = "{293, 680}";
}
);
background = {
components = (
{
name = F;
transform = "{-1, 0, 0, 1, 509, 0}";
}
);
};
components = (
{
name = _part.stem.cap;
transform = "{1, 0, 0, 1, -3, 0}";
}
);
guideLines = (
{
angle = 85;
position = "{3, 348}";
}
);
layerId = "0B1F8F77-7348-4C28-A663-EA76351238C4";
paths = (
{
closed = 1;
nodes = (
"380 626 OFFCURVE",
"451 619 OFFCURVE",
"510 611 CURVE",
"525 533 LINE",
"571 539 LINE",
"573 687 LINE",
"480 682 OFFCURVE",
"389 679 OFFCURVE",
"300 679 CURVE SMOOTH",
"206 679 OFFCURVE",
"114 682 OFFCURVE",
"21 687 CURVE",
"20 538 LINE",
"69 532 LINE",
"84 612 LINE",
"105 620 OFFCURVE",
"160 621 OFFCURVE",
"225 624 CURVE",
"345 625 LINE"
);
}
);
width = 593;
},
{
associatedMasterId = "11343128-4963-4E5D-BE9C-B74F53B36FA5";
layerId = "3E977C83-94CB-4442-A360-2779AD70A990";
name = bubble;
paths = (
{
closed = 1;
nodes = (
"421 513 OFFCURVE",
"430 513 OFFCURVE",
"438 512 CURVE",
"462 409 LINE",
"669 440 LINE",
"674 775 LINE",
"472 757 OFFCURVE",
"142 756 OFFCURVE",
"-70 774 CURVE",
"-70 440 LINE",
"139 409 LINE",
"152 458 OFFCURVE",
"159 490 OFFCURVE",
"164 514 CURVE",
"187 515 OFFCURVE",
"213 516 OFFCURVE",
"241 515 CURVE SMOOTH",
"413 514 LINE SMOOTH"
);
}
);
width = 603;
}
);
leftKerningGroup = T;
rightKerningGroup = T;
unicode = 0054;
},
{
color = 1;
glyphname = U;
lastChange = "2017-08-05 17:52:53 +0000";
layers = (
{
anchors = (
{
name = bottom;
position = "{359, 0}";
},
{
name = ogonek;
position = "{499, 10}";
},
{
name = top;
position = "{366, 680}";
},
{
name = topright;
position = "{689, 700}";
}
);
guideLines = (
{
angle = 86;
position = "{733, 233}";
},
{
angle = 86;
position = "{6, 527}";
}
);
layerId = "11343128-4963-4E5D-BE9C-B74F53B36FA5";
paths = (
{
closed = 1;
nodes = (
"442 616 LINE",
"526 605 LINE",
"540 577 OFFCURVE",
"539 480 OFFCURVE",
"538 304 CURVE SMOOTH",
"537 169 OFFCURVE",
"484 117 OFFCURVE",
"447 91 CURVE",
"306 73 OFFCURVE",
"246 155 OFFCURVE",
"246 301 CURVE SMOOTH",
"246 368 OFFCURVE",
"249 459 OFFCURVE",
"249 574 CURVE SMOOTH",
"249 591 OFFCURVE",
"223 604 OFFCURVE",
"209 606 CURVE",
"247 610 OFFCURVE",
"285 613 OFFCURVE",
"310 615 CURVE",
"315 679 LINE",
"20 679 LINE",
"15 616 LINE",
"79 608 LINE",
"91 573 OFFCURVE",
"85 374 OFFCURVE",
"85 265 CURVE SMOOTH",
"85 184 OFFCURVE",
"110 114 OFFCURVE",
"144 69 CURVE SMOOTH",
"209 -17 OFFCURVE",
"384 -45 OFFCURVE",
"486 2 CURVE SMOOTH",
"569 40 OFFCURVE",
"640 125 OFFCURVE",
"640 272 CURVE SMOOTH",
"640 409 OFFCURVE",
"642 537 OFFCURVE",
"646 604 CURVE",
"712 615 LINE",
"717 680 LINE",
"446 680 LINE"
);
}
);
width = 732;
},
{
anchors = (
{
name = bottom;
position = "{312, 0}";
},
{
name = ogonek;
position = "{452, 10}";
},
{
name = top;
position = "{334, 680}";
},
{
name = topright;
position = "{642, 700}";
}
);
background = {
paths = (
{
closed = 1;
nodes = (
"455 636 LINE",
"519 626 LINE",
"533 598 OFFCURVE",
"529 486 OFFCURVE",
"529 304 CURVE SMOOTH",
"529 154 OFFCURVE",
"483 78 OFFCURVE",
"402 49 CURVE",
"242 40 OFFCURVE",
"174 114 OFFCURVE",
"174 253 CURVE SMOOTH",
"174 318 OFFCURVE",
"176 537 OFFCURVE",
"176 591 CURVE SMOOTH",
"176 613 OFFCURVE",
"143 625 OFFCURVE",
"133 627 CURVE",
"171 629 OFFCURVE",
"212 635 OFFCURVE",
"234 636 CURVE",
"238 679 LINE",
"16 680 LINE",
"12 636 LINE",
"77 625 LINE",
"89 590 OFFCURVE",
"84 374 OFFCURVE",
"84 265 CURVE SMOOTH",
"84 184 OFFCURVE",
"100 109 OFFCURVE",
"134 64 CURVE SMOOTH",
"199 -23 OFFCURVE",
"341 -38 OFFCURVE",
"443 2 CURVE SMOOTH",
"537 39 OFFCURVE",
"591 138 OFFCURVE",
"591 281 CURVE SMOOTH",
"591 418 OFFCURVE",
"591 555 OFFCURVE",
"592 622 CURVE",
"662 636 LINE",
"665 680 LINE",
"459 680 LINE"
);
}
);
};
guideLines = (
{
angle = 85;
position = "{425, 371}";
}
);
layerId = "0B1F8F77-7348-4C28-A663-EA76351238C4";
paths = (
{
closed = 1;
nodes = (
"440 665 OFFCURVE",
"438 648 OFFCURVE",
"439 633 CURVE",
"518 623 LINE",
"527 605 OFFCURVE",
"529 561 OFFCURVE",
"529 479 CURVE SMOOTH",
"529 432 OFFCURVE",
"528 361 OFFCURVE",
"528 295 CURVE SMOOTH",
"528 148 OFFCURVE",
"483 77 OFFCURVE",
"400 48 CURVE",
"249 46 OFFCURVE",
"174 97 OFFCURVE",
"174 249 CURVE SMOOTH",
"174 314 OFFCURVE",
"176 534 OFFCURVE",
"176 588 CURVE SMOOTH",
"176 610 OFFCURVE",
"145 622 OFFCURVE",
"135 624 CURVE",
"173 626 OFFCURVE",
"230 633 OFFCURVE",
"252 634 CURVE",
"255 648 OFFCURVE",
"258 666 OFFCURVE",
"257 680 CURVE",
"28 680 LINE",
"25 665 OFFCURVE",
"23 650 OFFCURVE",
"24 635 CURVE",
"88 621 LINE",
"93 601 OFFCURVE",
"92 531 OFFCURVE",
"92 452 CURVE SMOOTH",
"92 386 OFFCURVE",
"91 319 OFFCURVE",
"91 269 CURVE SMOOTH",
"91 93 OFFCURVE",
"148 -13 OFFCURVE",
"328 -14 CURVE SMOOTH",
"508 -15 OFFCURVE",
"591 98 OFFCURVE",
"591 281 CURVE SMOOTH",
"591 418 OFFCURVE",
"591 555 OFFCURVE",
"592 622 CURVE",
"657 633 LINE",
"660 648 OFFCURVE",
"662 665 OFFCURVE",
"661 680 CURVE",
"443 680 LINE"
);
}
);
width = 675;
}
);
rightKerningGroup = U;
unicode = 0055;
},
{
color = 1;
glyphname = V;
lastChange = "2017-08-05 17:44:22 +0000";
layers = (
{
anchors = (
{
name = bottom;
position = "{368, 0}";
},
{
name = top;
position = "{368, 680}";
}
);
background = {
paths = (
{
closed = 1;
nodes = (
"100 576 OFFCURVE",
"112 492 OFFCURVE",
"105 414 CURVE",
"231 430 LINE",
"235 539 OFFCURVE",
"244 589 OFFCURVE",
"242 605 CURVE SMOOTH",
"241 613 OFFCURVE",
"235 627 OFFCURVE",
"203 639 CURVE",
"298 645 LINE",
"298 700 LINE",
"33 700 LINE",
"27 645 LINE",
"84 635 LINE"
);
}
);
};
layerId = "11343128-4963-4E5D-BE9C-B74F53B36FA5";
paths = (
{
closed = 1;
nodes = (
"397 117 LINE",
"377 189 OFFCURVE",
"244 561 OFFCURVE",
"241 571 CURVE SMOOTH",
"234 593 OFFCURVE",
"210 604 OFFCURVE",
"188 606 CURVE",
"285 615 LINE",
"290 680 LINE",
"-5 680 LINE",
"-10 615 LINE",
"56 605 LINE",
"72 573 OFFCURVE",
"128 442 OFFCURVE",
"170 321 CURVE SMOOTH",
"209 209 OFFCURVE",
"268 65 OFFCURVE",
"290 -8 CURVE"
);
},
{
closed = 1;
nodes = (
"534 574 OFFCURVE",
"493 463 OFFCURVE",
"477 412 CURVE SMOOTH",
"369 66 OFFCURVE",
"313 36 OFFCURVE",
"290 -8 CURVE",
"432 4 LINE",
"528 274 OFFCURVE",
"605 496 OFFCURVE",
"651 598 CURVE",
"719 615 LINE",
"724 680 LINE",
"454 680 LINE",
"449 615 LINE",
"525 606 LINE"
);
}
);
width = 724;
},
{
anchors = (
{
name = bottom;
position = "{332, 0}";
},
{
name = top;
position = "{332, 680}";
}
);
background = {
paths = (
{
closed = 1;
nodes = (
"610 627 LINE",
"686 640 LINE",
"681 670 LINE",
"466 670 LINE",
"466 640 LINE",
"488 631 OFFCURVE",
"511 622 OFFCURVE",
"537 616 CURVE",
"350 95 LINE",
"346 45 LINE",
"344 45 LINE",
"340 95 LINE",
"154 628 LINE",
"231 640 LINE",
"226 670 LINE",
"-4 670 LINE",
"-9 640 LINE",
"14 630 OFFCURVE",
"38 621 OFFCURVE",
"65 615 CURVE",
"299 0 LINE",
"374 0 LINE"
);
}
);
};
guideLines = (
{
angle = 85;
position = "{431, 503}";
}
);
layerId = "0B1F8F77-7348-4C28-A663-EA76351238C4";
paths = (
{
closed = 1;
nodes = (
"356 71 LINE",
"284 281 OFFCURVE",
"175 581 OFFCURVE",
"172 591 CURVE SMOOTH",
"165 613 OFFCURVE",
"144 624 OFFCURVE",
"122 626 CURVE",
"232 635 LINE",
"235 650 OFFCURVE",
"237 665 OFFCURVE",
"236 680 CURVE",
"9 680 LINE",
"6 665 OFFCURVE",
"4 650 OFFCURVE",
"5 635 CURVE",
"63 625 LINE",
"79 593 OFFCURVE",
"136 442 OFFCURVE",
"179 321 CURVE SMOOTH",
"219 209 OFFCURVE",
"279 63 OFFCURVE",
"307 -7 CURVE"
);
},
{
closed = 1;
nodes = (
"522 623 OFFCURVE",
"522 620 OFFCURVE",
"522 616 CURVE SMOOTH",
"522 573 OFFCURVE",
"480 458 OFFCURVE",
"465 412 CURVE SMOOTH",
"395 199 OFFCURVE",
"330 37 OFFCURVE",
"307 -7 CURVE",
"330 -6 OFFCURVE",
"349 -1 OFFCURVE",
"372 7 CURVE",
"470 271 OFFCURVE",
"563 518 OFFCURVE",
"601 622 CURVE",
"662 635 LINE",
"665 650 OFFCURVE",
"667 665 OFFCURVE",
"666 680 CURVE",
"438 680 LINE",
"434 666 OFFCURVE",
"433 651 OFFCURVE",
"433 635 CURVE",
"521 626 LINE"
);
}
);
width = 673;
}
);
leftKerningGroup = V;
rightKerningGroup = V;
unicode = 0056;
},
{
color = 1;
glyphname = W;
lastChange = "2017-08-05 17:52:38 +0000";
layers = (
{
anchors = (
{
name = bottom;
position = "{491, 0}";
},
{
name = top;
position = "{491, 680}";
}
);
background = {
components = (
{
name = M;
transform = "{-1, 0, 0, -1, 954, 681}";
}
);
};
guideLines = (
{
position = "{1425, 194}";
},
{
angle = 70;
position = "{796, 288}";
}
);
layerId = "11343128-4963-4E5D-BE9C-B74F53B36FA5";
paths = (
{
closed = 1;
nodes = (
"353 125 LINE",
"333 197 OFFCURVE",
"232 537 OFFCURVE",
"229 547 CURVE SMOOTH",
"223 568 OFFCURVE",
"207 598 OFFCURVE",
"180 606 CURVE",
"275 615 LINE",
"279 680 LINE",
"-5 680 LINE",
"-10 615 LINE",
"42 605 LINE",
"59 572 OFFCURVE",
"105 441 OFFCURVE",
"143 321 CURVE SMOOTH",
"178 209 OFFCURVE",
"230 35 OFFCURVE",
"244 -9 CURVE"
);
},
{
closed = 1;
nodes = (
"444 595 OFFCURVE",
"408 463 OFFCURVE",
"391 412 CURVE SMOOTH",
"276 67 OFFCURVE",
"268 35 OFFCURVE",
"244 -9 CURVE",
"355 6 LINE",
"436 276 OFFCURVE",
"493 501 OFFCURVE",
"513 548 CURVE",
"437 627 LINE"
);
},
{
closed = 1;
nodes = (
"707 89 LINE",
"691 161 OFFCURVE",
"563 589 OFFCURVE",
"561 599 CURVE",
"650 615 LINE",
"655 680 LINE",
"331 680 LINE",
"326 615 LINE",
"403 605 LINE",
"417 573 OFFCURVE",
"457 441 OFFCURVE",
"499 321 CURVE SMOOTH",
"538 210 OFFCURVE",
"584 37 OFFCURVE",
"599 -7 CURVE"
);
},
{
closed = 1;
nodes = (
"787 577 OFFCURVE",
"756 465 OFFCURVE",
"741 412 CURVE SMOOTH",
"641 64 OFFCURVE",
"642 47 OFFCURVE",
"599 -7 CURVE",
"714 7 LINE",
"827 407 OFFCURVE",
"893 553 OFFCURVE",
"911 601 CURVE",
"966 615 LINE",
"971 680 LINE",
"708 680 LINE",
"703 615 LINE",
"778 606 LINE"
);
}
);
width = 971;
},
{
anchors = (
{
name = bottom;
position = "{489, 0}";
},
{
name = top;
position = "{489, 680}";
}
);
background = {
paths = (
{
closed = 1;
nodes = (
"925 627 LINE",
"1000 640 LINE",
"995 670 LINE",
"784 670 LINE",
"779 640 LINE",
"801 630 OFFCURVE",
"825 622 OFFCURVE",
"850 616 CURVE",
"701 95 LINE",
"697 55 LINE",
"695 55 LINE",
"691 95 LINE",
"545 660 LINE",
"450 660 LINE",
"306 95 LINE",
"302 55 LINE",
"300 55 LINE",
"296 95 LINE",
"145 628 LINE",
"225 640 LINE",
"220 670 LINE",
"-10 670 LINE",
"-15 640 LINE",
"8 630 OFFCURVE",
"32 621 OFFCURVE",
"59 615 CURVE",
"245 0 LINE",
"344 0 LINE",
"485 545 LINE",
"489 585 LINE",
"491 585 LINE",
"495 545 LINE",
"641 0 LINE",
"730 0 LINE"
);
}
);
};
guideLines = (
{
position = "{1423, 194}";
},
{
position = "{458, 130}";
}
);
layerId = "0B1F8F77-7348-4C28-A663-EA76351238C4";
paths = (
{
closed = 1;
nodes = (
"314 110 LINE",
"293 183 OFFCURVE",
"254 303 OFFCURVE",
"175 592 CURVE SMOOTH",
"171 607 OFFCURVE",
"151 618 OFFCURVE",
"124 626 CURVE",
"235 636 LINE",
"238 651 OFFCURVE",
"240 665 OFFCURVE",
"239 680 CURVE",
"11 680 LINE",
"8 665 OFFCURVE",
"6 651 OFFCURVE",
"7 636 CURVE",
"62 626 LINE",
"79 594 OFFCURVE",
"127 442 OFFCURVE",
"168 321 CURVE SMOOTH",
"206 209 OFFCURVE",
"253 37 OFFCURVE",
"268 -7 CURVE"
);
},
{
closed = 1;
nodes = (
"454 604 OFFCURVE",
"455 601 OFFCURVE",
"455 598 CURVE SMOOTH",
"455 555 OFFCURVE",
"415 431 OFFCURVE",
"399 382 CURVE SMOOTH",
"310 99 OFFCURVE",
"278 33 OFFCURVE",
"268 -7 CURVE",
"290 -5 OFFCURVE",
"310 -1 OFFCURVE",
"330 7 CURVE",
"417 277 OFFCURVE",
"475 453 OFFCURVE",
"489 510 CURVE",
"454 606 LINE"
);
},
{
closed = 1;
nodes = (
"677 109 LINE",
"655 181 OFFCURVE",
"520 581 OFFCURVE",
"508 624 CURVE",
"604 635 LINE",
"607 650 OFFCURVE",
"609 665 OFFCURVE",
"608 680 CURVE",
"349 680 LINE",
"346 665 OFFCURVE",
"344 650 OFFCURVE",
"345 635 CURVE",
"423 625 LINE",
"438 593 OFFCURVE",
"482 439 OFFCURVE",
"524 321 CURVE SMOOTH",
"573 184 OFFCURVE",
"618 39 OFFCURVE",
"634 -5 CURVE"
);
},
{
closed = 1;
nodes = (
"807 588 OFFCURVE",
"773 460 OFFCURVE",
"759 412 CURVE SMOOTH",
"658 69 OFFCURVE",
"645 37 OFFCURVE",
"633 -5 CURVE",
"655 -3 OFFCURVE",
"676 1 OFFCURVE",
"696 9 CURVE",
"805 384 OFFCURVE",
"862 577 OFFCURVE",
"883 624 CURVE",
"942 635 LINE",
"945 650 OFFCURVE",
"947 665 OFFCURVE",
"946 680 CURVE",
"718 680 LINE",
"715 665 OFFCURVE",
"713 650 OFFCURVE",
"714 635 CURVE",
"798 626 LINE"
);
}
);
width = 953;
}
);
leftKerningGroup = V;
rightKerningGroup = V;
unicode = 0057;
},
{
color = 1;
glyphname = X;
lastChange = "2017-08-05 17:48:50 +0000";
layers = (
{
anchors = (
{
name = bottom;
position = "{350, 0}";
},
{
name = top;
position = "{350, 680}";
}
);
background = {
paths = (
{
closed = 1;
nodes = (
"308 328 LINE",
"377 214 OFFCURVE",
"396 181 OFFCURVE",
"423 137 CURVE SMOOTH",
"447 98 OFFCURVE",
"471 77 OFFCURVE",
"491 74 CURVE",
"379 64 LINE",
"371 0 LINE",
"706 0 LINE",
"712 66 LINE",
"641 77 LINE",
"571 175 OFFCURVE",
"520 246 OFFCURVE",
"439 367 CURVE"
);
},
{
closed = 1;
nodes = (
"439 531 OFFCURVE",
"376 428 OFFCURVE",
"323 352 CURVE",
"422 327 LINE",
"483 420 OFFCURVE",
"561 530 OFFCURVE",
"586 561 CURVE SMOOTH",
"606 585 OFFCURVE",
"641 615 OFFCURVE",
"683 615 CURVE",
"690 680 LINE",
"406 680 LINE",
"397 615 LINE",
"478 605 LINE"
);
},
{
closed = 1;
nodes = (
"266 132 OFFCURVE",
"353 280 OFFCURVE",
"383 326 CURVE",
"290 363 LINE",
"237 275 OFFCURVE",
"144 146 OFFCURVE",
"107 110 CURVE SMOOTH",
"81 85 OFFCURVE",
"39 65 OFFCURVE",
"12 65 CURVE",
"5 0 LINE",
"295 0 LINE",
"303 65 LINE",
"237 74 LINE"
);
},
{
closed = 1;
nodes = (
"426 341 LINE",
"372 418 OFFCURVE",
"316 503 OFFCURVE",
"283 557 CURVE SMOOTH",
"262 591 OFFCURVE",
"281 614 OFFCURVE",
"325 615 CURVE",
"334 680 LINE",
"19 680 LINE",
"11 615 LINE",
"77 605 LINE",
"136 526 OFFCURVE",
"236 375 OFFCURVE",
"280 318 CURVE"
);
}
);
};
guideLines = (
{
angle = 56;
position = "{334, 360}";
},
{
angle = 86;
position = "{322, 461}";
}
);
layerId = "11343128-4963-4E5D-BE9C-B74F53B36FA5";
paths = (
{
closed = 1;
nodes = (
"308 328 LINE",
"377 214 OFFCURVE",
"396 181 OFFCURVE",
"423 137 CURVE SMOOTH",
"447 98 OFFCURVE",
"471 77 OFFCURVE",
"491 74 CURVE",
"375 64 LINE",
"371 0 LINE",
"708 0 LINE",
"712 66 LINE",
"641 77 LINE",
"571 175 OFFCURVE",
"520 246 OFFCURVE",
"439 367 CURVE"
);
},
{
closed = 1;
nodes = (
"439 531 OFFCURVE",
"376 428 OFFCURVE",
"323 352 CURVE",
"422 327 LINE",
"483 420 OFFCURVE",
"590 573 OFFCURVE",
"615 604 CURVE",
"685 617 LINE",
"690 680 LINE",
"402 680 LINE",
"397 615 LINE",
"478 605 LINE"
);
},
{
closed = 1;
nodes = (
"266 132 OFFCURVE",
"353 280 OFFCURVE",
"383 326 CURVE",
"290 363 LINE",
"237 275 OFFCURVE",
"119 111 OFFCURVE",
"82 75 CURVE",
"9 65 LINE",
"5 0 LINE",
"295 0 LINE",
"300 65 LINE",
"237 74 LINE"
);
},
{
closed = 1;
nodes = (
"426 341 LINE",
"372 418 OFFCURVE",
"285 551 OFFCURVE",
"252 605 CURVE",
"330 615 LINE",
"334 680 LINE",
"19 680 LINE",
"14 615 LINE",
"78 605 LINE",
"137 526 OFFCURVE",
"236 375 OFFCURVE",
"280 318 CURVE"
);
}
);
width = 702;
},
{
anchors = (
{
name = bottom;
position = "{324, 0}";
},
{
name = top;
position = "{324, 680}";
}
);
background = {
paths = (
{
closed = 1;
nodes = (
"386 28 OFFCURVE",
"389 5 OFFCURVE",
"394 -4 CURVE",
"437 -4 OFFCURVE",
"482 0 OFFCURVE",
"528 0 CURVE SMOOTH",
"561 0 OFFCURVE",
"618 -2 OFFCURVE",
"648 -4 CURVE",
"653 6 OFFCURVE",
"655 29 OFFCURVE",
"655 46 CURVE",
"635 55 OFFCURVE",
"604 62 OFFCURVE",
"574 65 CURVE",
"377 352 LINE",
"548 614 LINE",
"575 618 OFFCURVE",
"602 624 OFFCURVE",
"620 633 CURVE",
"620 649 OFFCURVE",
"618 672 OFFCURVE",
"613 682 CURVE",
"583 679 OFFCURVE",
"538 678 OFFCURVE",
"505 678 CURVE SMOOTH",
"459 678 OFFCURVE",
"430 682 OFFCURVE",
"384 682 CURVE",
"379 673 OFFCURVE",
"376 650 OFFCURVE",
"376 633 CURVE",
"406 630 OFFCURVE",
"440 622 OFFCURVE",
"462 615 CURVE",
"336 413 LINE",
"198 614 LINE",
"228 618 OFFCURVE",
"258 624 OFFCURVE",
"278 633 CURVE",
"278 649 OFFCURVE",
"276 672 OFFCURVE",
"271 682 CURVE",
"241 680 OFFCURVE",
"179 678 OFFCURVE",
"146 678 CURVE SMOOTH",
"100 678 OFFCURVE",
"58 682 OFFCURVE",
"14 682 CURVE",
"9 673 OFFCURVE",
"6 650 OFFCURVE",
"6 633 CURVE",
"35 630 OFFCURVE",
"65 621 OFFCURVE",
"84 614 CURVE",
"270 343 LINE",
"90 65 LINE",
"68 58 OFFCURVE",
"33 49 OFFCURVE",
"2 46 CURVE",
"2 28 OFFCURVE",
"5 5 OFFCURVE",
"10 -4 CURVE",
"55 -4 OFFCURVE",
"83 0 OFFCURVE",
"128 0 CURVE SMOOTH",
"161 0 OFFCURVE",
"225 -1 OFFCURVE",
"255 -4 CURVE",
"260 6 OFFCURVE",
"262 29 OFFCURVE",
"262 46 CURVE",
"241 55 OFFCURVE",
"209 62 OFFCURVE",
"177 65 CURVE",
"311 282 LINE",
"461 64 LINE",
"440 56 OFFCURVE",
"416 49 OFFCURVE",
"386 46 CURVE"
);
}
);
};
guideLines = (
{
angle = 90;
position = "{-26, 134}";
}
);
layerId = "0B1F8F77-7348-4C28-A663-EA76351238C4";
paths = (
{
closed = 1;
nodes = (
"301 326 LINE",
"373 212 OFFCURVE",
"408 163 OFFCURVE",
"438 119 CURVE SMOOTH",
"464 81 OFFCURVE",
"486 60 OFFCURVE",
"506 56 CURVE",
"401 45 LINE",
"398 30 OFFCURVE",
"396 15 OFFCURVE",
"397 0 CURVE",
"647 0 LINE",
"650 15 OFFCURVE",
"652 30 OFFCURVE",
"651 45 CURVE",
"584 56 LINE",
"514 154 OFFCURVE",
"457 230 OFFCURVE",
"375 351 CURVE"
);
},
{
closed = 1;
nodes = (
"444 551 OFFCURVE",
"365 428 OFFCURVE",
"312 352 CURVE",
"361 327 LINE",
"422 420 OFFCURVE",
"536 593 OFFCURVE",
"561 624 CURVE",
"632 635 LINE",
"635 650 OFFCURVE",
"637 665 OFFCURVE",
"636 680 CURVE",
"401 680 LINE",
"397 665 OFFCURVE",
"396 650 OFFCURVE",
"396 635 CURVE",
"483 625 LINE"
);
},
{
closed = 1;
nodes = (
"197 113 OFFCURVE",
"304 280 OFFCURVE",
"334 326 CURVE",
"291 363 LINE",
"238 275 OFFCURVE",
"117 94 OFFCURVE",
"80 58 CURVE",
"4 45 LINE",
"1 30 OFFCURVE",
"-1 15 OFFCURVE",
"0 0 CURVE",
"244 0 LINE",
"247 15 OFFCURVE",
"249 31 OFFCURVE",
"248 46 CURVE",
"168 55 LINE"
);
},
{
closed = 1;
nodes = (
"370 341 LINE",
"316 418 OFFCURVE",
"218 571 OFFCURVE",
"185 625 CURVE",
"271 635 LINE",
"274 650 OFFCURVE",
"277 665 OFFCURVE",
"276 680 CURVE",
"21 680 LINE",
"17 665 OFFCURVE",
"16 650 OFFCURVE",
"16 635 CURVE",
"82 625 LINE",
"141 546 OFFCURVE",
"255 374 OFFCURVE",
"299 317 CURVE"
);
}
);
width = 651;
}
);
leftKerningGroup = X;
rightKerningGroup = X;
unicode = 0058;
},
{
color = 1;
glyphname = Y;
lastChange = "2017-08-05 12:33:05 +0000";
layers = (
{
anchors = (
{
name = bottom;
position = "{315, 0}";
},
{
name = top;
position = "{326, 680}";
},
{
name = topleft;
position = "{-5, 700}";
}
);
annotations = (
{
position = "{-186, 798}";
text = "82";
type = Text;
},
{
position = "{224, -14}";
text = "This Serif!";
type = Text;
width = 83;
}
);
guideLines = (
{
position = "{233, 273}";
},
{
angle = 86;
position = "{9, 459}";
}
);
layerId = "11343128-4963-4E5D-BE9C-B74F53B36FA5";
paths = (
{
closed = 1;
nodes = (
"430 548 OFFCURVE",
"363 375 OFFCURVE",
"285 258 CURVE",
"358 202 LINE",
"398 295 OFFCURVE",
"539 570 OFFCURVE",
"561 603 CURVE",
"635 615 LINE",
"639 680 LINE",
"372 680 LINE",
"367 615 LINE",
"452 606 LINE"
);
},
{
closed = 1;
nodes = (
"363 328 LINE",
"315 418 OFFCURVE",
"225 586 OFFCURVE",
"217 606 CURVE",
"287 617 LINE",
"292 680 LINE",
"0 680 LINE",
"-6 616 LINE",
"53 605 LINE",
"171 404 OFFCURVE",
"220 327 OFFCURVE",
"276 214 CURVE"
);
},
{
closed = 1;
nodes = (
"390 117 OFFCURVE",
"389 232 OFFCURVE",
"390 310 CURVE",
"240 294 LINE",
"235 185 OFFCURVE",
"234 203 OFFCURVE",
"234 123 CURVE SMOOTH",
"234 103 OFFCURVE",
"248 85 OFFCURVE",
"277 76 CURVE",
"159 66 LINE",
"155 0 LINE",
"487 0 LINE",
"493 66 LINE",
"420 76 LINE"
);
}
);
width = 642;
},
{
anchors = (
{
name = bottom;
position = "{311, 0}";
},
{
name = top;
position = "{322, 680}";
},
{
name = topleft;
position = "{-9, 700}";
}
);
annotations = (
{
position = "{-186, 798}";
text = "82";
type = Text;
},
{
position = "{224, -14}";
text = "This Serif!";
type = Text;
width = 83;
}
);
background = {
paths = (
{
closed = 1;
nodes = (
"360 93 OFFCURVE",
"359 121 OFFCURVE",
"359 150 CURVE SMOOTH",
"359 254 LINE",
"419 379 OFFCURVE",
"469 478 OFFCURVE",
"545 610 CURVE",
"577 613 OFFCURVE",
"607 620 OFFCURVE",
"627 629 CURVE",
"627 645 OFFCURVE",
"624 669 OFFCURVE",
"619 678 CURVE",
"590 675 OFFCURVE",
"545 674 OFFCURVE",
"512 674 CURVE SMOOTH",
"467 674 OFFCURVE",
"438 678 OFFCURVE",
"393 678 CURVE",
"388 669 OFFCURVE",
"385 646 OFFCURVE",
"385 629 CURVE",
"416 626 OFFCURVE",
"451 617 OFFCURVE",
"473 610 CURVE",
"421 519 OFFCURVE",
"369 421 OFFCURVE",
"317 315 CURVE",
"294 381 LINE",
"253 457 OFFCURVE",
"203 544 OFFCURVE",
"162 610 CURVE",
"194 613 OFFCURVE",
"227 620 OFFCURVE",
"249 629 CURVE",
"249 645 OFFCURVE",
"247 669 OFFCURVE",
"242 678 CURVE",
"213 676 OFFCURVE",
"151 674 OFFCURVE",
"119 674 CURVE SMOOTH",
"74 674 OFFCURVE",
"31 678 OFFCURVE",
"-12 678 CURVE",
"-17 669 OFFCURVE",
"-19 646 OFFCURVE",
"-19 629 CURVE",
"9 626 OFFCURVE",
"38 617 OFFCURVE",
"57 610 CURVE",
"130 490 OFFCURVE",
"205 360 OFFCURVE",
"269 236 CURVE",
"269 128 LINE SMOOTH",
"269 106 OFFCURVE",
"268 91 OFFCURVE",
"264 67 CURVE",
"243 60 OFFCURVE",
"200 50 OFFCURVE",
"169 47 CURVE",
"169 30 OFFCURVE",
"172 6 OFFCURVE",
"177 -3 CURVE",
"222 -3 OFFCURVE",
"268 3 OFFCURVE",
"313 3 CURVE SMOOTH",
"346 3 OFFCURVE",
"415 0 OFFCURVE",
"444 -3 CURVE",
"449 7 OFFCURVE",
"452 31 OFFCURVE",
"452 47 CURVE",
"432 57 OFFCURVE",
"392 64 OFFCURVE",
"362 67 CURVE"
);
}
);
};
guideLines = (
{
position = "{229, 273}";
}
);
layerId = "0B1F8F77-7348-4C28-A663-EA76351238C4";
paths = (
{
closed = 1;
nodes = (
"453 568 OFFCURVE",
"368 398 OFFCURVE",
"313 296 CURVE",
"345 238 LINE",
"385 331 OFFCURVE",
"530 591 OFFCURVE",
"552 624 CURVE",
"611 635 LINE",
"614 650 OFFCURVE",
"616 665 OFFCURVE",
"615 680 CURVE",
"393 680 LINE",
"389 665 OFFCURVE",
"387 650 OFFCURVE",
"389 635 CURVE",
"475 626 LINE"
);
},
{
closed = 1;
nodes = (
"327 301 LINE",
"284 394 OFFCURVE",
"165 606 OFFCURVE",
"157 626 CURVE",
"243 635 LINE",
"246 650 OFFCURVE",
"249 665 OFFCURVE",
"248 680 CURVE",
"8 680 LINE",
"5 665 OFFCURVE",
"3 650 OFFCURVE",
"4 635 CURVE",
"60 626 LINE",
"119 519 OFFCURVE",
"174 427 OFFCURVE",
"274 244 CURVE"
);
},
{
closed = 1;
nodes = (
"356 87 OFFCURVE",
"353 160 OFFCURVE",
"353 227 CURVE SMOOTH",
"353 258 OFFCURVE",
"354 288 OFFCURVE",
"354 313 CURVE",
"267 297 LINE",
"267 164 OFFCURVE",
"267 147 OFFCURVE",
"267 96 CURVE SMOOTH",
"267 73 OFFCURVE",
"280 64 OFFCURVE",
"309 55 CURVE",
"187 45 LINE",
"184 30 OFFCURVE",
"183 15 OFFCURVE",
"184 0 CURVE",
"448 0 LINE",
"452 15 OFFCURVE",
"454 30 OFFCURVE",
"454 45 CURVE",
"371 55 LINE"
);
}
);
width = 616;
}
);
leftKerningGroup = V;
rightKerningGroup = V;
unicode = 0059;
},
{
color = 1;
glyphname = Z;
lastChange = "2017-08-05 17:51:56 +0000";
layers = (
{
anchors = (
{
name = bottom;
position = "{316, 0}";
},
{
name = top;
position = "{316, 680}";
}
);
background = {
paths = (
{
closed = 1;
nodes = (
"394 681 OFFCURVE",
"217 681 OFFCURVE",
"50 688 CURVE",
"49 445 LINE",
"110 437 LINE",
"136 525 LINE",
"189 536 OFFCURVE",
"303 542 OFFCURVE",
"380 540 CURVE",
"354 482 OFFCURVE",
"312 415 OFFCURVE",
"241 312 CURVE SMOOTH",
"118 133 OFFCURVE",
"50 76 OFFCURVE",
"23 65 CURVE",
"44 0 LINE",
"199 5 OFFCURVE",
"417 2 OFFCURVE",
"560 -1 CURVE",
"586 230 LINE",
"517 237 LINE",
"479 145 LINE",
"411 132 OFFCURVE",
"343 129 OFFCURVE",
"234 131 CURVE",
"279 203 OFFCURVE",
"306 244 OFFCURVE",
"391 377 CURVE SMOOTH",
"467 496 OFFCURVE",
"538 600 OFFCURVE",
"571 617 CURVE",
"550 686 LINE"
);
},
{
closed = 1;
nodes = (
"149 301 LINE",
"248 307 OFFCURVE",
"366 307 OFFCURVE",
"467 304 CURVE",
"480 316 LINE",
"485 387 LINE",
"386 384 OFFCURVE",
"268 387 OFFCURVE",
"168 387 CURVE",
"155 375 LINE"
);
}
);
};
guideLines = (
{
angle = 90;
position = "{560, 271}";
}
);
layerId = "11343128-4963-4E5D-BE9C-B74F53B36FA5";
paths = (
{
closed = 1;
nodes = (
"394 681 OFFCURVE",
"217 681 OFFCURVE",
"50 688 CURVE",
"51 494 LINE",
"112 486 LINE",
"138 574 LINE",
"191 585 OFFCURVE",
"287 591 OFFCURVE",
"364 589 CURVE",
"338 531 OFFCURVE",
"273 422 OFFCURVE",
"204 308 CURVE SMOOTH",
"122 173 OFFCURVE",
"47 76 OFFCURVE",
"20 65 CURVE",
"44 0 LINE",
"199 5 OFFCURVE",
"417 2 OFFCURVE",
"560 -1 CURVE",
"583 194 LINE",
"514 201 LINE",
"476 109 LINE",
"408 96 OFFCURVE",
"347 90 OFFCURVE",
"238 92 CURVE",
"271 156 OFFCURVE",
"315 226 OFFCURVE",
"388 359 CURVE SMOOTH",
"454 479 OFFCURVE",
"538 600 OFFCURVE",
"571 617 CURVE",
"550 686 LINE"
);
}
);
width = 603;
},
{
anchors = (
{
name = bottom;
position = "{313, 0}";
},
{
name = top;
position = "{313, 680}";
}
);
guideLines = (
{
angle = 90;
position = "{557, 270}";
}
);
layerId = "0B1F8F77-7348-4C28-A663-EA76351238C4";
paths = (
{
closed = 1;
nodes = (
"465 681 OFFCURVE",
"388 679 OFFCURVE",
"315 679 CURVE SMOOTH",
"228 679 OFFCURVE",
"151 681 OFFCURVE",
"80 685 CURVE",
"78 539 LINE",
"91 534 OFFCURVE",
"105 532 OFFCURVE",
"120 533 CURVE",
"150 617 LINE",
"189 622 OFFCURVE",
"354 626 OFFCURVE",
"435 626 CURVE",
"405 568 OFFCURVE",
"314 423 OFFCURVE",
"240 308 CURVE SMOOTH",
"154 175 OFFCURVE",
"77 53 OFFCURVE",
"50 42 CURVE",
"52 27 OFFCURVE",
"56 13 OFFCURVE",
"64 0 CURVE",
"116 2 OFFCURVE",
"170 2 OFFCURVE",
"226 2 CURVE SMOOTH",
"337 2 OFFCURVE",
"450 1 OFFCURVE",
"546 -1 CURVE",
"564 150 LINE",
"550 154 OFFCURVE",
"533 156 OFFCURVE",
"519 154 CURVE",
"485 73 LINE",
"417 60 OFFCURVE",
"285 55 OFFCURVE",
"173 57 CURVE",
"207 121 OFFCURVE",
"276 228 OFFCURVE",
"358 360 CURVE SMOOTH",
"430 476 OFFCURVE",
"515 620 OFFCURVE",
"552 640 CURVE",
"550 655 OFFCURVE",
"546 670 OFFCURVE",
"538 683 CURVE"
);
}
);
width = 614;
}
);
leftKerningGroup = X;
rightKerningGroup = X;
unicode = 005A;
},
{
glyphname = Z.ss01;
lastChange = "2017-07-22 16:08:56 +0000";
layers = (
{
anchors = (
{
name = bottom;
position = "{285, 0}";
},
{
name = top;
position = "{285, 700}";
}
);
background = {
components = (
{
name = E;
transform = "{-1, 0, 0, -1, 575, 685}";
}
);
};
guideLines = (
{
angle = 90;
position = "{529, 271}";
}
);
layerId = "11343128-4963-4E5D-BE9C-B74F53B36FA5";
paths = (
{
closed = 1;
nodes = (
"391 681 OFFCURVE",
"214 681 OFFCURVE",
"47 688 CURVE",
"46 445 LINE",
"107 437 LINE",
"133 525 LINE",
"186 536 OFFCURVE",
"300 542 OFFCURVE",
"377 540 CURVE",
"351 482 OFFCURVE",
"309 415 OFFCURVE",
"238 312 CURVE SMOOTH",
"115 133 OFFCURVE",
"47 76 OFFCURVE",
"20 65 CURVE",
"41 0 LINE",
"196 5 OFFCURVE",
"414 2 OFFCURVE",
"557 -1 CURVE",
"583 230 LINE",
"514 237 LINE",
"476 145 LINE",
"408 132 OFFCURVE",
"340 129 OFFCURVE",
"231 131 CURVE",
"276 203 OFFCURVE",
"303 244 OFFCURVE",
"388 377 CURVE SMOOTH",
"464 496 OFFCURVE",
"535 600 OFFCURVE",
"568 617 CURVE",
"547 686 LINE"
);
},
{
closed = 1;
nodes = (
"146 301 LINE",
"245 307 OFFCURVE",
"363 307 OFFCURVE",
"464 304 CURVE",
"477 316 LINE",
"482 387 LINE",
"383 384 OFFCURVE",
"265 387 OFFCURVE",
"165 387 CURVE",
"152 375 LINE"
);
}
);
width = 603;
},
{
anchors = (
{
name = bottom;
position = "{313, 0}";
},
{
name = top;
position = "{313, 708}";
}
);
background = {
paths = (
{
closed = 1;
nodes = (
"558 151 LINE",
"508 156 LINE",
"492 124 OFFCURVE",
"477 91 OFFCURVE",
"462 56 CURVE",
"133 48 LINE",
"133 50 LINE",
"163 58 LINE",
"534 620 LINE",
"534 670 LINE",
"73 670 LINE",
"63 660 LINE",
"95 513 LINE",
"145 508 LINE",
"151 532 OFFCURVE",
"157 575 OFFCURVE",
"161 614 CURVE",
"464 622 LINE",
"464 620 LINE",
"434 612 LINE",
"58 50 LINE",
"58 0 LINE",
"534 0 LINE",
"544 10 LINE"
);
}
);
};
guideLines = (
{
angle = 90;
position = "{557, 270}";
}
);
layerId = "0B1F8F77-7348-4C28-A663-EA76351238C4";
paths = (
{
closed = 1;
nodes = (
"469 681 OFFCURVE",
"404 680 OFFCURVE",
"339 680 CURVE SMOOTH",
"254 680 OFFCURVE",
"168 682 OFFCURVE",
"73 685 CURVE",
"73 520 LINE",
"116 514 LINE",
"127 556 OFFCURVE",
"133 571 OFFCURVE",
"141 598 CURVE",
"177 603 OFFCURVE",
"322 605 OFFCURVE",
"400 605 CURVE SMOOTH",
"415 605 OFFCURVE",
"428 605 OFFCURVE",
"437 605 CURVE",
"407 547 OFFCURVE",
"331 423 OFFCURVE",
"260 317 CURVE SMOOTH",
"172 185 OFFCURVE",
"77 53 OFFCURVE",
"50 42 CURVE",
"64 0 LINE",
"116 2 OFFCURVE",
"170 2 OFFCURVE",
"226 2 CURVE SMOOTH",
"337 2 OFFCURVE",
"450 0 OFFCURVE",
"546 0 CURVE",
"562 168 LINE",
"517 172 LINE",
"484 91 LINE",
"416 78 OFFCURVE",
"290 76 OFFCURVE",
"178 76 CURVE",
"212 140 OFFCURVE",
"261 224 OFFCURVE",
"351 357 CURVE SMOOTH",
"427 470 OFFCURVE",
"515 620 OFFCURVE",
"552 640 CURVE",
"538 683 LINE"
);
},
{
closed = 1;
nodes = (
"154 316 LINE",
"203 318 OFFCURVE",
"252 318 OFFCURVE",
"301 318 CURVE SMOOTH",
"350 318 OFFCURVE",
"400 318 OFFCURVE",
"449 316 CURVE",
"458 324 LINE",
"461 373 LINE",
"411 372 OFFCURVE",
"361 372 OFFCURVE",
"312 372 CURVE SMOOTH",
"263 372 OFFCURVE",
"214 372 OFFCURVE",
"166 373 CURVE",
"157 365 LINE"
);
}
);
width = 612;
}
);
leftKerningGroup = X;
leftMetricsKey = Z;
rightKerningGroup = X;
rightMetricsKey = Z;
},
{
glyphname = a;
lastChange = "2017-08-05 11:52:42 +0000";
layers = (
{
anchors = (
{
name = bottom;
position = "{242, 0}";
},
{
name = ogonek;
position = "{430, 10}";
},
{
name = top;
position = "{240, 480}";
}
);
background = {
components = (
{
name = n;
transform = "{1, 0, 0, 1, -68, 0}";
}
);
};
guideLines = (
{
angle = 90;
position = "{49, 179}";
},
{
position = "{153, 21}";
},
{
position = "{171, 71}";
},
{
angle = 98;
position = "{445, 220}";
}
);
layerId = "11343128-4963-4E5D-BE9C-B74F53B36FA5";
paths = (
{
closed = 1;
nodes = (
"76 317 LINE",
"94 317 OFFCURVE",
"139 324 OFFCURVE",
"159 331 CURVE",
"167 385 LINE",
"178 392 OFFCURVE",
"225 395 OFFCURVE",
"250 395 CURVE",
"285 380 OFFCURVE",
"291 351 OFFCURVE",
"290 279 CURVE SMOOTH",
"287 90 OFFCURVE",
"290 40 OFFCURVE",
"308 -1 CURVE",
"369 -7 OFFCURVE",
"454 7 OFFCURVE",
"483 20 CURVE",
"487 77 LINE",
"425 81 LINE",
"424 140 OFFCURVE",
"427 290 OFFCURVE",
"426 362 CURVE SMOOTH",
"425 440 OFFCURVE",
"372 487 OFFCURVE",
"282 489 CURVE SMOOTH",
"194 491 OFFCURVE",
"97 476 OFFCURVE",
"66 460 CURVE"
);
},
{
closed = 1;
nodes = (
"253 105 LINE SMOOTH",
"208 93 OFFCURVE",
"173 91 OFFCURVE",
"165 136 CURVE SMOOTH",
"162 154 OFFCURVE",
"164 176 OFFCURVE",
"170 193 CURVE",
"321 226 LINE",
"322 294 LINE",
"229 274 OFFCURVE",
"179 267 OFFCURVE",
"137 258 CURVE SMOOTH",
"51 240 OFFCURVE",
"25 190 OFFCURVE",
"25 138 CURVE SMOOTH",
"25 57 OFFCURVE",
"76 -9 OFFCURVE",
"154 -7 CURVE",
"340 78 LINE",
"324 124 LINE"
);
}
);
width = 497;
},
{
anchors = (
{
name = bottom;
position = "{219, 0}";
},
{
name = ogonek;
position = "{407, 10}";
},
{
name = top;
position = "{217, 480}";
}
);
background = {
components = (
{
name = n;
transform = "{-1, 0, 0, -1, 512, 483}";
}
);
};
guideLines = (
{
angle = 90;
position = "{26, 179}";
},
{
position = "{146, 20}";
},
{
position = "{165, 58}";
}
);
layerId = "0B1F8F77-7348-4C28-A663-EA76351238C4";
paths = (
{
closed = 1;
nodes = (
"68 349 LINE",
"86 346 OFFCURVE",
"105 347 OFFCURVE",
"125 354 CURVE",
"132 414 LINE",
"156 425 OFFCURVE",
"239 433 OFFCURVE",
"267 433 CURVE",
"308 409 OFFCURVE",
"304 361 OFFCURVE",
"303 303 CURVE SMOOTH",
"302 192 OFFCURVE",
"301 133 OFFCURVE",
"301 98 CURVE SMOOTH",
"301 51 OFFCURVE",
"304 27 OFFCURVE",
"320 -5 CURVE",
"362 -3 OFFCURVE",
"415 5 OFFCURVE",
"458 16 CURVE",
"461 30 OFFCURVE",
"462 44 OFFCURVE",
"461 58 CURVE",
"376 63 LINE",
"376 148 OFFCURVE",
"378 288 OFFCURVE",
"378 359 CURVE SMOOTH",
"378 454 OFFCURVE",
"315 488 OFFCURVE",
"224 488 CURVE SMOOTH",
"170 488 OFFCURVE",
"118 479 OFFCURVE",
"60 461 CURVE"
);
},
{
closed = 1;
nodes = (
"210 75 LINE SMOOTH",
"193 70 OFFCURVE",
"178 66 OFFCURVE",
"164 66 CURVE SMOOTH",
"128 66 OFFCURVE",
"103 87 OFFCURVE",
"103 137 CURVE SMOOTH",
"103 157 OFFCURVE",
"108 179 OFFCURVE",
"120 199 CURVE",
"316 242 LINE",
"318 291 LINE",
"237 274 OFFCURVE",
"171 264 OFFCURVE",
"129 255 CURVE SMOOTH",
"47 237 OFFCURVE",
"25 180 OFFCURVE",
"25 126 CURVE SMOOTH",
"25 61 OFFCURVE",
"60 -9 OFFCURVE",
"152 -7 CURVE",
"338 78 LINE",
"338 116 LINE"
);
}
);
width = 458;
}
);
leftKerningGroup = o;
leftMetricsKey = o;
rightKerningGroup = i;
unicode = 0061;
},
{
glyphname = ae;
lastChange = "2017-07-22 16:08:56 +0000";
layers = (
{
anchors = (
{
name = bottom;
position = "{668, 0}";
},
{
name = ogonek;
position = "{845, 10}";
},
{
name = top;
position = "{668, 480}";
}
);
background = {
components = (
{
name = a;
},
{
name = e;
transform = "{1, 0, 0, 1, 257, 0}";
}
);
};
layerId = "11343128-4963-4E5D-BE9C-B74F53B36FA5";
paths = (
{
closed = 1;
nodes = (
"69 304 LINE",
"87 304 OFFCURVE",
"132 311 OFFCURVE",
"152 318 CURVE",
"159 370 LINE",
"170 377 OFFCURVE",
"218 391 OFFCURVE",
"243 391 CURVE",
"278 376 OFFCURVE",
"284 320 OFFCURVE",
"284 252 CURVE SMOOTH",
"284 63 OFFCURVE",
"379 61 OFFCURVE",
"397 50 CURVE",
"423 78 LINE",
"418 137 OFFCURVE",
"396 310 OFFCURVE",
"397 382 CURVE",
"383 427 OFFCURVE",
"357 482 OFFCURVE",
"268 485 CURVE SMOOTH",
"175 488 OFFCURVE",
"89 461 OFFCURVE",
"58 445 CURVE"
);
},
{
closed = 1;
nodes = (
"288 116 OFFCURVE",
"211 101 OFFCURVE",
"181 97 CURVE",
"157 115 OFFCURVE",
"152 161 OFFCURVE",
"160 190 CURVE",
"199 203 OFFCURVE",
"257 216 OFFCURVE",
"314 227 CURVE",
"315 296 LINE",
"222 275 OFFCURVE",
"176 268 OFFCURVE",
"134 258 CURVE SMOOTH",
"-56 213 OFFCURVE",
"43 -6 OFFCURVE",
"133 -8 CURVE",
"178 3 OFFCURVE",
"281 38 OFFCURVE",
"333 85 CURVE",
"317 133 LINE"
);
},
{
closed = 1;
nodes = (
"401 245 OFFCURVE",
"421 413 OFFCURVE",
"487 417 CURVE",
"450 435 LINE",
"425 406 LINE",
"516 441 OFFCURVE",
"549 349 OFFCURVE",
"548 310 CURVE",
"522 304 OFFCURVE",
"436 292 OFFCURVE",
"386 283 CURVE",
"387 212 LINE",
"679 250 LINE",
"717 399 OFFCURVE",
"604 530 OFFCURVE",
"434 475 CURVE SMOOTH",
"250 416 OFFCURVE",
"241 128 OFFCURVE",
"359 31 CURVE SMOOTH",
"416 -16 OFFCURVE",
"554 -39 OFFCURVE",
"675 38 CURVE",
"665 102 LINE",
"556 64 OFFCURVE",
"477 80 OFFCURVE",
"446 147 CURVE SMOOTH"
);
}
);
width = 681;
},
{
anchors = (
{
name = bottom;
position = "{682, 0}";
},
{
name = ogonek;
position = "{859, 10}";
},
{
name = top;
position = "{682, 480}";
}
);
background = {
components = (
{
name = e;
transform = "{1, 0, 0, 1, 259, 0}";
}
);
};
layerId = "0B1F8F77-7348-4C28-A663-EA76351238C4";
paths = (
{
closed = 1;
nodes = (
"405 103 OFFCURVE",
"379 174 OFFCURVE",
"379 247 CURVE SMOOTH",
"379 337 OFFCURVE",
"418 428 OFFCURVE",
"491 447 CURVE",
"455 460 LINE",
"435 428 LINE",
"450 435 OFFCURVE",
"464 437 OFFCURVE",
"478 437 CURVE SMOOTH",
"547 437 OFFCURVE",
"600 364 OFFCURVE",
"600 327 CURVE",
"574 324 OFFCURVE",
"440 298 OFFCURVE",
"379 285 CURVE",
"374 236 LINE",
"672 281 LINE",
"676 295 OFFCURVE",
"677 309 OFFCURVE",
"677 324 CURVE SMOOTH",
"677 405 OFFCURVE",
"621 487 OFFCURVE",
"518 487 CURVE SMOOTH",
"496 487 OFFCURVE",
"471 484 OFFCURVE",
"445 475 CURVE SMOOTH",
"341 442 OFFCURVE",
"295 338 OFFCURVE",
"295 236 CURVE SMOOTH",
"295 155 OFFCURVE",
"324 76 OFFCURVE",
"376 33 CURVE SMOOTH",
"406 8 OFFCURVE",
"456 -11 OFFCURVE",
"515 -11 CURVE SMOOTH",
"566 -11 OFFCURVE",
"624 4 OFFCURVE",
"681 42 CURVE",
"675 82 LINE",
"636 62 OFFCURVE",
"590 52 OFFCURVE",
"548 52 CURVE SMOOTH",
"514 52 OFFCURVE",
"482 58 OFFCURVE",
"458 72 CURVE SMOOTH"
);
},
{
closed = 1;
nodes = (
"68 341 LINE",
"86 342 OFFCURVE",
"105 344 OFFCURVE",
"125 351 CURVE",
"132 409 LINE",
"156 420 OFFCURVE",
"227 437 OFFCURVE",
"252 437 CURVE",
"294 414 OFFCURVE",
"300 361 OFFCURVE",
"300 303 CURVE SMOOTH",
"300 281 OFFCURVE",
"299 258 OFFCURVE",
"299 235 CURVE SMOOTH",
"299 182 OFFCURVE",
"313 177 OFFCURVE",
"340 124 CURVE",
"344 164 OFFCURVE",
"370 211 OFFCURVE",
"367 363 CURVE SMOOTH",
"365 459 OFFCURVE",
"316 489 OFFCURVE",
"224 489 CURVE SMOOTH",
"170 489 OFFCURVE",
"118 479 OFFCURVE",
"60 461 CURVE"
);
},
{
closed = 1;
nodes = (
"210 75 LINE SMOOTH",
"193 69 OFFCURVE",
"178 66 OFFCURVE",
"164 66 CURVE SMOOTH",
"128 66 OFFCURVE",
"103 87 OFFCURVE",
"103 137 CURVE SMOOTH",
"103 157 OFFCURVE",
"108 179 OFFCURVE",
"120 199 CURVE",
"313 240 LINE",
"315 289 LINE",
"237 273 OFFCURVE",
"171 264 OFFCURVE",
"129 255 CURVE SMOOTH",
"47 237 OFFCURVE",
"25 180 OFFCURVE",
"25 126 CURVE SMOOTH",
"25 61 OFFCURVE",
"61 -9 OFFCURVE",
"160 -5 CURVE",
"366 78 LINE",
"335 116 LINE"
);
}
);
width = 708;
}
);
leftKerningGroup = o;
leftMetricsKey = a;
rightKerningGroup = o;
rightMetricsKey = e;
unicode = 00E6;
},
{
glyphname = c;
lastChange = "2017-08-05 17:57:55 +0000";
layers = (
{
anchors = (
{
name = bottom;
position = "{212, 0}";
},
{
name = top;
position = "{230, 480}";
}
);
background = {
components = (
{
name = e;
transform = "{1, 0, 0, 1, -22, 0}";
}
);
};
guideLines = (
{
position = "{152, 38}";
},
{
position = "{170, 88}";
}
);
layerId = "11343128-4963-4E5D-BE9C-B74F53B36FA5";
paths = (
{
closed = 1;
nodes = (
"209 389 OFFCURVE",
"277 379 OFFCURVE",
"297 373 CURVE",
"300 358 OFFCURVE",
"305 311 OFFCURVE",
"308 305 CURVE",
"322 304 OFFCURVE",
"361 309 OFFCURVE",
"392 320 CURVE",
"393 341 OFFCURVE",
"396 416 OFFCURVE",
"396 447 CURVE",
"367 470 OFFCURVE",
"273 505 OFFCURVE",
"173 469 CURVE SMOOTH",
"3 407 OFFCURVE",
"-14 149 OFFCURVE",
"90 43 CURVE SMOOTH",
"154 -22 OFFCURVE",
"293 -39 OFFCURVE",
"415 36 CURVE",
"405 98 LINE",
"306 67 OFFCURVE",
"205 102 OFFCURVE",
"174 184 CURVE SMOOTH",
"140 273 OFFCURVE",
"151 345 OFFCURVE",
"187 390 CURVE"
);
}
);
width = 424;
},
{
anchors = (
{
name = bottom;
position = "{204, 0}";
},
{
name = top;
position = "{222, 480}";
}
);
background = {
components = (
{
name = e;
transform = "{1, 0, 0, 1, -1, 0}";
}
);
};
guideLines = (
{
position = "{144, 38}";
},
{
position = "{162, 88}";
},
{
angle = -81.9829;
position = "{375, 221}";
}
);
layerId = "0B1F8F77-7348-4C28-A663-EA76351238C4";
paths = (
{
closed = 1;
nodes = (
"212 433 OFFCURVE",
"291 430 OFFCURVE",
"318 409 CURVE",
"321 394 OFFCURVE",
"330 345 OFFCURVE",
"333 339 CURVE",
"350 337 OFFCURVE",
"364 339 OFFCURVE",
"384 346 CURVE",
"385 367 OFFCURVE",
"391 426 OFFCURVE",
"391 452 CURVE",
"371 468 OFFCURVE",
"321 485 OFFCURVE",
"262 485 CURVE SMOOTH",
"118 485 OFFCURVE",
"25 369 OFFCURVE",
"25 222 CURVE SMOOTH",
"25 87 OFFCURVE",
"97 -8 OFFCURVE",
"237 -8 CURVE SMOOTH",
"287 -8 OFFCURVE",
"343 4 OFFCURVE",
"403 39 CURVE",
"404 55 OFFCURVE",
"403 69 OFFCURVE",
"398 83 CURVE",
"309 47 OFFCURVE",
"232 44 OFFCURVE",
"181 75 CURVE SMOOTH",
"134 104 OFFCURVE",
"108 161 OFFCURVE",
"108 248 CURVE SMOOTH",
"108 325 OFFCURVE",
"140 398 OFFCURVE",
"194 433 CURVE"
);
}
);
width = 425;
}
);
leftKerningGroup = o;
leftMetricsKey = o;
rightKerningGroup = z;
unicode = 0063;
},
{
glyphname = eth;
lastChange = "2017-07-22 16:08:43 +0000";
layers = (
{
background = {
components = (
{
name = six;
transform = "{-1, 0, 0, 1, 449, 114}";
}
);
};
layerId = "11343128-4963-4E5D-BE9C-B74F53B36FA5";
paths = (
{
closed = 1;
nodes = (
"233 82 OFFCURVE",
"184 127 OFFCURVE",
"166 191 CURVE SMOOTH",
"144 267 OFFCURVE",
"162 373 OFFCURVE",
"234 394 CURVE",
"201 409 LINE",
"185 378 LINE",
"228 396 OFFCURVE",
"291 387 OFFCURVE",
"316 362 CURVE",
"338 270 OFFCURVE",
"338 117 OFFCURVE",
"246 87 CURVE",
"279 67 LINE",
"299 102 LINE"
);
},
{
closed = 1;
nodes = (
"137 521 LINE",
"156 516 LINE",
"415 680 LINE",
"385 731 LINE",
"366 736 LINE",
"108 575 LINE"
);
},
{
closed = 1;
nodes = (
"16 157 OFFCURVE",
"46 75 OFFCURVE",
"96 34 CURVE SMOOTH",
"138 -1 OFFCURVE",
"210 -18 OFFCURVE",
"277 -4 CURVE SMOOTH",
"393 18 OFFCURVE",
"462 110 OFFCURVE",
"469.099 251.159 CURVE SMOOTH",
"479 551 OFFCURVE",
"304 750 OFFCURVE",
"66 740 CURVE",
"58 731 LINE",
"65 671 LINE",
"200 671 OFFCURVE",
"279 565 OFFCURVE",
"307.653 436.455 CURVE",
"282.46 459.783 OFFCURVE",
"243.379 482.642 OFFCURVE",
"201 482 CURVE",
"63 462 OFFCURVE",
"14 332 OFFCURVE",
"15 237 CURVE SMOOTH"
);
}
);
width = 516;
},
{
anchors = (
{
name = bottom;
position = "{243, 0}";
},
{
name = center;
position = "{243, 240}";
},
{
name = ogonek;
position = "{437, 10}";
},
{
name = top;
position = "{243, 480}";
},
{
name = topright;
position = "{465, 480}";
}
);
background = {
components = (
{
name = d;
transform = "{1, 0, 0, 1, -10, 1}";
}
);
};
guideLines = (
{
angle = 90;
position = "{46, 565}";
}
);
layerId = "0B1F8F77-7348-4C28-A663-EA76351238C4";
paths = (
{
closed = 1;
nodes = (
"366 439 OFFCURVE",
"285 488 OFFCURVE",
"211 482 CURVE",
"81 458 OFFCURVE",
"30 329 OFFCURVE",
"30 237 CURVE SMOOTH",
"30 157 OFFCURVE",
"56 75 OFFCURVE",
"106 34 CURVE SMOOTH",
"138 7 OFFCURVE",
"182 -9 OFFCURVE",
"231 -9 CURVE SMOOTH",
"246 -9 OFFCURVE",
"262 -7 OFFCURVE",
"278 -4 CURVE SMOOTH",
"411 21 OFFCURVE",
"449 133 OFFCURVE",
"456 248 CURVE SMOOTH",
"460 318 OFFCURVE",
"398 355 OFFCURVE",
"376 413 CURVE SMOOTH"
);
},
{
closed = 1;
nodes = (
"304 45 OFFCURVE",
"291 44 OFFCURVE",
"279 44 CURVE SMOOTH",
"222 44 OFFCURVE",
"163 78 OFFCURVE",
"138 130 CURVE SMOOTH",
"123 162 OFFCURVE",
"116 200 OFFCURVE",
"116 238 CURVE SMOOTH",
"116 334 OFFCURVE",
"159 432 OFFCURVE",
"222 447 CURVE",
"189 462 LINE",
"173 431 LINE",
"182 434 OFFCURVE",
"192 435 OFFCURVE",
"202 435 CURVE SMOOTH",
"266 435 OFFCURVE",
"346 385 OFFCURVE",
"368 354 CURVE",
"372 335 OFFCURVE",
"374 311 OFFCURVE",
"374 285 CURVE SMOOTH",
"374 186 OFFCURVE",
"344 51 OFFCURVE",
"263 34 CURVE",
"296 14 LINE",
"316 49 LINE"
);
},
{
closed = 1;
nodes = (
"456 248 LINE",
"467 548 OFFCURVE",
"287 743 OFFCURVE",
"80 740 CURVE",
"72 731 LINE",
"78 691 LINE",
"245 689 OFFCURVE",
"361 520 OFFCURVE",
"371 343 CURVE"
);
},
{
closed = 1;
nodes = (
"121 528 LINE",
"136 524 LINE",
"398 686 LINE",
"374 727 LINE",
"360 730 LINE",
"101 567 LINE"
);
}
);
width = 486;
}
);
leftKerningGroup = o;
rightKerningGroup = i;
unicode = 00F0;
},
{
glyphname = dcroat;
lastChange = "2017-07-22 17:46:23 +0000";
layers = (
{
components = (
{
name = d;
},
{
name = strokeshortcomb;
transform = "{0.9151, 0, 0, 1, 295, 285}";
}
);
layerId = "11343128-4963-4E5D-BE9C-B74F53B36FA5";
width = 546;
},
{
anchors = (
{
name = _center;
position = "{361, 578}";
}
);
components = (
{
name = d;
}
);
layerId = "0B1F8F77-7348-4C28-A663-EA76351238C4";
paths = (
{
closed = 1;
nodes = (
"513 595 LINE",
"502 603 LINE",
"442 602 OFFCURVE",
"416 601 OFFCURVE",
"393 601 CURVE SMOOTH",
"363 601 OFFCURVE",
"339 602 OFFCURVE",
"257 608 CURVE",
"250 551 LINE",
"260 543 LINE",
"323 544 OFFCURVE",
"350 545 OFFCURVE",
"375 545 CURVE SMOOTH",
"404 545 OFFCURVE",
"430 544 OFFCURVE",
"508 541 CURVE"
);
}
);
width = 521;
}
);
leftKerningGroup = o;
rightKerningGroup = i;
unicode = 0111;
},
{
glyphname = e;
lastChange = "2017-08-05 17:58:19 +0000";
layers = (
{
anchors = (
{
name = bottom;
position = "{234, 0}";
},
{
name = ogonek;
position = "{411, 10}";
},
{
name = top;
position = "{246, 480}";
}
);
background = {
components = (
{
name = o;
transform = "{1, 0, 0, 1, 10, 0}";
}
);
};
guideLines = (
{
angle = 98;
position = "{401, 220}";
}
);
layerId = "11343128-4963-4E5D-BE9C-B74F53B36FA5";
paths = (
{
closed = 1;
nodes = (
"266 41 OFFCURVE",
"155 115 OFFCURVE",
"163 274 CURVE SMOOTH",
"167 352 OFFCURVE",
"199 414 OFFCURVE",
"242 419 CURVE",
"205 433 LINE",
"191 404 LINE",
"308 428 OFFCURVE",
"313 337 OFFCURVE",
"312 298 CURVE",
"286 295 OFFCURVE",
"200 292 OFFCURVE",
"127 293 CURVE",
"128 222 LINE",
"441 229 LINE",
"488 399 OFFCURVE",
"372 538 OFFCURVE",
"192 473 CURVE SMOOTH",
"-31 392 OFFCURVE",
"0 122 OFFCURVE",
"107 35 CURVE SMOOTH",
"175 -20 OFFCURVE",
"317 -37 OFFCURVE",
"438 38 CURVE",
"428 101 LINE"
);
}
);
width = 461;
},
{
anchors = (
{
name = bottom;
position = "{219, 0}";
},
{
name = ogonek;
position = "{396, 10}";
},
{
name = top;
position = "{231, 480}";
}
);
background = {
components = (
{
name = o;
transform = "{1, 0, 0, 1, -14, 0}";
}
);
};
guideLines = (
{
angle = 98;
position = "{283, 256}";
},
{
angle = 98;
position = "{382, 220}";
}
);
layerId = "0B1F8F77-7348-4C28-A663-EA76351238C4";
paths = (
{
closed = 1;
nodes = (
"270 42 OFFCURVE",
"220 54 CURVE SMOOTH",
"146 71 OFFCURVE",
"103 137 OFFCURVE",
"103 248 CURVE SMOOTH",
"103 336 OFFCURVE",
"143 426 OFFCURVE",
"224 444 CURVE",
"191 460 LINE",
"175 429 LINE",
"192 433 OFFCURVE",
"208 436 OFFCURVE",
"223 436 CURVE SMOOTH",
"302 436 OFFCURVE",
"349 378 OFFCURVE",
"349 310 CURVE SMOOTH",
"349 303 OFFCURVE",
"348 295 OFFCURVE",
"347 288 CURVE",
"329 286 OFFCURVE",
"243 284 OFFCURVE",
"173 284 CURVE SMOOTH",
"144 284 OFFCURVE",
"118 284 OFFCURVE",
"100 285 CURVE",
"99 236 LINE",
"415 242 LINE",
"419 264 OFFCURVE",
"422 285 OFFCURVE",
"422 305 CURVE SMOOTH",
"422 418 OFFCURVE",
"362 487 OFFCURVE",
"255 487 CURVE SMOOTH",
"117 487 OFFCURVE",
"25 370 OFFCURVE",
"25 221 CURVE SMOOTH",
"25 84 OFFCURVE",
"96 -12 OFFCURVE",
"239 -12 CURVE SMOOTH",
"294 -12 OFFCURVE",
"356 3 OFFCURVE",
"414 42 CURVE",
"415 57 OFFCURVE",
"413 72 OFFCURVE",
"408 85 CURVE",
"334 52 OFFCURVE"
);
}
);
width = 449;
},
{
anchors = (
{
name = bottom;
position = "{230, 0}";
},
{
name = ogonek;
position = "{407, 10}";
},
{
name = top;
position = "{242, 480}";
}
);
associatedMasterId = "11343128-4963-4E5D-BE9C-B74F53B36FA5";
background = {
components = (
{
name = o;
transform = "{1, 0, 0, 1, 6, 0}";
}
);
};
guideLines = (
{
angle = 98;
position = "{397, 220}";
}
);
layerId = "BDA96BF6-4193-4E65-9F3E-3F22181FBD6B";
name = black;
paths = (
{
closed = 1;
nodes = (
"178 240 OFFCURVE",
"188 357 OFFCURVE",
"221 386 CURVE",
"262 381 OFFCURVE",
"274 341 OFFCURVE",
"273 309 CURVE",
"247 306 OFFCURVE",
"193 304 OFFCURVE",
"132 305 CURVE",
"133 214 LINE",
"445 220 LINE",
"489 393 OFFCURVE",
"372 538 OFFCURVE",
"168 475 CURVE SMOOTH",
"42 436 OFFCURVE",
"-12 280 OFFCURVE",
"18 159 CURVE SMOOTH",
"61 -9 OFFCURVE",
"233 -64 OFFCURVE",
"441 34 CURVE",
"431 121 LINE",
"324 84 OFFCURVE",
"233 90 OFFCURVE",
"205 166 CURVE SMOOTH"
);
}
);
width = 466;
}
);
leftKerningGroup = o;
leftMetricsKey = o;
note = " p ";
rightKerningGroup = o;
unicode = 0065;
},
{
color = 5;
glyphname = f;
lastChange = "2017-08-05 17:58:42 +0000";
layers = (
{
anchors = (
{
name = bottom;
position = "{182, 0}";
},
{
name = top;
position = "{182, 480}";
}
);
background = {
components = (
{
name = t;
transform = "{1, 0, 0, 1, 27, 0}";
}
);
};
layerId = "11343128-4963-4E5D-BE9C-B74F53B36FA5";
paths = (
{
closed = 1;
nodes = (
"26 65 LINE",
"22 0 LINE",
"316 0 LINE",
"321 65 LINE",
"226 75 LINE",
"163 75 LINE"
);
},
{
closed = 1;
nodes = (
"130 654 OFFCURVE",
"101 571 OFFCURVE",
"92 470 CURVE",
"25 467 LINE",
"25 397 LINE",
"89 394 LINE",
"88 277 OFFCURVE",
"84 166 OFFCURVE",
"83 110 CURVE SMOOTH",
"83 82 OFFCURVE",
"126 68 OFFCURVE",
"151 66 CURVE SMOOTH",
"178 64 OFFCURVE",
"194 57 OFFCURVE",
"229 57 CURVE",
"225 135 OFFCURVE",
"225 191 OFFCURVE",
"225 393 CURVE",
"278 391 OFFCURVE",
"334 387 OFFCURVE",
"341 387 CURVE SMOOTH",
"357 387 OFFCURVE",
"355 434 OFFCURVE",
"350 479 CURVE",
"225 473 LINE",
"227 582 OFFCURVE",
"238 623 OFFCURVE",
"273 649 CURVE",
"319 650 OFFCURVE",
"380 622 OFFCURVE",
"413 590 CURVE",
"449 603 LINE",
"454 619 OFFCURVE",
"473 674 OFFCURVE",
"478 708 CURVE",
"442 757 OFFCURVE",
"280 765 OFFCURVE",
"188 697 CURVE SMOOTH"
);
}
);
width = 357;
},
{
anchors = (
{
name = bottom;
position = "{178, 0}";
},
{
name = top;
position = "{178, 480}";
}
);
background = {
components = (
{
name = t;
transform = "{1, 0, 0, 1, 20, 0}";
}
);
};
guideLines = (
{
angle = 98;
position = "{64, 183}";
},
{
angle = 85;
position = "{61, 202}";
}
);
layerId = "0B1F8F77-7348-4C28-A663-EA76351238C4";
paths = (
{
closed = 1;
nodes = (
"44 45 LINE",
"41 30 OFFCURVE",
"39 15 OFFCURVE",
"40 0 CURVE",
"285 0 LINE",
"288 15 OFFCURVE",
"290 31 OFFCURVE",
"289 46 CURVE",
"189 55 LINE",
"159 55 LINE"
);
},
{
closed = 1;
nodes = (
"130 611 OFFCURVE",
"114 554 OFFCURVE",
"110 463 CURVE",
"45 459 LINE",
"43 447 OFFCURVE",
"43 435 OFFCURVE",
"45 422 CURVE",
"109 419 LINE",
"110 294 OFFCURVE",
"111 187 OFFCURVE",
"112 91 CURVE SMOOTH",
"112 64 OFFCURVE",
"149 37 OFFCURVE",
"188 37 CURVE",
"186 84 OFFCURVE",
"186 123 OFFCURVE",
"186 172 CURVE SMOOTH",
"186 231 OFFCURVE",
"186 305 OFFCURVE",
"187 421 CURVE",
"218 420 OFFCURVE",
"284 410 OFFCURVE",
"305 411 CURVE SMOOTH",
"315 412 OFFCURVE",
"319 426 OFFCURVE",
"319 442 CURVE SMOOTH",
"319 452 OFFCURVE",
"318 461 OFFCURVE",
"316 470 CURVE",
"269 468 OFFCURVE",
"206 465 OFFCURVE",
"186 465 CURVE",
"188 574 OFFCURVE",
"196 652 OFFCURVE",
"256 680 CURVE",
"291 681 OFFCURVE",
"356 668 OFFCURVE",
"386 643 CURVE",
"404 648 LINE",
"410 668 OFFCURVE",
"418 697 OFFCURVE",
"421 712 CURVE",
"407 734 OFFCURVE",
"372 746 OFFCURVE",
"331 746 CURVE SMOOTH",
"267 746 OFFCURVE",
"189 717 OFFCURVE",
"151 649 CURVE SMOOTH"
);
}
);
width = 346;
}
);
leftKerningGroup = f;
rightKerningGroup = f;
unicode = 0066;
},
{
color = 5;
glyphname = f.001;
lastChange = "2017-07-22 16:08:43 +0000";
layers = (
{
anchors = (
{
name = bottom;
position = "{202, 0}";
},
{
name = top;
position = "{202, 480}";
}
);
background = {
components = (
{
name = f;
}
);
};
layerId = "11343128-4963-4E5D-BE9C-B74F53B36FA5";
paths = (
{
closed = 1;
nodes = (
"202 395 LINE",
"252 394 OFFCURVE",
"367 385 OFFCURVE",
"376 385 CURVE SMOOTH",
"387 385 OFFCURVE",
"385 424 OFFCURVE",
"377 479 CURVE",
"341 477 OFFCURVE",
"261 474 OFFCURVE",
"244 473 CURVE",
"113 492 LINE",
"112 471 OFFCURVE",
"93 469 OFFCURVE",
"63 467 CURVE SMOOTH",
"46 466 LINE",
"46 397 LINE",
"50 397 OFFCURVE",
"104 397 OFFCURVE",
"119 397 CURVE"
);
},
{
closed = 1;
nodes = (
"45 65 LINE",
"42 0 LINE",
"336 0 LINE",
"340 65 LINE",
"246 75 LINE",
"183 75 LINE"
);
},
{
closed = 1;
nodes = (
"109 296 OFFCURVE",
"104 170 OFFCURVE",
"103 110 CURVE SMOOTH",
"103 82 OFFCURVE",
"146 68 OFFCURVE",
"171 66 CURVE SMOOTH",
"198 64 OFFCURVE",
"214 57 OFFCURVE",
"249 57 CURVE",
"245 135 OFFCURVE",
"245 191 OFFCURVE",
"245 394 CURVE",
"242 564 OFFCURVE",
"255 617 OFFCURVE",
"297 649 CURVE",
"320 649 OFFCURVE",
"354 641 OFFCURVE",
"374 632 CURVE",
"398 637 LINE",
"405 663 OFFCURVE",
"415 715 OFFCURVE",
"419 741 CURVE",
"387 751 OFFCURVE",
"296 758 OFFCURVE",
"212 697 CURVE SMOOTH",
"142 646 OFFCURVE",
"109 559 OFFCURVE",
"109 421 CURVE SMOOTH"
);
}
);
width = 419;
},
{
anchors = (
{
name = bottom;
position = "{178, 0}";
},
{
name = top;
position = "{178, 480}";
}
);
background = {
components = (
{
name = f;
}
);
};
guideLines = (
{
angle = 98;
position = "{64, 183}";
},
{
angle = 85;
position = "{61, 202}";
}
);
layerId = "0B1F8F77-7348-4C28-A663-EA76351238C4";
paths = (
{
closed = 1;
nodes = (
"44 45 LINE",
"40 0 LINE",
"283 0 LINE",
"287 46 LINE",
"189 55 LINE",
"159 55 LINE"
);
},
{
closed = 1;
nodes = (
"130 606 OFFCURVE",
"115 562 OFFCURVE",
"111 471 CURVE",
"106 461 OFFCURVE",
"91 460 OFFCURVE",
"61 458 CURVE SMOOTH",
"42 457 LINE",
"44 415 LINE",
"110 415 LINE",
"110 290 OFFCURVE",
"106 114 OFFCURVE",
"106 91 CURVE SMOOTH",
"106 64 OFFCURVE",
"155 37 OFFCURVE",
"194 37 CURVE",
"186 117 OFFCURVE",
"186 201 OFFCURVE",
"186 414 CURVE",
"217 413 OFFCURVE",
"286 411 OFFCURVE",
"307 411 CURVE SMOOTH",
"313 411 OFFCURVE",
"316 416 OFFCURVE",
"316 428 CURVE SMOOTH",
"316 438 OFFCURVE",
"314 451 OFFCURVE",
"311 470 CURVE",
"265 468 OFFCURVE",
"204 465 OFFCURVE",
"187 465 CURVE SMOOTH",
"185 465 LINE",
"187 574 OFFCURVE",
"196 639 OFFCURVE",
"247 671 CURVE",
"267 668 OFFCURVE",
"314 662 OFFCURVE",
"338 657 CURVE",
"356 662 LINE",
"361 681 OFFCURVE",
"368 719 OFFCURVE",
"371 738 CURVE",
"367 740 OFFCURVE",
"357 742 OFFCURVE",
"344 742 CURVE SMOOTH",
"293 742 OFFCURVE",
"191 721 OFFCURVE",
"151 645 CURVE SMOOTH"
);
}
);
width = 350;
}
);
leftKerningGroup = f;
leftMetricsKey = f;
rightKerningGroup = f;
},
{
color = 5;
glyphname = f.f;
lastChange = "2017-07-22 16:08:43 +0000";
layers = (
{
anchors = (
{
name = bottom;
position = "{184, 0}";
},
{
name = top;
position = "{184, 480}";
}
);
background = {
components = (
{
name = f;
transform = "{1, 0, 0, 1, -19, 0}";
}
);
};
layerId = "11343128-4963-4E5D-BE9C-B74F53B36FA5";
paths = (
{
closed = 1;
nodes = (
"184 395 LINE",
"234 394 OFFCURVE",
"448 390 OFFCURVE",
"457 390 CURVE SMOOTH",
"468 390 OFFCURVE",
"466 423 OFFCURVE",
"458 478 CURVE",
"422 476 OFFCURVE",
"243 474 OFFCURVE",
"226 473 CURVE",
"95 492 LINE",
"94 471 OFFCURVE",
"72 466 OFFCURVE",
"41 467 CURVE",
"29 456 LINE",
"29 397 LINE",
"33 397 OFFCURVE",
"86 397 OFFCURVE",
"101 397 CURVE"
);
},
{
closed = 1;
nodes = (
"28 65 LINE",
"25 0 LINE",
"318 0 LINE",
"322 65 LINE",
"228 75 LINE",
"165 75 LINE"
);
},
{
closed = 1;
nodes = (
"91 296 OFFCURVE",
"86 170 OFFCURVE",
"85 110 CURVE SMOOTH",
"85 82 OFFCURVE",
"128 68 OFFCURVE",
"153 66 CURVE SMOOTH",
"180 64 OFFCURVE",
"196 57 OFFCURVE",
"231 57 CURVE",
"227 135 OFFCURVE",
"227 191 OFFCURVE",
"227 394 CURVE",
"224 542 OFFCURVE",
"230 604 OFFCURVE",
"272 636 CURVE",
"340 642 OFFCURVE",
"421 610 OFFCURVE",
"445 564 CURVE",
"480 571 OFFCURVE",
"518 617 OFFCURVE",
"539 656 CURVE",
"515 715 OFFCURVE",
"297 780 OFFCURVE",
"181 678 CURVE SMOOTH",
"115 620 OFFCURVE",
"91 537 OFFCURVE",
"91 421 CURVE SMOOTH"
);
}
);
width = 316;
},
{
anchors = (
{
name = bottom;
position = "{164, 0}";
},
{
name = top;
position = "{164, 480}";
}
);
background = {
components = (
{
name = f;
transform = "{1, 0, 0, 1, 2, 0}";
}
);
};
layerId = "0B1F8F77-7348-4C28-A663-EA76351238C4";
paths = (
{
closed = 1;
nodes = (
"44 45 LINE",
"40 0 LINE",
"276 0 LINE",
"280 46 LINE",
"189 55 LINE",
"159 55 LINE"
);
},
{
closed = 1;
nodes = (
"186 466 LINE",
"189 569 OFFCURVE",
"200 634 OFFCURVE",
"259 662 CURVE",
"268 664 OFFCURVE",
"278 664 OFFCURVE",
"287 664 CURVE SMOOTH",
"346 664 OFFCURVE",
"410 634 OFFCURVE",
"443 582 CURVE",
"488 668 LINE",
"435 707 OFFCURVE",
"379 725 OFFCURVE",
"327 725 CURVE SMOOTH",
"271 725 OFFCURVE",
"219 704 OFFCURVE",
"181 665 CURVE SMOOTH",
"139 623 OFFCURVE",
"114 557 OFFCURVE",
"114 480 CURVE SMOOTH",
"114 464 OFFCURVE",
"107 458 OFFCURVE",
"53 458 CURVE",
"45 447 LINE",
"45 415 LINE",
"111 415 LINE",
"111 290 OFFCURVE",
"107 114 OFFCURVE",
"107 91 CURVE SMOOTH",
"107 64 OFFCURVE",
"153 37 OFFCURVE",
"192 37 CURVE",
"187 99 OFFCURVE",
"186 164 OFFCURVE",
"186 290 CURVE SMOOTH",
"186 326 OFFCURVE",
"186 367 OFFCURVE",
"186 414 CURVE",
"228 413 OFFCURVE",
"426 411 OFFCURVE",
"447 411 CURVE SMOOTH",
"453 411 OFFCURVE",
"456 416 OFFCURVE",
"456 428 CURVE SMOOTH",
"456 438 OFFCURVE",
"454 451 OFFCURVE",
"451 470 CURVE",
"405 468 OFFCURVE",
"204 465 OFFCURVE",
"187 465 CURVE"
);
}
);
width = 297;
}
);
leftMetricsKey = f;
},
{
color = 5;
glyphname = f.l;
lastChange = "2017-07-22 16:08:43 +0000";
layers = (
{
anchors = (
{
name = bottom;
position = "{186, 0}";
},
{
name = top;
position = "{186, 480}";
}
);
background = {
components = (
{
name = f;
transform = "{1, 0, 0, 1, -17, 0}";
}
);
};
layerId = "11343128-4963-4E5D-BE9C-B74F53B36FA5";
paths = (
{
closed = 1;
nodes = (
"186 395 LINE",
"236 394 OFFCURVE",
"351 385 OFFCURVE",
"360 385 CURVE SMOOTH",
"371 385 OFFCURVE",
"369 424 OFFCURVE",
"361 479 CURVE",
"325 477 OFFCURVE",
"245 474 OFFCURVE",
"228 473 CURVE",
"97 492 LINE",
"96 471 OFFCURVE",
"76 469 OFFCURVE",
"46 467 CURVE SMOOTH",
"29 466 LINE",
"29 397 LINE",
"33 397 OFFCURVE",
"88 397 OFFCURVE",
"103 397 CURVE"
);
},
{
closed = 1;
nodes = (
"28 65 LINE",
"25 0 LINE",
"320 0 LINE",
"324 65 LINE",
"230 75 LINE",
"167 75 LINE"
);
},
{
closed = 1;
nodes = (
"93 296 OFFCURVE",
"88 170 OFFCURVE",
"87 110 CURVE SMOOTH",
"87 82 OFFCURVE",
"130 68 OFFCURVE",
"155 66 CURVE SMOOTH",
"182 64 OFFCURVE",
"198 57 OFFCURVE",
"233 57 CURVE",
"229 135 OFFCURVE",
"229 191 OFFCURVE",
"229 394 CURVE",
"226 564 OFFCURVE",
"238 620 OFFCURVE",
"280 652 CURVE",
"326 653 OFFCURVE",
"418 644 OFFCURVE",
"451 612 CURVE",
"487 620 LINE",
"492 636 OFFCURVE",
"511 695 OFFCURVE",
"516 729 CURVE",
"468 765 OFFCURVE",
"292 766 OFFCURVE",
"196 697 CURVE SMOOTH",
"126 647 OFFCURVE",
"93 559 OFFCURVE",
"93 421 CURVE SMOOTH"
);
}
);
width = 340;
},
{
anchors = (
{
name = bottom;
position = "{178, 0}";
},
{
name = top;
position = "{178, 480}";
}
);
layerId = "0B1F8F77-7348-4C28-A663-EA76351238C4";
paths = (
{
closed = 1;
nodes = (
"185 363 LINE",
"185 379 OFFCURVE",
"185 394 OFFCURVE",
"185 408 CURVE SMOOTH",
"185 548 OFFCURVE",
"188 643 OFFCURVE",
"258 676 CURVE",
"271 678 OFFCURVE",
"286 679 OFFCURVE",
"303 679 CURVE SMOOTH",
"352 679 OFFCURVE",
"409 672 OFFCURVE",
"425 662 CURVE",
"437 662 LINE",
"443 682 OFFCURVE",
"499 724 OFFCURVE",
"502 739 CURVE",
"478 746 OFFCURVE",
"448 750 OFFCURVE",
"414 750 CURVE SMOOTH",
"326 750 OFFCURVE",
"219 724 OFFCURVE",
"169 670 CURVE SMOOTH",
"128 623 OFFCURVE",
"112 555 OFFCURVE",
"110 458 CURVE"
);
},
{
closed = 1;
nodes = (
"44 45 LINE",
"40 0 LINE",
"285 0 LINE",
"289 46 LINE",
"189 55 LINE",
"159 55 LINE"
);
},
{
closed = 1;
nodes = (
"120 463 LINE",
"45 459 LINE",
"45 422 LINE",
"109 419 LINE",
"110 294 OFFCURVE",
"111 187 OFFCURVE",
"112 91 CURVE SMOOTH",
"112 64 OFFCURVE",
"149 37 OFFCURVE",
"188 37 CURVE",
"186 84 OFFCURVE",
"186 123 OFFCURVE",
"186 172 CURVE SMOOTH",
"186 231 OFFCURVE",
"186 305 OFFCURVE",
"187 421 CURVE",
"218 420 OFFCURVE",
"284 410 OFFCURVE",
"305 411 CURVE SMOOTH",
"315 412 OFFCURVE",
"319 426 OFFCURVE",
"319 442 CURVE SMOOTH",
"319 452 OFFCURVE",
"318 461 OFFCURVE",
"316 470 CURVE",
"269 468 OFFCURVE",
"206 465 OFFCURVE",
"186 465 CURVE",
"165 521 LINE",
"165 560 LINE"
);
}
);
width = 315;
}
);
leftKerningGroup = f;
leftMetricsKey = f;
rightKerningGroup = g;
},
{
color = 5;
glyphname = f.t;
lastChange = "2017-07-22 16:08:43 +0000";
layers = (
{
anchors = (
{
name = bottom;
position = "{187, 0}";
},
{
name = top;
position = "{187, 480}";
}
);
background = {
components = (
{
name = f;
transform = "{1, 0, 0, 1, -17, 0}";
}
);
};
layerId = "11343128-4963-4E5D-BE9C-B74F53B36FA5";
paths = (
{
closed = 1;
nodes = (
"187 398 LINE",
"237 397 OFFCURVE",
"441 388 OFFCURVE",
"450 388 CURVE SMOOTH",
"461 388 OFFCURVE",
"459 424 OFFCURVE",
"451 479 CURVE",
"415 477 OFFCURVE",
"246 474 OFFCURVE",
"229 473 CURVE",
"98 492 LINE",
"97 471 OFFCURVE",
"70 469 OFFCURVE",
"40 467 CURVE",
"29 456 LINE",
"29 397 LINE",
"33 397 OFFCURVE",
"89 397 OFFCURVE",
"104 397 CURVE"
);
},
{
closed = 1;
nodes = (
"28 65 LINE",
"25 0 LINE",
"321 0 LINE",
"325 65 LINE",
"231 75 LINE",
"168 75 LINE"
);
},
{
closed = 1;
nodes = (
"94 296 OFFCURVE",
"89 170 OFFCURVE",
"88 110 CURVE SMOOTH",
"88 82 OFFCURVE",
"131 68 OFFCURVE",
"156 66 CURVE SMOOTH",
"183 64 OFFCURVE",
"199 57 OFFCURVE",
"234 57 CURVE",
"230 135 OFFCURVE",
"230 191 OFFCURVE",
"230 394 CURVE",
"227 564 OFFCURVE",
"240 617 OFFCURVE",
"282 649 CURVE",
"328 650 OFFCURVE",
"389 622 OFFCURVE",
"422 590 CURVE",
"458 603 LINE",
"463 619 OFFCURVE",
"482 674 OFFCURVE",
"487 708 CURVE",
"451 757 OFFCURVE",
"293 766 OFFCURVE",
"197 697 CURVE SMOOTH",
"127 647 OFFCURVE",
"94 559 OFFCURVE",
"94 421 CURVE SMOOTH"
);
}
);
width = 350;
},
{
anchors = (
{
name = bottom;
position = "{153, 0}";
},
{
name = top;
position = "{153, 480}";
}
);
background = {
components = (
{
name = f;
}
);
};
layerId = "0B1F8F77-7348-4C28-A663-EA76351238C4";
paths = (
{
closed = 1;
nodes = (
"44 45 LINE",
"40 0 LINE",
"283 0 LINE",
"287 46 LINE",
"189 55 LINE",
"159 55 LINE"
);
},
{
closed = 1;
nodes = (
"130 607 OFFCURVE",
"115 562 OFFCURVE",
"111 471 CURVE",
"106 461 OFFCURVE",
"91 461 OFFCURVE",
"61 458 CURVE SMOOTH",
"50 457 LINE",
"43 447 LINE",
"44 415 LINE",
"110 415 LINE",
"110 290 OFFCURVE",
"106 114 OFFCURVE",
"106 91 CURVE SMOOTH",
"106 64 OFFCURVE",
"155 37 OFFCURVE",
"194 37 CURVE",
"186 117 OFFCURVE",
"186 201 OFFCURVE",
"186 414 CURVE",
"217 413 OFFCURVE",
"386 411 OFFCURVE",
"407 411 CURVE SMOOTH",
"413 411 OFFCURVE",
"416 416 OFFCURVE",
"416 428 CURVE SMOOTH",
"416 438 OFFCURVE",
"414 451 OFFCURVE",
"411 470 CURVE",
"375 469 OFFCURVE",
"239 464 OFFCURVE",
"185 465 CURVE",
"187 574 OFFCURVE",
"196 648 OFFCURVE",
"256 676 CURVE",
"291 677 OFFCURVE",
"356 664 OFFCURVE",
"386 639 CURVE",
"404 644 LINE",
"410 664 OFFCURVE",
"418 693 OFFCURVE",
"421 708 CURVE",
"407 730 OFFCURVE",
"372 742 OFFCURVE",
"331 742 CURVE SMOOTH",
"267 742 OFFCURVE",
"189 713 OFFCURVE",
"151 645 CURVE SMOOTH"
);
}
);
width = 296;
}
);
leftKerningGroup = f;
leftMetricsKey = f;
rightKerningGroup = t;
},
{
glyphname = g;
lastChange = "2017-08-05 17:59:01 +0000";
layers = (
{
anchors = (
{
name = bottom;
position = "{281, 0}";
},
{
name = top;
position = "{281, 480}";
}
);
background = {
paths = (
{
closed = 1;
nodes = (
"393 433 LINE",
"347 468 OFFCURVE",
"282 483 OFFCURVE",
"224 483 CURVE",
"55 433 OFFCURVE",
"24 170 OFFCURVE",
"139 40 CURVE SMOOTH",
"152 24 OFFCURVE",
"176 13 OFFCURVE",
"189 13 CURVE",
"175 -1 OFFCURVE",
"142 -34 OFFCURVE",
"120 -54 CURVE SMOOTH",
"101 -71 OFFCURVE",
"63 -95 OFFCURVE",
"43 -108 CURVE",
"50 -156 LINE",
"59 -166 OFFCURVE",
"70 -175 OFFCURVE",
"77 -180 CURVE SMOOTH",
"103 -200 OFFCURVE",
"186 -253 OFFCURVE",
"329 -253 CURVE",
"435 -222 OFFCURVE",
"477 -137 OFFCURVE",
"462 70 CURVE SMOOTH",
"458 134 OFFCURVE",
"459 240 OFFCURVE",
"472 352 CURVE SMOOTH",
"476 383 OFFCURVE",
"479 424 OFFCURVE",
"486 456 CURVE",
"438 479 LINE"
);
},
{
closed = 1;
nodes = (
"176 238 OFFCURVE",
"182 371 OFFCURVE",
"247 414 CURVE",
"283 414 OFFCURVE",
"329 380 OFFCURVE",
"356 349 CURVE",
"356 347 LINE",
"358 324 OFFCURVE",
"357 282 OFFCURVE",
"358 238 CURVE",
"343 210 OFFCURVE",
"280 122 OFFCURVE",
"264 106 CURVE",
"255 106 OFFCURVE",
"237 120 OFFCURVE",
"225 143 CURVE SMOOTH"
);
},
{
closed = 1;
nodes = (
"200 -58 OFFCURVE",
"261 -10 OFFCURVE",
"353 116 CURVE",
"360 -112 OFFCURVE",
"337 -163 OFFCURVE",
"323 -186 CURVE",
"296 -177 OFFCURVE",
"205 -137 OFFCURVE",
"169 -102 CURVE"
);
}
);
};
guideLines = (
{
angle = 90;
position = "{73, 121}";
}
);
layerId = "11343128-4963-4E5D-BE9C-B74F53B36FA5";
paths = (
{
closed = 1;
nodes = (
"390 492 OFFCURVE",
"282 492 CURVE SMOOTH",
"160 492 OFFCURVE",
"58 427 OFFCURVE",
"58 301 CURVE SMOOTH",
"58 194 OFFCURVE",
"131 139 OFFCURVE",
"245 139 CURVE SMOOTH",
"367 139 OFFCURVE",
"464 214 OFFCURVE",
"464 330 CURVE SMOOTH",
"464 432 OFFCURVE"
);
},
{
closed = 1;
nodes = (
"242 204 OFFCURVE",
"193 258 OFFCURVE",
"193 333 CURVE SMOOTH",
"193 376 OFFCURVE",
"215 417 OFFCURVE",
"268 420 CURVE",
"202 407 LINE",
"269 429 OFFCURVE",
"325 370 OFFCURVE",
"325 297 CURVE SMOOTH",
"325 253 OFFCURVE",
"301 217 OFFCURVE",
"247 205 CURVE",
"313 219 LINE"
);
},
{
closed = 1;
nodes = (
"145 144 OFFCURVE",
"113 114 OFFCURVE",
"68 78 CURVE",
"72 3 LINE",
"106 -13 OFFCURVE",
"152 -22 OFFCURVE",
"210 -32 CURVE SMOOTH",
"355 -56 OFFCURVE",
"415 -57 OFFCURVE",
"409 -117 CURVE",
"317 -179 OFFCURVE",
"177 -149 OFFCURVE",
"158 -87 CURVE",
"198 -4 LINE",
"163 18 LINE",
"37 -102 LINE",
"20 -182 OFFCURVE",
"83 -250 OFFCURVE",
"198 -257 CURVE SMOOTH",
"353 -266 OFFCURVE",
"503 -187 OFFCURVE",
"503 -56 CURVE SMOOTH",
"503 19 OFFCURVE",
"473 50 OFFCURVE",
"351 66 CURVE SMOOTH",
"260 78 OFFCURVE",
"211 80 OFFCURVE",
"206 97 CURVE SMOOTH",
"200 116 OFFCURVE",
"239 160 OFFCURVE",
"259 185 CURVE",
"196 211 LINE"
);
},
{
closed = 1;
nodes = (
"482 480 OFFCURVE",
"407 471 OFFCURVE",
"361 465 CURVE",
"401 414 LINE",
"439 409 OFFCURVE",
"477 404 OFFCURVE",
"515 399 CURVE",
"516 422 OFFCURVE",
"517 462 OFFCURVE",
"503 485 CURVE"
);
}
);
width = 526;
},
{
anchors = (
{
name = bottom;
position = "{254, 0}";
},
{
name = top;
position = "{254, 480}";
}
);
background = {
paths = (
{
closed = 1;
nodes = (
"110 483 OFFCURVE",
"42 464 OFFCURVE",
"4 447 CURVE",
"3 435 OFFCURVE",
"5 424 OFFCURVE",
"9 412 CURVE",
"38 409 OFFCURVE",
"67 406 OFFCURVE",
"95 397 CURVE",
"95 397 OFFCURVE",
"97 326 OFFCURVE",
"97 258 CURVE SMOOTH",
"97 -121 LINE SMOOTH",
"97 -142 OFFCURVE",
"96 -156 OFFCURVE",
"93 -177 CURVE",
"72 -184 OFFCURVE",
"41 -192 OFFCURVE",
"14 -195 CURVE",
"14 -210 OFFCURVE",
"17 -230 OFFCURVE",
"21 -237 CURVE",
"61 -237 OFFCURVE",
"100 -236 OFFCURVE",
"140 -236 CURVE SMOOTH",
"177 -236 OFFCURVE",
"239 -236 OFFCURVE",
"294 -237 CURVE",
"298 -229 OFFCURVE",
"300 -209 OFFCURVE",
"300 -195 CURVE",
"268 -185 OFFCURVE",
"221 -178 OFFCURVE",
"182 -176 CURVE",
"181 -153 OFFCURVE",
"180 -129 OFFCURVE",
"180 -102 CURVE SMOOTH",
"180 43 LINE",
"221 16 OFFCURVE",
"271 -4 OFFCURVE",
"311 -4 CURVE SMOOTH",
"427 -4 OFFCURVE",
"510 131 OFFCURVE",
"510 254 CURVE SMOOTH",
"510 395 OFFCURVE",
"437 493 OFFCURVE",
"330 493 CURVE SMOOTH",
"269 493 OFFCURVE",
"205 452 OFFCURVE",
"174 425 CURVE",
"170 449 OFFCURVE",
"164 475 OFFCURVE",
"161 486 CURVE"
);
},
{
closed = 1;
nodes = (
"180 258 LINE SMOOTH",
"180 295 OFFCURVE",
"179 344 OFFCURVE",
"178 377 CURVE",
"216 405 OFFCURVE",
"271 427 OFFCURVE",
"303 427 CURVE SMOOTH",
"384 427 OFFCURVE",
"426 312 OFFCURVE",
"426 228 CURVE SMOOTH",
"426 155 OFFCURVE",
"395 95 OFFCURVE",
"372 79 CURVE SMOOTH",
"355 67 OFFCURVE",
"335 60 OFFCURVE",
"314 60 CURVE SMOOTH",
"263 60 OFFCURVE",
"211 95 OFFCURVE",
"180 125 CURVE"
);
}
);
};
guideLines = (
{
angle = 90;
position = "{46, 121}";
},
{
angle = 98;
position = "{257, 220}";
},
{
angle = 90;
position = "{478, 49}";
},
{
angle = 98;
position = "{497, 220}";
}
);
layerId = "0B1F8F77-7348-4C28-A663-EA76351238C4";
paths = (
{
closed = 1;
nodes = (
"436 419 OFFCURVE",
"374 487 OFFCURVE",
"267 487 CURVE SMOOTH",
"146 487 OFFCURVE",
"50 417 OFFCURVE",
"50 302 CURVE SMOOTH",
"50 207 OFFCURVE",
"115 138 OFFCURVE",
"228 138 CURVE SMOOTH",
"347 138 OFFCURVE",
"436 209 OFFCURVE",
"436 323 CURVE SMOOTH"
);
},
{
closed = 1;
nodes = (
"200 437 OFFCURVE",
"208 438 OFFCURVE",
"216 438 CURVE SMOOTH",
"298 438 OFFCURVE",
"359 412 OFFCURVE",
"359 316 CURVE SMOOTH",
"359 252 OFFCURVE",
"315 189 OFFCURVE",
"235 174 CURVE",
"292 186 LINE",
"282 184 OFFCURVE",
"272 183 OFFCURVE",
"262 183 CURVE SMOOTH",
"191 183 OFFCURVE",
"127 231 OFFCURVE",
"127 311 CURVE SMOOTH",
"127 373 OFFCURVE",
"175 433 OFFCURVE",
"249 448 CURVE",
"192 437 LINE"
);
},
{
closed = 1;
nodes = (
"133 131 OFFCURVE",
"103 91 OFFCURVE",
"58 63 CURVE",
"57 49 OFFCURVE",
"59 36 OFFCURVE",
"62 22 CURVE",
"122 1 OFFCURVE",
"191 -8 OFFCURVE",
"275 -22 CURVE SMOOTH",
"368 -37 OFFCURVE",
"434 -45 OFFCURVE",
"419 -116 CURVE",
"379 -163 OFFCURVE",
"308 -186 OFFCURVE",
"243 -186 CURVE SMOOTH",
"181 -186 OFFCURVE",
"124 -166 OFFCURVE",
"102 -119 CURVE",
"123 -68 OFFCURVE",
"180 3 OFFCURVE",
"189 26 CURVE",
"154 23 LINE",
"27 -100 LINE",
"24 -111 OFFCURVE",
"22 -121 OFFCURVE",
"22 -131 CURVE SMOOTH",
"22 -209 OFFCURVE",
"116 -250 OFFCURVE",
"220 -250 CURVE SMOOTH",
"349 -250 OFFCURVE",
"484 -182 OFFCURVE",
"484 -65 CURVE SMOOTH",
"484 12 OFFCURVE",
"421 30 OFFCURVE",
"302 46 CURVE SMOOTH",
"199 60 OFFCURVE",
"165 60 OFFCURVE",
"160 73 CURVE SMOOTH",
"155 86 OFFCURVE",
"203 145 OFFCURVE",
"223 170 CURVE",
"178 188 LINE"
);
},
{
closed = 1;
nodes = (
"338 460 LINE",
"381 423 LINE",
"416 420 OFFCURVE",
"460 415 OFFCURVE",
"499 413 CURVE",
"498 440 OFFCURVE",
"495 461 OFFCURVE",
"490 479 CURVE"
);
}
);
width = 499;
}
);
leftKerningGroup = o;
note = "this one too";
rightKerningGroup = g;
unicode = 0067;
},
{
glyphname = idotless;
lastChange = "2017-08-05 17:40:09 +0000";
layers = (
{
anchors = (
{
name = bottom;
position = "{134, 0}";
},
{
name = ogonek;
position = "{245, 10}";
},
{
name = top;
position = "{130, 503}";
}
);
background = {
components = (
{
name = h;
transform = "{1, 0, 0, 1, -15, -258}";
}
);
};
layerId = "11343128-4963-4E5D-BE9C-B74F53B36FA5";
paths = (
{
closed = 1;
nodes = (
"16 65 LINE",
"11 43 OFFCURVE",
"10 21 OFFCURVE",
"11 0 CURVE",
"265 0 LINE",
"270 22 OFFCURVE",
"271 44 OFFCURVE",
"270 66 CURVE",
"208 76 LINE",
"148 76 LINE"
);
},
{
closed = 1;
nodes = (
"199 68 OFFCURVE",
"200 155 OFFCURVE",
"200 259 CURVE SMOOTH",
"200 343 OFFCURVE",
"201 451 OFFCURVE",
"202 487 CURVE",
"166 491 OFFCURVE",
"76 481 OFFCURVE",
"10 466 CURVE",
"9 446 OFFCURVE",
"11 426 OFFCURVE",
"16 406 CURVE",
"70 400 LINE",
"77 340 OFFCURVE",
"76 272 OFFCURVE",
"76 111 CURVE SMOOTH",
"76 83 OFFCURVE",
"113 69 OFFCURVE",
"134 67 CURVE SMOOTH",
"161 64 OFFCURVE",
"175 45 OFFCURVE",
"210 45 CURVE"
);
}
);
width = 280;
},
{
anchors = (
{
name = bottom;
position = "{160, 0}";
},
{
name = ogonek;
position = "{271, 10}";
},
{
name = top;
position = "{146, 480}";
}
);
background = {
components = (
{
name = n;
transform = "{1, 0, 0, 1, 7, 0}";
}
);
};
guideLines = (
{
position = "{142, 457}";
},
{
position = "{295, 21}";
},
{
position = "{273, 61}";
},
{
position = "{67, 463}";
}
);
layerId = "0B1F8F77-7348-4C28-A663-EA76351238C4";
paths = (
{
closed = 1;
nodes = (
"192 47 OFFCURVE",
"190 98 OFFCURVE",
"190 167 CURVE SMOOTH",
"190 223 OFFCURVE",
"193 421 OFFCURVE",
"194 481 CURVE",
"145 478 OFFCURVE",
"82 473 OFFCURVE",
"33 463 CURVE",
"33 449 OFFCURVE",
"34 434 OFFCURVE",
"38 420 CURVE",
"116 413 LINE",
"116 326 OFFCURVE",
"115 248 OFFCURVE",
"114 92 CURVE SMOOTH",
"114 62 OFFCURVE",
"151 35 OFFCURVE",
"197 35 CURVE"
);
},
{
closed = 1;
nodes = (
"124 53 OFFCURVE",
"80 47 OFFCURVE",
"36 44 CURVE",
"33 28 OFFCURVE",
"31 16 OFFCURVE",
"32 0 CURVE",
"280 0 LINE",
"283 17 OFFCURVE",
"285 28 OFFCURVE",
"284 45 CURVE",
"246 48 OFFCURVE",
"225 53 OFFCURVE",
"187 56 CURVE",
"168 56 LINE"
);
}
);
width = 295;
}
);
leftKerningGroup = i;
rightKerningGroup = i;
unicode = 0131;
},
{
glyphname = j;
lastChange = "2017-07-22 14:12:26 +0000";
layers = (
{
background = {
paths = (
{
closed = 1;
nodes = (
"203 63 OFFCURVE",
"194 130 OFFCURVE",
"198 289 CURVE SMOOTH",
"200 361 OFFCURVE",
"203 450 OFFCURVE",
"194 481 CURVE",
"175 486 OFFCURVE",
"102 490 OFFCURVE",
"12 457 CURVE",
"21 406 LINE",
"36 411 OFFCURVE",
"49 414 OFFCURVE",
"63 415 CURVE",
"99 382 OFFCURVE",
"80 124 OFFCURVE",
"78 101 CURVE SMOOTH",
"75 73 OFFCURVE",
"118 59 OFFCURVE",
"139 57 CURVE SMOOTH",
"166 54 OFFCURVE",
"179 40 OFFCURVE",
"214 40 CURVE"
);
}
);
};
components = (
{
name = jdotless;
},
{
name = dotaccentcomb;
transform = "{1, 0, 0, 1, -134, 0}";
}
);
layerId = "11343128-4963-4E5D-BE9C-B74F53B36FA5";
width = 250;
},
{
background = {
paths = (
{
closed = 1;
nodes = (
"203 63 OFFCURVE",
"194 130 OFFCURVE",
"198 289 CURVE SMOOTH",
"200 361 OFFCURVE",
"203 450 OFFCURVE",
"194 481 CURVE",
"175 486 OFFCURVE",
"102 490 OFFCURVE",
"12 457 CURVE",
"21 406 LINE",
"36 411 OFFCURVE",
"49 414 OFFCURVE",
"63 415 CURVE",
"99 382 OFFCURVE",
"80 124 OFFCURVE",
"78 101 CURVE SMOOTH",
"75 73 OFFCURVE",
"118 59 OFFCURVE",
"139 57 CURVE SMOOTH",
"166 54 OFFCURVE",
"179 40 OFFCURVE",
"214 40 CURVE"
);
}
);
};
components = (
{
name = jdotless;
},
{
name = dotaccentcomb;
transform = "{1, 0, 0, 1, -115, 0}";
}
);
layerId = "0B1F8F77-7348-4C28-A663-EA76351238C4";
width = 271;
}
);
leftKerningGroup = j;
rightKerningGroup = g;
unicode = 006A;
},
{
glyphname = jdotless;
lastChange = "2017-07-22 14:29:29 +0000";
layers = (
{
anchors = (
{
name = bottom;
position = "{120, 0}";
},
{
name = top;
position = "{120, 480}";
}
);
background = {
components = (
{
name = i;
transform = "{1, 0, 0, 1, -21, 0}";
}
);
};
guideLines = (
{
position = "{133, 407}";
},
{
position = "{151, 457}";
}
);
layerId = "11343128-4963-4E5D-BE9C-B74F53B36FA5";
paths = (
{
closed = 1;
nodes = (
"192 483 LINE",
"148 486 OFFCURVE",
"78 478 OFFCURVE",
"4 464 CURVE",
"10 407 LINE",
"64 403 LINE",
"68 354 OFFCURVE",
"68 252 OFFCURVE",
"68 144 CURVE SMOOTH",
"68 -76 OFFCURVE",
"25 -141 OFFCURVE",
"5 -161 CURVE",
"43 -202 LINE",
"140 -144 OFFCURVE",
"196 -28 OFFCURVE",
"198 218 CURVE SMOOTH",
"199 351 OFFCURVE",
"202 444 OFFCURVE",
"201 476 CURVE"
);
}
);
width = 250;
},
{
anchors = (
{
name = bottom;
position = "{139, 0}";
},
{
name = top;
position = "{139, 480}";
}
);
background = {
components = (
{
name = i;
transform = "{1, 0, 0, 1, -5, 0}";
}
);
};
guideLines = (
{
position = "{170, 457}";
},
{
position = "{179, 419}";
},
{
position = "{310, 21}";
},
{
position = "{288, 59}";
},
{
angle = 98;
position = "{82, 220}";
},
{
angle = 90;
position = "{37, 265}";
}
);
layerId = "0B1F8F77-7348-4C28-A663-EA76351238C4";
paths = (
{
closed = 1;
nodes = (
"139 479 OFFCURVE",
"78 473 OFFCURVE",
"34 464 CURVE",
"39 420 LINE",
"108 417 LINE",
"112 368 OFFCURVE",
"112 252 OFFCURVE",
"112 144 CURVE SMOOTH",
"112 -76 OFFCURVE",
"53 -144 OFFCURVE",
"33 -164 CURVE",
"55 -188 LINE",
"142 -132 OFFCURVE",
"187 -36 OFFCURVE",
"187 218 CURVE SMOOTH",
"187 341 OFFCURVE",
"189 422 OFFCURVE",
"191 475 CURVE",
"183 481 LINE"
);
}
);
width = 271;
}
);
leftKerningGroup = j;
rightKerningGroup = g;
unicode = 0237;
},
{
glyphname = k;
lastChange = "2017-08-05 18:27:43 +0000";
layers = (
{
anchors = (
{
name = bottom;
position = "{287, 0}";
},
{
name = top;
position = "{287, 480}";
}
);
background = {
components = (
{
name = n;
transform = "{1, 0, 0, 1, 2, 1}";
}
);
};
components = (
{
name = _part.stem_ascender;
transform = "{1, 0, 0, 1, 26, 0}";
}
);
guideLines = (
{
position = "{125, 666}";
},
{
position = "{143, 716}";
},
{
position = "{166, 21}";
},
{
position = "{184, 71}";
}
);
layerId = "11343128-4963-4E5D-BE9C-B74F53B36FA5";
paths = (
{
closed = 1;
nodes = (
"250 247 LINE",
"311 130 OFFCURVE",
"332 85 OFFCURVE",
"389 0 CURVE",
"456 -6 OFFCURVE",
"532 10 OFFCURVE",
"552 21 CURVE",
"557 78 LINE",
"500 82 LINE",
"441 144 OFFCURVE",
"398 217 OFFCURVE",
"343 299 CURVE"
);
},
{
closed = 1;
nodes = (
"400 356 OFFCURVE",
"348 307 OFFCURVE",
"250 294 CURVE",
"250 247 LINE",
"371 247 OFFCURVE",
"525 353 OFFCURVE",
"521 480 CURVE",
"513 485 LINE",
"450 486 OFFCURVE",
"403 480 OFFCURVE",
"339 467 CURVE",
"352 408 LINE",
"401 404 LINE"
);
}
);
width = 562;
},
{
anchors = (
{
name = bottom;
position = "{283, 0}";
},
{
name = top;
position = "{283, 480}";
}
);
background = {
components = (
{
name = n;
transform = "{1, 0, 0, 1, -11, 0}";
}
);
};
components = (
{
name = _part.stem_ascender;
transform = "{1, 0, 0, 1, 7, 0}";
}
);
guideLines = (
{
position = "{281, 59}";
},
{
position = "{295, 16}";
},
{
position = "{83, 419}";
},
{
position = "{61, 464}";
},
{
position = "{78, 422}";
}
);
layerId = "0B1F8F77-7348-4C28-A663-EA76351238C4";
paths = (
{
closed = 1;
nodes = (
"210 250 LINE",
"299 124 OFFCURVE",
"342 45 OFFCURVE",
"395 -6 CURVE",
"439 -2 OFFCURVE",
"470 2 OFFCURVE",
"514 16 CURVE",
"518 29 OFFCURVE",
"520 45 OFFCURVE",
"519 59 CURVE",
"437 62 LINE",
"390 119 OFFCURVE",
"355 149 OFFCURVE",
"269 268 CURVE"
);
},
{
closed = 1;
nodes = (
"396 357 OFFCURVE",
"290 286 OFFCURVE",
"210 275 CURVE",
"210 250 LINE",
"310 242 OFFCURVE",
"391 292 OFFCURVE",
"437 354 CURVE SMOOTH",
"464 390 OFFCURVE",
"485 439 OFFCURVE",
"477 481 CURVE",
"432 479 OFFCURVE",
"363 472 OFFCURVE",
"314 464 CURVE",
"314 449 OFFCURVE",
"316 435 OFFCURVE",
"320 422 CURVE",
"396 419 LINE"
);
}
);
width = 531;
visible = 1;
}
);
leftKerningGroup = l;
leftMetricsKey = l;
rightKerningGroup = i;
unicode = 006B;
},
{
glyphname = l;
lastChange = "2017-08-05 17:38:36 +0000";
layers = (
{
anchors = (
{
name = bottom;
position = "{159, 0}";
},
{
name = center;
position = "{155, 348}";
},
{
name = top;
position = "{155, 718}";
},
{
name = topright;
position = "{214, 740}";
}
);
background = {
paths = (
{
closed = 1;
nodes = (
"223 63 OFFCURVE",
"217 157 OFFCURVE",
"217 347 CURVE SMOOTH",
"217 509 OFFCURVE",
"225 709 OFFCURVE",
"215 740 CURVE",
"196 745 OFFCURVE",
"121 749 OFFCURVE",
"31 716 CURVE",
"40 666 LINE",
"90 666 LINE",
"100 580 OFFCURVE",
"97 123 OFFCURVE",
"95 101 CURVE SMOOTH",
"92 73 OFFCURVE",
"135 59 OFFCURVE",
"156 57 CURVE SMOOTH",
"183 54 OFFCURVE",
"196 40 OFFCURVE",
"231 40 CURVE"
);
}
);
};
components = (
{
name = _part.stem_ascender;
transform = "{1, 0, 0, 1, 26, 0}";
}
);
guideLines = (
{
position = "{162, 666}";
},
{
position = "{180, 716}";
}
);
layerId = "11343128-4963-4E5D-BE9C-B74F53B36FA5";
width = 325;
},
{
anchors = (
{
name = bottom;
position = "{140, 0}";
},
{
name = center;
position = "{140, 341}";
},
{
name = top;
position = "{140, 710}";
},
{
name = topright;
position = "{196, 740}";
}
);
background = {
paths = (
{
closed = 1;
nodes = (
"204 63 OFFCURVE",
"198 157 OFFCURVE",
"198 347 CURVE SMOOTH",
"198 509 OFFCURVE",
"206 709 OFFCURVE",
"196 740 CURVE",
"177 745 OFFCURVE",
"102 749 OFFCURVE",
"12 716 CURVE",
"21 666 LINE",
"71 666 LINE",
"81 580 OFFCURVE",
"78 123 OFFCURVE",
"76 101 CURVE SMOOTH",
"73 73 OFFCURVE",
"116 59 OFFCURVE",
"137 57 CURVE SMOOTH",
"164 54 OFFCURVE",
"177 40 OFFCURVE",
"212 40 CURVE"
);
}
);
};
components = (
{
name = _part.stem_ascender;
transform = "{1, 0, 0, 1, 7, 0}";
}
);
guideLines = (
{
position = "{143, 666}";
},
{
position = "{161, 716}";
}
);
layerId = "0B1F8F77-7348-4C28-A663-EA76351238C4";
width = 281;
}
);
leftKerningGroup = l;
rightKerningGroup = i;
unicode = 006C;
},
{
glyphname = m;
lastChange = "2017-08-05 18:26:27 +0000";
layers = (
{
anchors = (
{
name = bottom;
position = "{385, 0}";
},
{
name = top;
position = "{385, 480}";
}
);
background = {
components = (
{
name = n;
transform = "{1, 0, 0, 1, 250, 0}";
}
);
};
components = (
{
name = _part.bow;
transform = "{1, 0, 0, 1, 43, 0}";
},
{
name = _part.stem;
transform = "{1, 0, 0, 1, 2, 0}";
}
);
guideLines = (
{
position = "{139, 21}";
},
{
position = "{157, 71}";
}
);
layerId = "11343128-4963-4E5D-BE9C-B74F53B36FA5";
paths = (
{
closed = 1;
nodes = (
"485 111 OFFCURVE",
"483 167 OFFCURVE",
"483 281 CURVE SMOOTH",
"483 318 OFFCURVE",
"483 331 OFFCURVE",
"482 375 CURVE SMOOTH",
"480 453 OFFCURVE",
"412 492 OFFCURVE",
"339 490 CURVE",
"267 465 OFFCURVE",
"222 426 OFFCURVE",
"186 404 CURVE",
"200 360 LINE",
"269 377 LINE SMOOTH",
"323 390 OFFCURVE",
"349 378 OFFCURVE",
"349 324 CURVE SMOOTH",
"349 72 LINE",
"312 66 LINE",
"308 44 OFFCURVE",
"306 22 OFFCURVE",
"308 0 CURVE",
"541 0 LINE",
"545 22 OFFCURVE",
"547 44 OFFCURVE",
"545 66 CURVE",
"491 73 LINE"
);
}
);
width = 829;
},
{
background = {
components = (
{
name = n;
transform = "{1, 0, 0, 1, -16, 0}";
}
);
};
components = (
{
name = _part.stem;
transform = "{1, 0, 0, 1, 14, 0}";
},
{
name = _part.bow;
transform = "{1, 0, 0, 1, 78, 0}";
}
);
guideLines = (
{
position = "{172, 417}";
},
{
position = "{150, 457}";
},
{
position = "{281, 59}";
},
{
angle = 98;
position = "{340, 183}";
},
{
angle = 85;
position = "{538, 202}";
},
{
position = "{295, 16}";
}
);
layerId = "0B1F8F77-7348-4C28-A663-EA76351238C4";
paths = (
{
closed = 1;
nodes = (
"474 85 OFFCURVE",
"473 150 OFFCURVE",
"473 282 CURVE SMOOTH",
"473 384 LINE SMOOTH",
"473 451 OFFCURVE",
"426 483 OFFCURVE",
"362 483 CURVE SMOOTH",
"350 483 OFFCURVE",
"339 482 OFFCURVE",
"327 480 CURVE",
"253 448 OFFCURVE",
"189 419 OFFCURVE",
"158 401 CURVE",
"177 370 LINE",
"224 384 OFFCURVE",
"317 413 OFFCURVE",
"343 413 CURVE SMOOTH",
"374 413 OFFCURVE",
"398 394 OFFCURVE",
"398 339 CURVE SMOOTH",
"397 58 LINE",
"333 46 LINE",
"330 31 OFFCURVE",
"328 15 OFFCURVE",
"329 0 CURVE",
"562 0 LINE",
"565 15 OFFCURVE",
"567 30 OFFCURVE",
"566 45 CURVE",
"481 56 LINE"
);
}
);
width = 858;
}
);
leftKerningGroup = i;
leftMetricsKey = n;
rightKerningGroup = n;
unicode = 006D;
},
{
glyphname = n;
lastChange = "2017-08-05 17:39:15 +0000";
layers = (
{
anchors = (
{
name = bottom;
position = "{276, 0}";
},
{
name = top;
position = "{276, 480}";
}
);
background = {
components = (
{
name = i;
transform = "{1, 0, 0, 1, -14, 0}";
}
);
};
components = (
{
name = _part.stem;
transform = "{1, 0, 0, 1, 2, 0}";
},
{
name = _part.bow;
transform = "{1, 0, 0, 1, -220, 0}";
}
);
guideLines = (
{
position = "{151, 20}";
},
{
position = "{169, 71}";
},
{
position = "{151, 407}";
}
);
layerId = "11343128-4963-4E5D-BE9C-B74F53B36FA5";
paths = (
{
closed = 1;
nodes = (
"91 40 LINE",
"118 0 LINE",
"272 0 LINE",
"276 67 LINE",
"216 77 LINE",
"156 88 LINE"
);
}
);
width = 566;
},
{
anchors = (
{
name = bottom;
position = "{283, 0}";
},
{
name = top;
position = "{262, 480}";
}
);
background = {
components = (
{
name = m;
transform = "{1, 0, 0, 1, -274, 0}";
}
);
};
components = (
{
name = _part.stem;
transform = "{1, 0, 0, 1, 14, 0}";
},
{
name = _part.bow;
transform = "{1, 0, 0, 1, -196, 0}";
}
);
guideLines = (
{
position = "{158, 21}";
},
{
position = "{176, 71}";
},
{
position = "{158, 407}";
}
);
layerId = "0B1F8F77-7348-4C28-A663-EA76351238C4";
width = 579;
}
);
leftKerningGroup = i;
rightKerningGroup = n;
unicode = 006E;
},
{
glyphname = eng;
lastChange = "2017-07-22 16:08:43 +0000";
layers = (
{
anchors = (
{
name = bottom;
position = "{271, 0}";
},
{
name = top;
position = "{271, 480}";
}
);
background = {
paths = (
{
closed = 1;
nodes = (
"368 482 LINE",
"334 482 OFFCURVE",
"239 349 OFFCURVE",
"203 274 CURVE",
"203 292 OFFCURVE",
"207 443 OFFCURVE",
"201 452 CURVE SMOOTH",
"195 461 OFFCURVE",
"61 484 OFFCURVE",
"48 477 CURVE",
"39 434 LINE",
"87 407 LINE",
"90 272 OFFCURVE",
"74 46 OFFCURVE",
"77 34 CURVE SMOOTH",
"80 21 OFFCURVE",
"165 -3 OFFCURVE",
"190 -3 CURVE SMOOTH",
"218 -3 OFFCURVE",
"215 25 OFFCURVE",
"199 133 CURVE",
"250 271 OFFCURVE",
"311 323 OFFCURVE",
"340 359 CURVE",
"338 320 OFFCURVE",
"342 212 OFFCURVE",
"345 82 CURVE SMOOTH",
"348 11 OFFCURVE",
"340 -68 OFFCURVE",
"316 -104 CURVE",
"280 -123 OFFCURVE",
"220 -105 OFFCURVE",
"190 -84 CURVE",
"175 -130 LINE",
"219 -174 OFFCURVE",
"306 -212 OFFCURVE",
"382 -181 CURVE SMOOTH",
"457 -151 OFFCURVE",
"466 -45 OFFCURVE",
"464 27 CURVE SMOOTH",
"461 286 OFFCURVE",
"457 364 OFFCURVE",
"471 444 CURVE"
);
}
);
};
layerId = "11343128-4963-4E5D-BE9C-B74F53B36FA5";
paths = (
{
closed = 1;
nodes = (
"205 63 OFFCURVE",
"196 130 OFFCURVE",
"200 289 CURVE SMOOTH",
"202 361 OFFCURVE",
"205 450 OFFCURVE",
"196 481 CURVE",
"177 486 OFFCURVE",
"107 490 OFFCURVE",
"17 457 CURVE",
"26 407 LINE",
"72 407 LINE",
"100 353 OFFCURVE",
"82 122 OFFCURVE",
"80 101 CURVE SMOOTH",
"77 73 OFFCURVE",
"120 59 OFFCURVE",
"141 57 CURVE SMOOTH",
"168 54 OFFCURVE",
"181 40 OFFCURVE",
"216 40 CURVE"
);
},
{
closed = 1;
nodes = (
"23 55 LINE",
"20 0 LINE",
"266 0 LINE",
"270 56 LINE",
"203 66 LINE",
"153 66 LINE"
);
},
{
closed = 1;
nodes = (
"181 326 LINE",
"240 363 OFFCURVE",
"301 380 OFFCURVE",
"333 382 CURVE",
"349 294 OFFCURVE",
"354 -48 OFFCURVE",
"329 -106 CURVE",
"298 -115 OFFCURVE",
"231 -106 OFFCURVE",
"194 -88 CURVE",
"183 -105 OFFCURVE",
"176 -123 OFFCURVE",
"175 -130 CURVE",
"219 -174 OFFCURVE",
"331 -219 OFFCURVE",
"404 -163 CURVE SMOOTH",
"457 -122 OFFCURVE",
"465 -34 OFFCURVE",
"465 71 CURVE SMOOTH",
"465 143 OFFCURVE",
"463 309 OFFCURVE",
"462 382 CURVE SMOOTH",
"461 431 OFFCURVE",
"442 486 OFFCURVE",
"360 483 CURVE",
"289 462 OFFCURVE",
"190 406 OFFCURVE",
"181 381 CURVE"
);
}
);
width = 542;
},
{
anchors = (
{
name = _connect;
position = "{233, 0}";
},
{
name = bottom;
position = "{271, 0}";
},
{
name = top;
position = "{271, 480}";
}
);
background = {
paths = (
{
closed = 1;
nodes = (
"368 482 LINE",
"334 482 OFFCURVE",
"239 349 OFFCURVE",
"203 274 CURVE",
"203 292 OFFCURVE",
"207 443 OFFCURVE",
"201 452 CURVE SMOOTH",
"195 461 OFFCURVE",
"61 484 OFFCURVE",
"48 477 CURVE",
"39 434 LINE",
"87 407 LINE",
"90 272 OFFCURVE",
"74 46 OFFCURVE",
"77 34 CURVE SMOOTH",
"80 21 OFFCURVE",
"165 -3 OFFCURVE",
"190 -3 CURVE SMOOTH",
"218 -3 OFFCURVE",
"215 25 OFFCURVE",
"199 133 CURVE",
"250 271 OFFCURVE",
"311 323 OFFCURVE",
"340 359 CURVE",
"338 320 OFFCURVE",
"342 212 OFFCURVE",
"345 82 CURVE SMOOTH",
"348 11 OFFCURVE",
"340 -68 OFFCURVE",
"316 -104 CURVE",
"280 -123 OFFCURVE",
"220 -105 OFFCURVE",
"190 -84 CURVE",
"175 -130 LINE",
"219 -174 OFFCURVE",
"306 -212 OFFCURVE",
"382 -181 CURVE SMOOTH",
"457 -151 OFFCURVE",
"466 -45 OFFCURVE",
"464 27 CURVE SMOOTH",
"461 286 OFFCURVE",
"457 364 OFFCURVE",
"471 444 CURVE"
);
}
);
};
components = (
{
name = _part.stem;
transform = "{1, 0, 0, 1, 16, 0}";
}
);
layerId = "0B1F8F77-7348-4C28-A663-EA76351238C4";
paths = (
{
closed = 1;
nodes = (
"181 369 LINE",
"243 387 OFFCURVE",
"294 401 OFFCURVE",
"341 414 CURVE",
"373 414 OFFCURVE",
"389 399 OFFCURVE",
"389 348 CURVE SMOOTH",
"389 347 OFFCURVE",
"388 -19 OFFCURVE",
"388 -18 CURVE SMOOTH",
"388 -89 OFFCURVE",
"349 -110 OFFCURVE",
"304 -110 CURVE SMOOTH",
"279 -110 OFFCURVE",
"252 -104 OFFCURVE",
"229 -95 CURVE",
"220 -151 LINE",
"256 -166 OFFCURVE",
"290 -173 OFFCURVE",
"321 -173 CURVE SMOOTH",
"408 -173 OFFCURVE",
"469 -117 OFFCURVE",
"469 -31 CURVE",
"469 105 OFFCURVE",
"469 290 OFFCURVE",
"469 369 CURVE SMOOTH",
"469 454 OFFCURVE",
"430 484 OFFCURVE",
"351 484 CURVE",
"287 454 OFFCURVE",
"212 422 OFFCURVE",
"180 406 CURVE"
);
}
);
width = 559;
}
);
leftKerningGroup = i;
rightKerningGroup = n;
unicode = 014B;
},
{
glyphname = o;
lastChange = "2017-07-22 17:12:39 +0000";
layers = (
{
anchors = (
{
name = bottom;
position = "{257, 0}";
},
{
name = center;
position = "{257, 240}";
},
{
name = ogonek;
position = "{451, 10}";
},
{
name = top;
position = "{260, 480}";
},
{
name = topright;
position = "{479, 480}";
}
);
background = {
components = (
{
name = d;
transform = "{1, 0, 0, 1, -10, 0}";
}
);
};
guideLines = (
{
angle = 90;
position = "{291, 329}";
}
);
layerId = "11343128-4963-4E5D-BE9C-B74F53B36FA5";
paths = (
{
closed = 1;
nodes = (
"412 490 OFFCURVE",
"276 490 CURVE SMOOTH",
"128 490 OFFCURVE",
"20 389 OFFCURVE",
"20 237 CURVE SMOOTH",
"20 92 OFFCURVE",
"90 -10 OFFCURVE",
"242 -10 CURVE SMOOTH",
"400 -10 OFFCURVE",
"494 101 OFFCURVE",
"494 255 CURVE SMOOTH",
"494 394 OFFCURVE"
);
},
{
closed = 1;
nodes = (
"297 52 LINE",
"288 76 LINE",
"205 76 OFFCURVE",
"157 161 OFFCURVE",
"157 241 CURVE SMOOTH",
"157 322 OFFCURVE",
"183 403 OFFCURVE",
"252 410 CURVE",
"223 422 LINE",
"222 401 LINE",
"306 401 OFFCURVE",
"356 325 OFFCURVE",
"356 236 CURVE SMOOTH",
"356 159 OFFCURVE",
"335 80 OFFCURVE",
"261 68 CURVE"
);
}
);
width = 514;
},
{
anchors = (
{
name = bottom;
position = "{250, 0}";
},
{
name = center;
position = "{250, 240}";
},
{
name = ogonek;
position = "{444, 10}";
},
{
name = top;
position = "{250, 480}";
},
{
name = topright;
position = "{472, 480}";
}
);
background = {
paths = (
{
closed = 1;
nodes = (
"116 500 OFFCURVE",
"36 405 OFFCURVE",
"36 235 CURVE SMOOTH",
"36 85 OFFCURVE",
"116 -10 OFFCURVE",
"261 -10 CURVE SMOOTH",
"406 -10 OFFCURVE",
"486 85 OFFCURVE",
"486 255 CURVE SMOOTH",
"486 405 OFFCURVE",
"406 500 OFFCURVE",
"261 500 CURVE SMOOTH"
);
},
{
closed = 1;
nodes = (
"367 66 OFFCURVE",
"332 45 OFFCURVE",
"281 45 CURVE SMOOTH",
"190 45 OFFCURVE",
"116 114 OFFCURVE",
"116 245 CURVE SMOOTH",
"116 315 OFFCURVE",
"125 380 OFFCURVE",
"155 424 CURVE",
"155 424 OFFCURVE",
"190 445 OFFCURVE",
"241 445 CURVE SMOOTH",
"332 445 OFFCURVE",
"406 376 OFFCURVE",
"406 245 CURVE SMOOTH",
"406 175 OFFCURVE",
"397 110 OFFCURVE",
"367 66 CURVE"
);
}
);
};
guideLines = (
{
angle = 90;
position = "{250, 334}";
}
);
layerId = "0B1F8F77-7348-4C28-A663-EA76351238C4";
paths = (
{
closed = 1;
nodes = (
"475 391 OFFCURVE",
"389 488 OFFCURVE",
"261 488 CURVE SMOOTH",
"116 488 OFFCURVE",
"25 392 OFFCURVE",
"25 237 CURVE SMOOTH",
"25 90 OFFCURVE",
"109 -9 OFFCURVE",
"238 -9 CURVE SMOOTH",
"389 -9 OFFCURVE",
"475 97 OFFCURVE",
"475 258 CURVE SMOOTH"
);
},
{
closed = 1;
nodes = (
"311 44 OFFCURVE",
"293 41 OFFCURVE",
"277 41 CURVE SMOOTH",
"171 41 OFFCURVE",
"106 141 OFFCURVE",
"106 262 CURVE SMOOTH",
"106 357 OFFCURVE",
"157 429 OFFCURVE",
"225 444 CURVE",
"192 464 LINE",
"174 430 LINE",
"192 435 OFFCURVE",
"210 438 OFFCURVE",
"227 438 CURVE SMOOTH",
"327 438 OFFCURVE",
"393 345 OFFCURVE",
"393 216 CURVE SMOOTH",
"393 125 OFFCURVE",
"349 54 OFFCURVE",
"272 34 CURVE",
"310 15 LINE",
"329 49 LINE"
);
}
);
width = 500;
}
);
leftKerningGroup = o;
rightKerningGroup = o;
unicode = 006F;
},
{
glyphname = p;
lastChange = "2017-08-05 12:12:50 +0000";
layers = (
{
anchors = (
{
name = bottom;
position = "{271, 0}";
},
{
name = top;
position = "{271, 480}";
}
);
background = {
components = (
{
name = n;
transform = "{1, 0, 0, 1, -6, 0}";
}
);
};
components = (
{
name = _part.bowl;
transform = "{1, 0, 0, 1, 39, 0}";
}
);
guideLines = (
{
position = "{161, 407}";
},
{
position = "{179, 457}";
}
);
layerId = "11343128-4963-4E5D-BE9C-B74F53B36FA5";
paths = (
{
closed = 1;
nodes = (
"30 -165 LINE",
"27 -230 LINE",
"286 -230 LINE",
"290 -164 LINE",
"223 -154 LINE",
"166 -154 LINE"
);
},
{
closed = 1;
nodes = (
"223 -119 OFFCURVE",
"224 -84 OFFCURVE",
"224 97 CURVE SMOOTH",
"224 233 OFFCURVE",
"224 326 OFFCURVE",
"223 388 CURVE",
"223 394 OFFCURVE",
"212 400 OFFCURVE",
"212 406 CURVE",
"210 430 OFFCURVE",
"208 453 OFFCURVE",
"205 475 CURVE",
"195 483 LINE",
"158 486 OFFCURVE",
"75 476 OFFCURVE",
"21 464 CURVE",
"27 404 LINE",
"81 400 LINE",
"90 319 OFFCURVE",
"87 305 OFFCURVE",
"87 -119 CURVE SMOOTH",
"87 -147 OFFCURVE",
"132 -161 OFFCURVE",
"153 -163 CURVE SMOOTH",
"180 -166 OFFCURVE",
"194 -174 OFFCURVE",
"229 -174 CURVE"
);
}
);
width = 556;
},
{
anchors = (
{
name = bottom;
position = "{265, 0}";
},
{
name = top;
position = "{265, 480}";
}
);
background = {
components = (
{
name = _part.stem;
transform = "{1, 0, 0, 1, 13, 0}";
}
);
};
components = (
{
name = _part.bowl;
transform = "{1, 0, 0, 1, 30, 0}";
}
);
guideLines = (
{
position = "{167, 417}";
},
{
angle = 180;
position = "{145, 457}";
},
{
position = "{298, 21}";
},
{
position = "{276, 61}";
}
);
layerId = "0B1F8F77-7348-4C28-A663-EA76351238C4";
paths = (
{
closed = 1;
nodes = (
"184 -175 OFFCURVE",
"180 -105 OFFCURVE",
"180 -24 CURVE SMOOTH",
"180 13 OFFCURVE",
"181 52 OFFCURVE",
"183 89 CURVE",
"183 189 OFFCURVE",
"184 305 OFFCURVE",
"184 385 CURVE",
"178 397 LINE",
"180 440 OFFCURVE",
"180 456 OFFCURVE",
"182 482 CURVE",
"159 482 OFFCURVE",
"61 473 OFFCURVE",
"26 463 CURVE",
"26 449 OFFCURVE",
"27 435 OFFCURVE",
"31 421 CURVE",
"109 413 LINE",
"108 208 LINE",
"108 134 OFFCURVE",
"107 25 OFFCURVE",
"107 -136 CURVE SMOOTH",
"107 -158 OFFCURVE",
"145 -191 OFFCURVE",
"189 -191 CURVE"
);
},
{
closed = 1;
nodes = (
"116 -173 OFFCURVE",
"72 -179 OFFCURVE",
"28 -182 CURVE",
"25 -198 OFFCURVE",
"23 -215 OFFCURVE",
"24 -231 CURVE",
"69 -231 OFFCURVE",
"113 -229 OFFCURVE",
"158 -229 CURVE SMOOTH",
"202 -229 OFFCURVE",
"246 -231 OFFCURVE",
"289 -231 CURVE",
"292 -214 OFFCURVE",
"294 -198 OFFCURVE",
"293 -181 CURVE",
"255 -178 OFFCURVE",
"217 -173 OFFCURVE",
"179 -170 CURVE",
"160 -170 LINE"
);
}
);
width = 545;
}
);
rightKerningGroup = o;
rightMetricsKey = o;
unicode = 0070;
},
{
glyphname = thorn;
lastChange = "2017-07-22 16:08:56 +0000";
layers = (
{
anchors = (
{
name = bottom;
position = "{241, 0}";
},
{
name = top;
position = "{241, 480}";
}
);
components = (
{
name = _part.bowl;
transform = "{1, 0, 0, 1, 24, 0}";
}
);
guideLines = (
{
position = "{273, 742}";
}
);
layerId = "11343128-4963-4E5D-BE9C-B74F53B36FA5";
paths = (
{
closed = 1;
nodes = (
"232 -139 OFFCURVE",
"233 -104 OFFCURVE",
"233 97 CURVE SMOOTH",
"233 506 OFFCURVE",
"232 619 OFFCURVE",
"231 664 CURVE SMOOTH",
"230 695 OFFCURVE",
"227 726 OFFCURVE",
"223 738 CURVE",
"204 743 OFFCURVE",
"121 754 OFFCURVE",
"34 717 CURVE",
"43 661 LINE",
"90 661 LINE",
"99 580 OFFCURVE",
"97 500 OFFCURVE",
"96 -139 CURVE SMOOTH",
"96 -167 OFFCURVE",
"141 -181 OFFCURVE",
"162 -183 CURVE SMOOTH",
"189 -186 OFFCURVE",
"203 -194 OFFCURVE",
"238 -194 CURVE"
);
},
{
closed = 1;
nodes = (
"39 -185 LINE",
"36 -250 LINE",
"295 -250 LINE",
"299 -184 LINE",
"232 -174 LINE",
"175 -174 LINE"
);
}
);
width = 541;
},
{
anchors = (
{
name = bottom;
position = "{252, 0}";
},
{
name = top;
position = "{252, 480}";
}
);
components = (
{
name = _part.bowl;
transform = "{1, 0, 0, 1, 12, 0}";
}
);
layerId = "0B1F8F77-7348-4C28-A663-EA76351238C4";
paths = (
{
closed = 1;
nodes = (
"183 -131 OFFCURVE",
"183 -86 OFFCURVE",
"183 227 CURVE SMOOTH",
"183 417 OFFCURVE",
"185 552 OFFCURVE",
"191 741 CURVE",
"145 741 OFFCURVE",
"73 732 OFFCURVE",
"28 723 CURVE",
"33 681 LINE",
"100 677 LINE",
"108 582 OFFCURVE",
"109 368 OFFCURVE",
"109 58 CURVE SMOOTH",
"109 -4 OFFCURVE",
"109 -69 OFFCURVE",
"109 -139 CURVE SMOOTH",
"109 -161 OFFCURVE",
"141 -189 OFFCURVE",
"185 -189 CURVE"
);
},
{
closed = 1;
nodes = (
"27 -185 LINE",
"24 -230 LINE",
"273 -230 LINE",
"277 -184 LINE",
"182 -175 LINE",
"161 -175 LINE"
);
}
);
width = 527;
}
);
leftKerningGroup = l;
leftMetricsKey = l;
rightKerningGroup = o;
rightMetricsKey = o;
unicode = 00FE;
},
{
glyphname = r;
lastChange = "2017-08-05 18:00:14 +0000";
layers = (
{
anchors = (
{
name = bottom;
position = "{205, 0}";
},
{
name = top;
position = "{205, 480}";
}
);
background = {
components = (
{
name = n;
transform = "{1, 0, 0, 1, 4, 0}";
}
);
};
components = (
{
name = _part.stem;
transform = "{1, 0, 0, 1, 1, 0}";
piece = {
stemlenght = 100;
};
}
);
guideLines = (
{
position = "{165, 457}";
},
{
angle = 90;
position = "{18, 372}";
}
);
layerId = "11343128-4963-4E5D-BE9C-B74F53B36FA5";
paths = (
{
closed = 1;
nodes = (
"405 487 OFFCURVE",
"355 486 OFFCURVE",
"337 478 CURVE",
"193 379 LINE",
"205 332 LINE",
"230 352 OFFCURVE",
"289 364 OFFCURVE",
"316 363 CURVE",
"330 297 LINE",
"354 295 OFFCURVE",
"393 298 OFFCURVE",
"415 307 CURVE",
"423 475 LINE"
);
},
{
closed = 1;
nodes = (
"171 0 LINE",
"306 0 LINE",
"309 66 LINE",
"198 77 LINE"
);
}
);
width = 436;
},
{
anchors = (
{
name = bottom;
position = "{200, 0}";
},
{
name = top;
position = "{200, 480}";
}
);
background = {
components = (
{
name = n;
transform = "{1, 0, 0, 1, 1, 0}";
}
);
};
components = (
{
name = _part.stem;
transform = "{1, 0, 0, 1, 12, 0}";
piece = {
cutheight = -100;
};
}
);
guideLines = (
{
position = "{134, 341}";
},
{
position = "{120, 457}";
},
{
position = "{251, 61}";
}
);
layerId = "0B1F8F77-7348-4C28-A663-EA76351238C4";
paths = (
{
closed = 1;
nodes = (
"363 485 OFFCURVE",
"333 484 OFFCURVE",
"302 478 CURVE",
"164 374 LINE",
"166 338 LINE",
"217 366 OFFCURVE",
"265 389 OFFCURVE",
"308 404 CURVE",
"321 327 LINE",
"338 326 OFFCURVE",
"356 327 OFFCURVE",
"374 334 CURVE",
"383 475 LINE"
);
},
{
closed = 1;
nodes = (
"160 0 LINE",
"278 0 LINE",
"281 15 OFFCURVE",
"283 31 OFFCURVE",
"282 46 CURVE",
"187 57 LINE"
);
}
);
width = 410;
}
);
leftKerningGroup = i;
note = "     ";
rightKerningGroup = r;
unicode = 0072;
},
{
glyphname = s;
lastChange = "2017-08-05 18:00:27 +0000";
layers = (
{
anchors = (
{
name = bottom;
position = "{214, 0}";
},
{
name = top;
position = "{214, 480}";
}
);
background = {
paths = (
{
closed = 1;
nodes = (
"196 510 OFFCURVE",
"315 495 OFFCURVE",
"373 441 CURVE",
"375 427 OFFCURVE",
"348 369 OFFCURVE",
"331 336 CURVE",
"295 366 OFFCURVE",
"226 402 OFFCURVE",
"157 409 CURVE",
"121 384 OFFCURVE",
"126 328 OFFCURVE",
"240 286 CURVE SMOOTH",
"299 264 OFFCURVE",
"367 225 OFFCURVE",
"363 131 CURVE SMOOTH",
"359 47 OFFCURVE",
"276 -7 OFFCURVE",
"195 -9 CURVE SMOOTH",
"126 -11 OFFCURVE",
"59 7 OFFCURVE",
"31 29 CURVE",
"35 54 OFFCURVE",
"62 108 OFFCURVE",
"76 134 CURVE",
"113 95 OFFCURVE",
"194 82 OFFCURVE",
"230 79 CURVE",
"262 100 OFFCURVE",
"270 162 OFFCURVE",
"159 203 CURVE SMOOTH",
"88 229 OFFCURVE",
"21 262 OFFCURVE",
"21 355 CURVE SMOOTH",
"21 418 OFFCURVE",
"73 461 OFFCURVE",
"113 478 CURVE SMOOTH"
);
},
{
closed = 1;
nodes = (
"134 55 LINE",
"31 29 LINE",
"39 148 LINE",
"61 154 OFFCURVE",
"81 159 OFFCURVE",
"100 160 CURVE",
"103 137 OFFCURVE",
"107 113 OFFCURVE",
"113 95 CURVE"
);
}
);
};
layerId = "11343128-4963-4E5D-BE9C-B74F53B36FA5";
paths = (
{
closed = 1;
nodes = (
"404 143 CURVE SMOOTH",
"404 214 OFFCURVE",
"357 269 OFFCURVE",
"283 294 CURVE SMOOTH",
"183 328 OFFCURVE",
"154 351 OFFCURVE",
"154 371 CURVE SMOOTH",
"154 380 OFFCURVE",
"160 389 OFFCURVE",
"167 397 CURVE",
"221 398 OFFCURVE",
"308 391 OFFCURVE",
"349 352 CURVE",
"363 378 OFFCURVE",
"376 425 OFFCURVE",
"380 457 CURVE",
"354 476 OFFCURVE",
"300 489 OFFCURVE",
"233 489 CURVE SMOOTH",
"117 489 OFFCURVE",
"30 438 OFFCURVE",
"30 337 CURVE SMOOTH",
"30 252 OFFCURVE",
"97 216 OFFCURVE",
"157 194 CURVE SMOOTH",
"253 159 OFFCURVE",
"284 130 OFFCURVE",
"284 106 CURVE SMOOTH",
"284 97 OFFCURVE",
"280 88 OFFCURVE",
"272 80 CURVE",
"189 80 OFFCURVE",
"129 90 OFFCURVE",
"72 123 CURVE",
"53 90 OFFCURVE",
"49 58 OFFCURVE",
"33 23 CURVE",
"64 0 OFFCURVE",
"135 -12 OFFCURVE",
"209 -12 CURVE SMOOTH",
"324 -12 OFFCURVE",
"404 39 OFFCURVE"
);
},
{
closed = 1;
nodes = (
"286 372 OFFCURVE",
"290 350 OFFCURVE",
"295 327 CURVE",
"315 328 OFFCURVE",
"347 333 OFFCURVE",
"371 339 CURVE",
"380 457 LINE",
"269 422 LINE",
"280 390 LINE"
);
},
{
closed = 1;
nodes = (
"32 119 OFFCURVE",
"31 100 OFFCURVE",
"31 81 CURVE SMOOTH",
"31 62 OFFCURVE",
"32 43 OFFCURVE",
"33 23 CURVE",
"156 48 LINE",
"139 88 LINE",
"123 151 LINE",
"90 148 OFFCURVE",
"45 142 OFFCURVE",
"35 139 CURVE"
);
}
);
width = 434;
},
{
anchors = (
{
name = bottom;
position = "{211, 0}";
},
{
name = top;
position = "{211, 480}";
}
);
guideLines = (
{
angle = 98;
position = "{30, 220}";
},
{
angle = 98;
position = "{354, 183}";
},
{
angle = 85;
position = "{351, 202}";
}
);
layerId = "0B1F8F77-7348-4C28-A663-EA76351238C4";
paths = (
{
closed = 1;
nodes = (
"389 34 OFFCURVE",
"395 131 CURVE SMOOTH",
"399 203 OFFCURVE",
"326 244 OFFCURVE",
"252 271 CURVE SMOOTH",
"147 310 OFFCURVE",
"117 351 OFFCURVE",
"117 384 CURVE SMOOTH",
"117 407 OFFCURVE",
"130 423 OFFCURVE",
"144 432 CURVE",
"162 434 OFFCURVE",
"181 436 OFFCURVE",
"199 436 CURVE SMOOTH",
"252 436 OFFCURVE",
"305 425 OFFCURVE",
"342 398 CURVE",
"356 424 OFFCURVE",
"368 438 OFFCURVE",
"372 460 CURVE",
"345 480 OFFCURVE",
"282 490 OFFCURVE",
"221 490 CURVE SMOOTH",
"119 490 OFFCURVE",
"46 441 OFFCURVE",
"46 353 CURVE SMOOTH",
"46 273 OFFCURVE",
"129 236 OFFCURVE",
"185 216 CURVE SMOOTH",
"289 178 OFFCURVE",
"319 133 OFFCURVE",
"319 98 CURVE SMOOTH",
"319 74 OFFCURVE",
"309 59 OFFCURVE",
"294 48 CURVE",
"276 44 OFFCURVE",
"256 42 OFFCURVE",
"236 42 CURVE SMOOTH",
"172 42 OFFCURVE",
"104 62 OFFCURVE",
"80 87 CURVE",
"62 54 OFFCURVE",
"60 47 OFFCURVE",
"45 22 CURVE",
"74 -1 OFFCURVE",
"142 -12 OFFCURVE",
"211 -12 CURVE SMOOTH",
"319 -12 OFFCURVE"
);
},
{
closed = 1;
nodes = (
"314 346 LINE",
"332 346 OFFCURVE",
"343 347 OFFCURVE",
"364 353 CURVE",
"372 460 LINE",
"270 436 LINE",
"287 433 LINE"
);
},
{
closed = 1;
nodes = (
"47 88 OFFCURVE",
"44 52 OFFCURVE",
"45 22 CURVE",
"139 41 LINE",
"121 54 LINE",
"102 135 LINE",
"83 135 OFFCURVE",
"65 133 OFFCURVE",
"51 128 CURVE"
);
}
);
width = 440;
}
);
leftKerningGroup = o;
rightKerningGroup = o;
unicode = 0073;
},
{
glyphname = germandbls;
lastChange = "2017-07-22 18:08:32 +0000";
layers = (
{
background = {
components = (
{
name = f;
transform = "{1, 0, 0, 1, -1, 0}";
}
);
};
layerId = "11343128-4963-4E5D-BE9C-B74F53B36FA5";
paths = (
{
closed = 1;
nodes = (
"121 472 LINE",
"23 466 LINE",
"22 398 LINE",
"128 393 LINE"
);
},
{
closed = 1;
nodes = (
"598 290 OFFCURVE",
"486 348 OFFCURVE",
"376 399 CURVE",
"585 466 OFFCURVE",
"588 799 OFFCURVE",
"280 740 CURVE SMOOTH",
"161 717 OFFCURVE",
"86 626 OFFCURVE",
"86 480 CURVE SMOOTH",
"86 399 OFFCURVE",
"83 263 OFFCURVE",
"83 105 CURVE SMOOTH",
"83 94 OFFCURVE",
"97 81 OFFCURVE",
"117 73 CURVE",
"26 65 LINE",
"23 0 LINE",
"218 0 LINE",
"217 403 LINE SMOOTH",
"217 453 OFFCURVE",
"218 500 OFFCURVE",
"218 531 CURVE SMOOTH",
"218 581 OFFCURVE",
"244 637 OFFCURVE",
"272 647 CURVE",
"392 669 OFFCURVE",
"456 508 OFFCURVE",
"288 428 CURVE",
"280 414 OFFCURVE",
"277 394 OFFCURVE",
"279 366 CURVE",
"279 333 OFFCURVE",
"323 306 OFFCURVE",
"367 273 CURVE SMOOTH",
"412 239 OFFCURVE",
"457 200 OFFCURVE",
"457 143 CURVE SMOOTH",
"457 80 OFFCURVE",
"388 40 OFFCURVE",
"314 79 CURVE",
"291 16 LINE",
"422 -58 OFFCURVE",
"598 12 OFFCURVE",
"598 162 CURVE SMOOTH"
);
},
{
closed = 1;
nodes = (
"125 0 LINE",
"257 0 LINE",
"261 70 LINE",
"201 79 LINE"
);
}
);
width = 611;
},
{
background = {
anchors = (
{
name = bottom;
position = "{177, 0}";
},
{
name = top;
position = "{177, 480}";
}
);
components = (
{
name = n;
transform = "{1, 0, 0, 1, 2, 0}";
}
);
};
layerId = "0B1F8F77-7348-4C28-A663-EA76351238C4";
paths = (
{
closed = 1;
nodes = (
"136 474 LINE",
"42 460 LINE",
"47 418 LINE",
"118 415 LINE"
);
},
{
closed = 1;
nodes = (
"570 287 OFFCURVE",
"476 340 OFFCURVE",
"358 398 CURVE",
"454 437 OFFCURVE",
"494 507 OFFCURVE",
"494 574 CURVE SMOOTH",
"494 662 OFFCURVE",
"426 744 OFFCURVE",
"326 744 CURVE SMOOTH",
"184 744 OFFCURVE",
"110 626 OFFCURVE",
"110 467 CURVE SMOOTH",
"110 391 OFFCURVE",
"106 245 OFFCURVE",
"106 87 CURVE SMOOTH",
"106 76 OFFCURVE",
"119 61 OFFCURVE",
"136 54 CURVE",
"43 46 LINE",
"40 0 LINE",
"194 0 LINE",
"183 163 OFFCURVE",
"187 224 OFFCURVE",
"187 514 CURVE SMOOTH",
"187 589 OFFCURVE",
"210 654 OFFCURVE",
"253 678 CURVE",
"348 696 OFFCURVE",
"414 652 OFFCURVE",
"414 564 CURVE SMOOTH",
"414 500 OFFCURVE",
"370 430 OFFCURVE",
"293 414 CURVE",
"289 405 OFFCURVE",
"287 397 OFFCURVE",
"287 390 CURVE SMOOTH",
"287 349 OFFCURVE",
"340 319 OFFCURVE",
"390 290 CURVE SMOOTH",
"447 258 OFFCURVE",
"498 217 OFFCURVE",
"498 149 CURVE SMOOTH",
"498 83 OFFCURVE",
"461 46 OFFCURVE",
"391 46 CURVE SMOOTH",
"362 46 OFFCURVE",
"331 53 OFFCURVE",
"304 66 CURVE",
"289 28 LINE",
"325 4 OFFCURVE",
"363 -8 OFFCURVE",
"400 -8 CURVE SMOOTH",
"491 -8 OFFCURVE",
"570 62 OFFCURVE",
"570 168 CURVE SMOOTH"
);
},
{
closed = 1;
nodes = (
"133 0 LINE",
"254 0 LINE",
"258 46 LINE",
"189 55 LINE"
);
}
);
width = 595;
}
);
leftKerningGroup = f;
leftMetricsKey = f;
rightKerningGroup = z;
unicode = 00DF;
},
{
glyphname = t;
lastChange = "2017-08-05 18:17:02 +0000";
layers = (
{
anchors = (
{
name = bottom;
position = "{166, 0}";
},
{
name = center;
position = "{166, 240}";
},
{
name = top;
position = "{166, 480}";
},
{
name = topright;
position = "{307, 480}";
}
);
guideLines = (
{
position = "{150, 21}";
},
{
position = "{168, 71}";
},
{
position = "{150, 407}";
},
{
position = "{168, 457}";
}
);
layerId = "11343128-4963-4E5D-BE9C-B74F53B36FA5";
paths = (
{
closed = 1;
nodes = (
"284 475 OFFCURVE",
"209 474 OFFCURVE",
"192 473 CURVE",
"192 500 OFFCURVE",
"192 541 OFFCURVE",
"192 572 CURVE",
"164 574 OFFCURVE",
"136 567 OFFCURVE",
"120 562 CURVE",
"116 503 OFFCURVE",
"96 468 OFFCURVE",
"10 465 CURVE",
"10 396 LINE",
"61 396 LINE",
"60 349 OFFCURVE",
"61 238 OFFCURVE",
"62 133 CURVE SMOOTH",
"63 77 OFFCURVE",
"80 36 OFFCURVE",
"113 12 CURVE SMOOTH",
"163 -24 OFFCURVE",
"251 -18 OFFCURVE",
"352 34 CURVE",
"343 93 LINE",
"315 85 OFFCURVE",
"285 80 OFFCURVE",
"259 80 CURVE SMOOTH",
"187 80 OFFCURVE",
"186 136 OFFCURVE",
"188 234 CURVE SMOOTH",
"189 280 OFFCURVE",
"192 334 OFFCURVE",
"195 394 CURVE",
"303 387 OFFCURVE",
"328 384 OFFCURVE",
"333 386 CURVE SMOOTH",
"341 389 OFFCURVE",
"338 453 OFFCURVE",
"333 478 CURVE"
);
}
);
width = 360;
},
{
anchors = (
{
name = bottom;
position = "{154, 0}";
},
{
name = center;
position = "{154, 240}";
},
{
name = top;
position = "{154, 480}";
},
{
name = topright;
position = "{295, 480}";
}
);
background = {
components = (
{
name = e;
transform = "{1, 0, 0, 1, -90, 0}";
}
);
};
guideLines = (
{
position = "{162, 22}";
},
{
position = "{156, 457}";
}
);
layerId = "0B1F8F77-7348-4C28-A663-EA76351238C4";
paths = (
{
closed = 1;
nodes = (
"246 466 OFFCURVE",
"179 465 OFFCURVE",
"162 464 CURVE",
"163 491 OFFCURVE",
"163 531 OFFCURVE",
"163 562 CURVE",
"142 560 OFFCURVE",
"125 558 OFFCURVE",
"105 554 CURVE",
"98 493 OFFCURVE",
"85 465 OFFCURVE",
"22 458 CURVE",
"20 446 OFFCURVE",
"19 435 OFFCURVE",
"21 423 CURVE",
"78 420 LINE",
"78 376 OFFCURVE",
"78 285 OFFCURVE",
"78 124 CURVE SMOOTH",
"78 50 OFFCURVE",
"93 -4 OFFCURVE",
"172 -4 CURVE SMOOTH",
"211 -4 OFFCURVE",
"262 12 OFFCURVE",
"320 42 CURVE",
"320 55 OFFCURVE",
"320 72 OFFCURVE",
"314 85 CURVE",
"271 70 OFFCURVE",
"229 60 OFFCURVE",
"205 60 CURVE SMOOTH",
"156 60 OFFCURVE",
"152 83 OFFCURVE",
"152 154 CURVE SMOOTH",
"152 185 OFFCURVE",
"158 365 OFFCURVE",
"160 420 CURVE",
"247 413 OFFCURVE",
"285 410 OFFCURVE",
"290 412 CURVE SMOOTH",
"295 414 OFFCURVE",
"297 426 OFFCURVE",
"297 441 CURVE SMOOTH",
"297 450 OFFCURVE",
"296 460 OFFCURVE",
"295 469 CURVE"
);
}
);
width = 335;
}
);
leftKerningGroup = i;
rightKerningGroup = t;
unicode = 0074;
},
{
glyphname = u;
lastChange = "2017-08-05 18:22:59 +0000";
layers = (
{
anchors = (
{
name = bottom;
position = "{276, 0}";
},
{
name = ogonek;
position = "{491, 10}";
},
{
name = top;
position = "{271, 480}";
},
{
name = topright;
position = "{525, 480}";
}
);
background = {
components = (
{
name = n;
transform = "{1, 0, 0, 1, -21, 0}";
}
);
};
guideLines = (
{
position = "{153, 21}";
},
{
position = "{171, 71}";
},
{
position = "{153, 404}";
},
{
position = "{171, 467}";
},
{
angle = 98;
position = "{319, 183}";
},
{
angle = 85;
position = "{316, 202}";
}
);
layerId = "11343128-4963-4E5D-BE9C-B74F53B36FA5";
paths = (
{
closed = 1;
nodes = (
"491 81 LINE",
"484 123 OFFCURVE",
"483 141 OFFCURVE",
"484 286 CURVE SMOOTH",
"485 382 OFFCURVE",
"486 443 OFFCURVE",
"488 481 CURVE",
"418 485 OFFCURVE",
"361 482 OFFCURVE",
"294 467 CURVE",
"301 405 LINE",
"349 401 LINE",
"356 337 OFFCURVE",
"352 175 OFFCURVE",
"351 116 CURVE SMOOTH",
"350 61 OFFCURVE",
"359 14 OFFCURVE",
"369 -4 CURVE",
"424 -6 OFFCURVE",
"516 7 OFFCURVE",
"540 17 CURVE",
"543 77 LINE"
);
},
{
closed = 1;
nodes = (
"378 141 LINE",
"333 128 OFFCURVE",
"282 113 OFFCURVE",
"254 106 CURVE SMOOTH",
"218 97 OFFCURVE",
"203 111 OFFCURVE",
"203 149 CURVE SMOOTH",
"203 279 OFFCURVE",
"204 427 OFFCURVE",
"207 480 CURVE",
"146 484 OFFCURVE",
"57 478 OFFCURVE",
"10 467 CURVE",
"16 404 LINE",
"60 401 LINE",
"74 343 OFFCURVE",
"67 209 OFFCURVE",
"67 134 CURVE SMOOTH",
"67 85 OFFCURVE",
"68 -7 OFFCURVE",
"201 -7 CURVE",
"250 9 OFFCURVE",
"330 55 OFFCURVE",
"379 89 CURVE"
);
}
);
width = 553;
},
{
anchors = (
{
name = _connect;
position = "{354, 480}";
},
{
name = bottom;
position = "{285, 0}";
},
{
name = ogonek;
position = "{500, 10}";
},
{
name = top;
position = "{273, 480}";
},
{
name = topright;
position = "{534, 480}";
}
);
background = {
components = (
{
name = n;
transform = "{-1, 0, 0, -1, 572, 477}";
}
);
guideLines = (
{
position = "{267, 63}";
},
{
position = "{270, 59}";
},
{
position = "{282, 16}";
}
);
};
guideLines = (
{
position = "{162, 21}";
},
{
position = "{157, 461}";
},
{
position = "{310, 21}";
},
{
position = "{288, 61}";
},
{
position = "{38, 463}";
}
);
layerId = "0B1F8F77-7348-4C28-A663-EA76351238C4";
paths = (
{
closed = 1;
nodes = (
"465 59 LINE",
"461 91 OFFCURVE",
"459 130 OFFCURVE",
"460 181 CURVE SMOOTH",
"461 280 OFFCURVE",
"462 402 OFFCURVE",
"465 484 CURVE",
"416 482 OFFCURVE",
"355 472 OFFCURVE",
"307 463 CURVE",
"306 449 OFFCURVE",
"308 436 OFFCURVE",
"311 422 CURVE",
"378 419 LINE",
"382 387 OFFCURVE",
"383 349 OFFCURVE",
"383 300 CURVE SMOOTH",
"383 251 OFFCURVE",
"382 191 OFFCURVE",
"381 116 CURVE",
"384 65 OFFCURVE",
"386 24 OFFCURVE",
"398 -4 CURVE",
"444 -2 OFFCURVE",
"483 6 OFFCURVE",
"531 16 CURVE",
"534 30 OFFCURVE",
"536 45 OFFCURVE",
"535 59 CURVE"
);
},
{
closed = 1;
nodes = (
"386 123 LINE",
"324 97 OFFCURVE",
"250 67 OFFCURVE",
"218 67 CURVE SMOOTH",
"183 67 OFFCURVE",
"165 90 OFFCURVE",
"165 133 CURVE SMOOTH",
"165 221 OFFCURVE",
"169 329 OFFCURVE",
"174 484 CURVE",
"130 482 OFFCURVE",
"65 472 OFFCURVE",
"22 463 CURVE",
"21 448 OFFCURVE",
"23 435 OFFCURVE",
"26 422 CURVE",
"84 419 LINE",
"91 387 OFFCURVE",
"93 353 OFFCURVE",
"93 298 CURVE SMOOTH",
"93 253 OFFCURVE",
"91 195 OFFCURVE",
"90 112 CURVE SMOOTH",
"89 27 OFFCURVE",
"133 -5 OFFCURVE",
"212 -5 CURVE",
"281 27 OFFCURVE",
"356 63 OFFCURVE",
"387 79 CURVE"
);
}
);
width = 555;
}
);
leftKerningGroup = u;
note = " ";
rightKerningGroup = i;
unicode = 0075;
},
{
glyphname = v;
lastChange = "2017-08-05 18:14:17 +0000";
layers = (
{
anchors = (
{
name = bottom;
position = "{231, 0}";
},
{
name = top;
position = "{231, 480}";
}
);
background = {
components = (
{
name = w;
transform = "{1, 0, 0, 1, -261, 0}";
}
);
};
guideLines = (
{
position = "{124, 21}";
},
{
position = "{142, 71}";
},
{
position = "{124, 405}";
},
{
position = "{142, 463}";
}
);
layerId = "11343128-4963-4E5D-BE9C-B74F53B36FA5";
paths = (
{
closed = 1;
nodes = (
"291 110 OFFCURVE",
"281 115 OFFCURVE",
"235 267 CURVE SMOOTH",
"213 339 OFFCURVE",
"188 450 OFFCURVE",
"174 481 CURVE",
"145 482 OFFCURVE",
"57 479 OFFCURVE",
"-10 463 CURVE",
"-4 405 LINE",
"40 399 LINE",
"79 357 OFFCURVE",
"147 123 OFFCURVE",
"174 -1 CURVE",
"188 -1 OFFCURVE",
"206 -1 OFFCURVE",
"234 -1 CURVE",
"308 87 LINE"
);
},
{
closed = 1;
nodes = (
"369 129 OFFCURVE",
"464 344 OFFCURVE",
"456 480 CURVE",
"393 481 OFFCURVE",
"334 476 OFFCURVE",
"278 463 CURVE",
"287 405 LINE",
"335 398 LINE",
"365 352 OFFCURVE",
"319 156 OFFCURVE",
"209 49 CURVE",
"209 -1 LINE",
"281 0 LINE"
);
}
);
width = 476;
},
{
anchors = (
{
name = bottom;
position = "{183, 0}";
},
{
name = top;
position = "{183, 480}";
}
);
background = {
components = (
{
name = u;
transform = "{1, 0, 0, 1, -51, 0}";
}
);
};
guideLines = (
{
position = "{76, 21}";
},
{
position = "{94, 71}";
},
{
angle = 97.4437;
position = "{-6, 220}";
},
{
position = "{83, 419}";
},
{
position = "{61, 464}";
},
{
position = "{78, 422}";
}
);
layerId = "0B1F8F77-7348-4C28-A663-EA76351238C4";
paths = (
{
closed = 1;
nodes = (
"222 84 OFFCURVE",
"207 115 OFFCURVE",
"163 267 CURVE SMOOTH",
"144 333 OFFCURVE",
"118 444 OFFCURVE",
"104 481 CURVE",
"68 481 OFFCURVE",
"10 472 OFFCURVE",
"-31 464 CURVE",
"-32 452 OFFCURVE",
"-30 434 OFFCURVE",
"-26 422 CURVE",
"23 419 LINE",
"60 375 OFFCURVE",
"138 122 OFFCURVE",
"171 -2 CURVE",
"185 -2 OFFCURVE",
"183 0 OFFCURVE",
"191 0 CURVE",
"214 17 OFFCURVE",
"239 30 OFFCURVE",
"239 61 CURVE"
);
},
{
closed = 1;
nodes = (
"311 124 OFFCURVE",
"434 349 OFFCURVE",
"419 481 CURVE",
"390 481 OFFCURVE",
"310 476 OFFCURVE",
"255 464 CURVE",
"255 452 OFFCURVE",
"257 434 OFFCURVE",
"261 422 CURVE",
"325 419 LINE",
"331 410 OFFCURVE",
"333 395 OFFCURVE",
"333 377 CURVE SMOOTH",
"333 296 OFFCURVE",
"270 138 OFFCURVE",
"190 49 CURVE",
"182 41 OFFCURVE",
"178 6 OFFCURVE",
"172 -2 CURVE",
"230 5 LINE"
);
}
);
width = 440;
}
);
leftKerningGroup = v;
rightKerningGroup = g;
unicode = 0076;
},
{
glyphname = w;
lastChange = "2017-08-05 18:14:31 +0000";
layers = (
{
anchors = (
{
name = bottom;
position = "{356, 0}";
},
{
name = top;
position = "{356, 480}";
}
);
guideLines = (
{
position = "{131, 21}";
},
{
position = "{149, 71}";
},
{
position = "{149, 457}";
},
{
position = "{241, 458}";
},
{
angle = 98;
position = "{570, 183}";
},
{
angle = 85;
position = "{567, 202}";
}
);
layerId = "11343128-4963-4E5D-BE9C-B74F53B36FA5";
paths = (
{
closed = 1;
nodes = (
"291 109 OFFCURVE",
"283 115 OFFCURVE",
"236 267 CURVE SMOOTH",
"215 339 OFFCURVE",
"185 450 OFFCURVE",
"172 481 CURVE",
"150 486 OFFCURVE",
"75 493 OFFCURVE",
"-10 460 CURVE",
"-2 403 LINE",
"40 399 LINE",
"77 357 OFFCURVE",
"149 124 OFFCURVE",
"172 0 CURVE",
"186 0 OFFCURVE",
"220 0 OFFCURVE",
"238 0 CURVE",
"260 17 OFFCURVE",
"282 84 OFFCURVE",
"308 86 CURVE"
);
},
{
closed = 1;
nodes = (
"350 115 OFFCURVE",
"409 248 OFFCURVE",
"421 312 CURVE",
"372 406 LINE",
"371 349 OFFCURVE",
"314 163 OFFCURVE",
"215 50 CURVE",
"201 0 LINE",
"281 0 LINE"
);
},
{
closed = 1;
nodes = (
"617 132 OFFCURVE",
"715 345 OFFCURVE",
"701 481 CURVE",
"679 486 OFFCURVE",
"600 494 OFFCURVE",
"531 460 CURVE",
"540 403 LINE",
"584 399 LINE",
"615 353 OFFCURVE",
"564 163 OFFCURVE",
"465 50 CURVE",
"440 0 LINE",
"530 0 LINE"
);
},
{
closed = 1;
nodes = (
"545 109 OFFCURVE",
"536 115 OFFCURVE",
"490 267 CURVE SMOOTH",
"468 339 OFFCURVE",
"439 450 OFFCURVE",
"426 481 CURVE",
"404 486 OFFCURVE",
"327 493 OFFCURVE",
"242 460 CURVE",
"251 403 LINE",
"294 399 LINE",
"331 357 OFFCURVE",
"403 124 OFFCURVE",
"426 0 CURVE",
"440 0 OFFCURVE",
"474 0 OFFCURVE",
"492 0 CURVE",
"514 17 OFFCURVE",
"536 84 OFFCURVE",
"562 86 CURVE"
);
}
);
width = 722;
},
{
anchors = (
{
name = bottom;
position = "{296, 0}";
},
{
name = top;
position = "{307, 480}";
}
);
background = {
components = (
{
name = u;
transform = "{1, 0, 0, 1, 177, 0}";
}
);
};
guideLines = (
{
position = "{83, 419}";
},
{
position = "{61, 464}";
},
{
position = "{214, 21}";
},
{
position = "{192, 59}";
},
{
angle = 98;
position = "{447, 183}";
},
{
angle = 85;
position = "{444, 202}";
},
{
position = "{78, 422}";
}
);
layerId = "0B1F8F77-7348-4C28-A663-EA76351238C4";
paths = (
{
closed = 1;
nodes = (
"-30 449 OFFCURVE",
"-29 434 OFFCURVE",
"-25 422 CURVE",
"18 419 LINE",
"55 376 OFFCURVE",
"135 122 OFFCURVE",
"157 -2 CURVE",
"178 -2 OFFCURVE",
"200 0 OFFCURVE",
"221 6 CURVE",
"269 86 OFFCURVE",
"317.918 167.753 OFFCURVE",
"347.664 235.739 CURVE",
"374.968 153.132 OFFCURVE",
"400 59 OFFCURVE",
"411 -2 CURVE",
"432 -2 OFFCURVE",
"452 0 OFFCURVE",
"471 6 CURVE",
"548 123 OFFCURVE",
"645 334 OFFCURVE",
"645 445 CURVE SMOOTH",
"645 456 OFFCURVE",
"644 465 OFFCURVE",
"640 480 CURVE",
"595 480 OFFCURVE",
"529 472 OFFCURVE",
"483 464 CURVE",
"483 451 OFFCURVE",
"484 435 OFFCURVE",
"488 422 CURVE",
"550 419 LINE",
"556 409 OFFCURVE",
"559 390 OFFCURVE",
"559 370 CURVE SMOOTH",
"559 300.357 OFFCURVE",
"526.54 183.105 OFFCURVE",
"469.585 94.213 CURVE",
"456.29 122.773 OFFCURVE",
"438.591 171.301 OFFCURVE",
"409 267 CURVE SMOOTH",
"389 331 OFFCURVE",
"367 437 OFFCURVE",
"350 481 CURVE",
"310 477 OFFCURVE",
"269 472 OFFCURVE",
"233 463 CURVE",
"233 450 OFFCURVE",
"233 435 OFFCURVE",
"237 422 CURVE",
"272 419 LINE",
"285 405 OFFCURVE",
"300.922 364.04 OFFCURVE",
"319.839 314.424 CURVE",
"302.055 249.31 OFFCURVE",
"268.571 163.961 OFFCURVE",
"219.02 92.497 CURVE",
"203.76 125.644 OFFCURVE",
"184.068 178.369 OFFCURVE",
"158 267 CURVE SMOOTH",
"139 332 OFFCURVE",
"112 443 OFFCURVE",
"98 481 CURVE",
"57 479 OFFCURVE",
"12 473 OFFCURVE",
"-30 463 CURVE"
);
}
);
width = 663;
},
{
anchors = (
{
name = bottom;
position = "{306, 0}";
},
{
name = top;
position = "{351, 508}";
}
);
associatedMasterId = "0B1F8F77-7348-4C28-A663-EA76351238C4";
background = {
components = (
{
name = y;
transform = "{1, 0, 0, 1, 16, 0}";
}
);
};
guideLines = (
{
angle = -12;
position = "{718, 437}";
},
{
angle = -96;
position = "{368, 480}";
}
);
layerId = "99B1D419-4EF9-4109-9285-0A128B1B9370";
name = "Apr 18 17, 19:48";
paths = (
{
closed = 1;
nodes = (
"318 480 LINE",
"302 293 OFFCURVE",
"287 179 OFFCURVE",
"220 77 CURVE",
"169 85 LINE",
"178 285 OFFCURVE",
"187 468 OFFCURVE",
"181 480 CURVE",
"139 485 OFFCURVE",
"46 482 OFFCURVE",
"33 477 CURVE",
"29 441 LINE",
"97 421 LINE",
"106 364 OFFCURVE",
"107 178 OFFCURVE",
"119 28 CURVE",
"131 9 OFFCURVE",
"169 0 OFFCURVE",
"216 -1 CURVE",
"308 103 OFFCURVE",
"342 302 OFFCURVE",
"361 472 CURVE"
);
},
{
closed = 1;
nodes = (
"583 485 OFFCURVE",
"519 480 OFFCURVE",
"480 473 CURVE",
"474 446 OFFCURVE",
"474 424 OFFCURVE",
"476 397 CURVE",
"564 408 LINE",
"568 352 OFFCURVE",
"518 181 OFFCURVE",
"438 79 CURVE",
"387 87 LINE",
"389 287 OFFCURVE",
"391 374 OFFCURVE",
"392 468 CURVE",
"368 480 OFFCURVE",
"349 481 OFFCURVE",
"321 480 CURVE",
"321 326 OFFCURVE",
"326 177 OFFCURVE",
"338 27 CURVE",
"350 8 OFFCURVE",
"387 0 OFFCURVE",
"434 -1 CURVE",
"526 103 OFFCURVE",
"663 365 OFFCURVE",
"621 474 CURVE"
);
},
{
closed = 1;
nodes = (
"305 211 LINE",
"342 211 LINE",
"343 308 LINE",
"316 308 LINE"
);
}
);
width = 641;
}
);
leftKerningGroup = v;
leftMetricsKey = v;
note = "compare with v";
rightKerningGroup = g;
unicode = 0077;
},
{
glyphname = x;
lastChange = "2017-08-05 18:25:51 +0000";
layers = (
{
anchors = (
{
name = bottom;
position = "{238, 0}";
},
{
name = top;
position = "{238, 480}";
}
);
background = {
paths = (
{
closed = 1;
nodes = (
"333 351 OFFCURVE",
"297 295 OFFCURVE",
"199 282 CURVE",
"199 235 LINE",
"381 256 OFFCURVE",
"463 351 OFFCURVE",
"455 480 CURVE",
"392 481 OFFCURVE",
"337 475 OFFCURVE",
"273 462 CURVE",
"286 403 LINE",
"334 399 LINE"
);
}
);
};
guideLines = (
{
position = "{158, 71}";
},
{
position = "{140, 407}";
},
{
position = "{236, 464}";
}
);
layerId = "11343128-4963-4E5D-BE9C-B74F53B36FA5";
paths = (
{
closed = 1;
nodes = (
"282 264 LINE",
"250 336 OFFCURVE",
"211 449 OFFCURVE",
"195 480 CURVE",
"145 483 OFFCURVE",
"65 477 OFFCURVE",
"1 464 CURVE",
"10 403 LINE",
"53 399 LINE",
"79 374 OFFCURVE",
"132 286 OFFCURVE",
"180 183 CURVE"
);
},
{
closed = 1;
nodes = (
"188 215 LINE",
"220 143 OFFCURVE",
"259 31 OFFCURVE",
"279 0 CURVE",
"301 -5 OFFCURVE",
"392 -2 OFFCURVE",
"467 21 CURVE",
"472 78 LINE",
"421 82 LINE",
"393 107 OFFCURVE",
"335 193 OFFCURVE",
"287 296 CURVE"
);
},
{
closed = 1;
nodes = (
"358 271 OFFCURVE",
"472 382 OFFCURVE",
"458 480 CURVE",
"401 482 OFFCURVE",
"328 476 OFFCURVE",
"272 464 CURVE",
"285 403 LINE",
"331 399 LINE",
"345 360 OFFCURVE",
"295 300 OFFCURVE",
"217 245 CURVE",
"230 239 OFFCURVE",
"262 217 OFFCURVE",
"276 212 CURVE"
);
},
{
closed = 1;
nodes = (
"106 210 OFFCURVE",
"-11 95 OFFCURVE",
"6 1 CURVE",
"27 -6 OFFCURVE",
"124 -6 OFFCURVE",
"194 16 CURVE",
"199 78 LINE",
"137 82 LINE",
"112 125 OFFCURVE",
"174 166 OFFCURVE",
"247 234 CURVE",
"234 240 OFFCURVE",
"202 264 OFFCURVE",
"188 269 CURVE"
);
}
);
width = 473;
},
{
anchors = (
{
name = bottom;
position = "{219, 0}";
},
{
name = top;
position = "{219, 480}";
}
);
background = {
components = (
{
name = n;
transform = "{1, 0, 0, 1, -25, 0}";
}
);
};
guideLines = (
{
position = "{121, 21}";
},
{
angle = 98;
position = "{216, 220}";
},
{
angle = 85;
position = "{446, 202}";
},
{
position = "{83, 419}";
},
{
position = "{61, 464}";
},
{
position = "{78, 422}";
},
{
position = "{267, 63}";
},
{
position = "{270, 59}";
},
{
position = "{282, 16}";
}
);
layerId = "0B1F8F77-7348-4C28-A663-EA76351238C4";
paths = (
{
closed = 1;
nodes = (
"246 244 LINE",
"210 325 OFFCURVE",
"140 473 OFFCURVE",
"137 480 CURVE",
"98 477 OFFCURVE",
"48 472 OFFCURVE",
"10 464 CURVE",
"10 449 OFFCURVE",
"12 435 OFFCURVE",
"16 422 CURVE",
"58 419 LINE",
"84 394 OFFCURVE",
"140 311 OFFCURVE",
"188 208 CURVE"
);
},
{
closed = 1;
nodes = (
"201 225 LINE",
"241 133 OFFCURVE",
"290 31 OFFCURVE",
"311 -3 CURVE",
"353 0 OFFCURVE",
"391 7 OFFCURVE",
"433 16 CURVE",
"436 30 OFFCURVE",
"438 45 OFFCURVE",
"437 59 CURVE",
"382 63 LINE",
"358 88 OFFCURVE",
"304 154 OFFCURVE",
"253 257 CURVE"
);
},
{
closed = 1;
nodes = (
"338 284 OFFCURVE",
"443 386 OFFCURVE",
"422 480 CURVE",
"379 478 OFFCURVE",
"307 471 OFFCURVE",
"264 464 CURVE",
"264 450 OFFCURVE",
"266 436 OFFCURVE",
"270 422 CURVE",
"335 419 LINE",
"360 370 OFFCURVE",
"278 294 OFFCURVE",
"216 247 CURVE",
"229 241 OFFCURVE",
"240 228 OFFCURVE",
"254 223 CURVE"
);
},
{
closed = 1;
nodes = (
"69 169 OFFCURVE",
"8 81 OFFCURVE",
"22 -3 CURVE",
"66 0 OFFCURVE",
"138 7 OFFCURVE",
"182 16 CURVE",
"185 30 OFFCURVE",
"186 45 OFFCURVE",
"185 59 CURVE",
"111 63 LINE",
"84 110 OFFCURVE",
"157 173 OFFCURVE",
"220 231 CURVE",
"207 237 OFFCURVE",
"197 247 OFFCURVE",
"183 252 CURVE"
);
}
);
width = 462;
}
);
leftKerningGroup = z;
rightKerningGroup = z;
unicode = 0078;
},
{
glyphname = y;
lastChange = "2017-08-05 18:25:38 +0000";
layers = (
{
anchors = (
{
name = bottom;
position = "{234, 0}";
},
{
name = top;
position = "{256, 480}";
}
);
background = {
components = (
{
name = v;
transform = "{1, 0, 0, 1, -6, 0}";
}
);
paths = (
{
closed = 1;
nodes = (
"123 -272 OFFCURVE",
"232 -130 OFFCURVE",
"318 40 CURVE SMOOTH",
"399 199 OFFCURVE",
"461 384 OFFCURVE",
"451 480 CURVE",
"430 487 OFFCURVE",
"358 491 OFFCURVE",
"298 457 CURVE",
"303 419 LINE",
"363 419 LINE",
"388 331 OFFCURVE",
"337 193 OFFCURVE",
"272 68 CURVE",
"199 -107 OFFCURVE",
"109 -153 OFFCURVE",
"21 -159 CURVE",
"10 -176 LINE",
"53 -249 LINE"
);
}
);
};
layerId = "11343128-4963-4E5D-BE9C-B74F53B36FA5";
paths = (
{
closed = 1;
nodes = (
"298 111 OFFCURVE",
"291 115 OFFCURVE",
"244 267 CURVE SMOOTH",
"222 339 OFFCURVE",
"197 449 OFFCURVE",
"184 480 CURVE",
"164 486 OFFCURVE",
"83 490 OFFCURVE",
"1 460 CURVE",
"9 403 LINE",
"46 399 LINE",
"84 357 OFFCURVE",
"182 66 OFFCURVE",
"191 -34 CURVE",
"223 -38 OFFCURVE",
"271 82 OFFCURVE",
"315 88 CURVE"
);
},
{
closed = 1;
nodes = (
"135 -245 OFFCURVE",
"238 -124 OFFCURVE",
"321 34 CURVE SMOOTH",
"411 205 OFFCURVE",
"491 402 OFFCURVE",
"466 480 CURVE",
"445 487 OFFCURVE",
"362 490 OFFCURVE",
"295 461 CURVE",
"304 403 LINE",
"346 399 LINE",
"375 352 OFFCURVE",
"342 219 OFFCURVE",
"260 97 CURVE",
"206 -85 OFFCURVE",
"72 -98 OFFCURVE",
"-3 -110 CURVE",
"-20 -132 LINE",
"43 -239 LINE"
);
}
);
width = 491;
},
{
anchors = (
{
name = bottom;
position = "{204, 0}";
},
{
name = top;
position = "{226, 480}";
}
);
background = {
components = (
{
name = v;
transform = "{1, 0, 0, 1, 23, 0}";
}
);
};
guideLines = (
{
position = "{105, 21}";
},
{
angle = 98;
position = "{11, 238}";
},
{
position = "{83, 419}";
},
{
position = "{61, 464}";
},
{
position = "{78, 422}";
}
);
layerId = "0B1F8F77-7348-4C28-A663-EA76351238C4";
paths = (
{
closed = 1;
nodes = (
"255 50 OFFCURVE",
"236 115 OFFCURVE",
"188 267 CURVE SMOOTH",
"169 326 OFFCURVE",
"140 439 OFFCURVE",
"129 480 CURVE",
"85 480 OFFCURVE",
"36 474 OFFCURVE",
"-8 464 CURVE",
"-9 451 OFFCURVE",
"-7 435 OFFCURVE",
"-4 422 CURVE",
"39 419 LINE",
"71 384 OFFCURVE",
"148 163 OFFCURVE",
"187 34 CURVE SMOOTH",
"195 8 OFFCURVE",
"201 -14 OFFCURVE",
"205 -30 CURVE",
"237 -34 OFFCURVE",
"254 -8 OFFCURVE",
"272 27 CURVE"
);
},
{
closed = 1;
nodes = (
"105 -261 OFFCURVE",
"223 -86 OFFCURVE",
"289 40 CURVE SMOOTH",
"389 231 OFFCURVE",
"442 386 OFFCURVE",
"436 481 CURVE",
"392 481 OFFCURVE",
"321 474 OFFCURVE",
"273 464 CURVE",
"272 449 OFFCURVE",
"274 435 OFFCURVE",
"279 422 CURVE",
"349 419 LINE",
"374 322 OFFCURVE",
"285 137 OFFCURVE",
"244 66 CURVE",
"171 -109 OFFCURVE",
"79 -138 OFFCURVE",
"-9 -144 CURVE",
"-20 -161 LINE",
"23 -234 LINE"
);
}
);
width = 456;
}
);
leftKerningGroup = v;
note = " ";
rightMetricsKey = v;
unicode = 0079;
},
{
glyphname = z;
lastChange = "2017-08-05 18:25:06 +0000";
layers = (
{
anchors = (
{
name = bottom;
position = "{225, 0}";
},
{
name = top;
position = "{225, 480}";
}
);
background = {
paths = (
{
closed = 1;
nodes = (
"142 -3 OFFCURVE",
"183 21 OFFCURVE",
"188 27 CURVE",
"203 42 OFFCURVE",
"226 58 OFFCURVE",
"243 83 CURVE SMOOTH",
"260 108 OFFCURVE",
"387 335 OFFCURVE",
"438 453 CURVE",
"423 465 OFFCURVE",
"407 477 OFFCURVE",
"391 480 CURVE SMOOTH",
"369 484 OFFCURVE",
"365 469 OFFCURVE",
"357 448 CURVE SMOOTH",
"325 370 OFFCURVE",
"269 262 OFFCURVE",
"211 163 CURVE SMOOTH",
"199 143 OFFCURVE",
"181 129 OFFCURVE",
"169 127 CURVE",
"144 137 OFFCURVE",
"117 152 OFFCURVE",
"94 167 CURVE",
"78 131 OFFCURVE",
"55 51 OFFCURVE",
"56 39 CURVE",
"67 14 OFFCURVE",
"96 -3 OFFCURVE",
"125 -3 CURVE SMOOTH"
);
},
{
closed = 1;
nodes = (
"441 62 OFFCURVE",
"463 112 OFFCURVE",
"468 146 CURVE",
"425 163 LINE",
"420 143 OFFCURVE",
"412 128 OFFCURVE",
"403 116 CURVE",
"358 110 OFFCURVE",
"306 103 OFFCURVE",
"234 150 CURVE",
"173 74 LINE",
"244 10 OFFCURVE",
"324 -34 OFFCURVE",
"410 17 CURVE"
);
},
{
closed = 1;
nodes = (
"122 332 OFFCURVE",
"281 347 OFFCURVE",
"327 344 CURVE",
"365 380 LINE",
"352 403 OFFCURVE",
"398 444 OFFCURVE",
"375 444 CURVE",
"294 435 OFFCURVE",
"166 472 OFFCURVE",
"89 478 CURVE",
"82 468 OFFCURVE",
"66 345 OFFCURVE",
"76 317 CURVE"
);
}
);
};
layerId = "11343128-4963-4E5D-BE9C-B74F53B36FA5";
paths = (
{
closed = 1;
nodes = (
"353 161 OFFCURVE",
"347 147 OFFCURVE",
"338 124 CURVE",
"319 115 OFFCURVE",
"277 114 OFFCURVE",
"210 119 CURVE",
"236 164 OFFCURVE",
"336 323 OFFCURVE",
"413 415 CURVE",
"399 475 LINE",
"290 473 OFFCURVE",
"149 474 OFFCURVE",
"45 479 CURVE",
"39 389 OFFCURVE",
"33 317 OFFCURVE",
"33 279 CURVE",
"46 278 OFFCURVE",
"91 284 OFFCURVE",
"110 290 CURVE",
"121 345 LINE",
"152 353 OFFCURVE",
"214 353 OFFCURVE",
"257 354 CURVE",
"238 312 OFFCURVE",
"129 147 OFFCURVE",
"20 60 CURVE",
"36 1 LINE",
"158 1 OFFCURVE",
"286 3 OFFCURVE",
"408 -2 CURVE",
"416 51 OFFCURVE",
"426 120 OFFCURVE",
"435 175 CURVE",
"360 184 LINE"
);
}
);
width = 450;
},
{
anchors = (
{
name = bottom;
position = "{204, 0}";
},
{
name = top;
position = "{204, 480}";
}
);
background = {
paths = (
{
closed = 1;
nodes = (
"93 372 OFFCURVE",
"97 382 OFFCURVE",
"104 403 CURVE",
"133 406 OFFCURVE",
"193 415 OFFCURVE",
"283 411 CURVE",
"257 366 OFFCURVE",
"123 132 OFFCURVE",
"44 41 CURVE",
"54 1 LINE",
"163 5 OFFCURVE",
"270 6 OFFCURVE",
"374 -1 CURVE",
"381 48 OFFCURVE",
"385 92 OFFCURVE",
"386 130 CURVE",
"372 133 OFFCURVE",
"353 137 OFFCURVE",
"334 135 CURVE",
"318 79 LINE",
"287 70 OFFCURVE",
"188 71 OFFCURVE",
"145 70 CURVE",
"164 112 OFFCURVE",
"299 359 OFFCURVE",
"398 441 CURVE",
"391 477 LINE",
"269 477 OFFCURVE",
"172 476 OFFCURVE",
"50 481 CURVE",
"42 428 OFFCURVE",
"36 397 OFFCURVE",
"27 342 CURVE",
"45 338 OFFCURVE",
"65 337 OFFCURVE",
"81 336 CURVE"
);
}
);
};
layerId = "0B1F8F77-7348-4C28-A663-EA76351238C4";
paths = (
{
closed = 1;
nodes = (
"340 117 OFFCURVE",
"334 96 OFFCURVE",
"328 75 CURVE",
"277 69 OFFCURVE",
"195 62 OFFCURVE",
"129 67 CURVE",
"155 112 OFFCURVE",
"317 342 OFFCURVE",
"396 433 CURVE",
"395 450 OFFCURVE",
"391 465 OFFCURVE",
"386 480 CURVE",
"335 476 OFFCURVE",
"279 475 OFFCURVE",
"223 475 CURVE SMOOTH",
"159 475 OFFCURVE",
"97 477 OFFCURVE",
"43 480 CURVE",
"38 429 OFFCURVE",
"34 367 OFFCURVE",
"31 329 CURVE",
"48 327 OFFCURVE",
"65 328 OFFCURVE",
"82 332 CURVE",
"99 402 LINE",
"130 406 OFFCURVE",
"253 413 OFFCURVE",
"296 411 CURVE",
"275 369 OFFCURVE",
"109 121 OFFCURVE",
"13 39 CURVE",
"14 26 OFFCURVE",
"17 13 OFFCURVE",
"22 2 CURVE",
"57 2 OFFCURVE",
"91 2 OFFCURVE",
"124 2 CURVE SMOOTH",
"207 2 OFFCURVE",
"292 2 OFFCURVE",
"379 -2 CURVE",
"387 46 OFFCURVE",
"391 88 OFFCURVE",
"396 142 CURVE",
"380 147 OFFCURVE",
"363 146 OFFCURVE",
"348 142 CURVE"
);
}
);
width = 419;
}
);
leftKerningGroup = z;
rightKerningGroup = z;
unicode = 007A;
},
